{"glyphs":{"0":{"ha":460,"x_min":0,"x_max":0,"o":"m 367 1057 b 35 357 221 1057 35 669 b 156 -15 35 206 53 -15 b 488 682 301 -15 488 372 b 367 1057 488 836 469 1057 z m 165 0 b 157 28 158 0 157 10 b 357 1042 157 193 303 1042 b 365 1014 363 1042 365 1032 b 165 0 365 847 219 0 z "},"1":{"ha":285,"x_min":0,"x_max":0,"o":"m 201 0 l 203 8 l 181 100 l 340 928 l 363 1042 l 350 1042 b 92 903 328 968 229 903 l 88 892 b 157 897 113 892 135 893 l 3 100 l -47 8 l -49 0 z "},"2":{"ha":424,"x_min":0,"x_max":0,"o":"m 376 221 l 375 222 b 218 146 324 163 276 146 b -26 18 129 146 51 142 b 493 847 118 319 493 539 b 310 1057 493 990 407 1057 b 163 1010 238 1057 188 1028 l 122 804 l 238 826 l 278 1042 l 282 1042 b 333 915 307 1042 333 1022 b -42 0 333 583 86 471 l -35 0 b 43 22 -12 15 10 22 b 215 -3 100 22 142 -3 b 310 11 258 -3 292 4 z "},"3":{"ha":417,"x_min":0,"x_max":0,"o":"m 82 -15 b 408 383 243 -15 408 151 b 231 611 408 564 308 611 b 203 610 221 611 213 611 b 465 892 336 657 465 749 b 296 1057 465 1000 392 1057 b 139 1010 222 1057 164 1028 l 99 804 l 214 826 l 256 1042 b 306 950 289 1042 306 1039 b 154 599 306 763 231 646 l 124 583 l 122 574 l 139 582 b 179 592 154 589 165 592 b 238 421 207 592 238 578 b 72 -1 238 183 168 -1 b 54 0 67 -1 61 -1 l 101 243 l -12 221 l -49 36 b 82 -15 -39 18 11 -15 z "},"4":{"ha":424,"x_min":0,"x_max":0,"o":"m -28 222 l 143 222 l 119 100 l 75 8 l 74 0 l 306 0 l 307 8 l 292 100 l 315 222 l 371 222 l 422 333 l 338 333 l 451 919 l 193 478 l 165 333 l 42 333 l 431 1042 l 322 1042 l 313 850 l -26 233 z "},"5":{"ha":399,"x_min":0,"x_max":0,"o":"m -8 221 l -42 46 b 82 -15 -31 22 14 -15 b 399 425 247 -15 399 196 b 224 683 399 578 329 683 b 85 592 165 683 122 650 l 164 903 l 163 897 l 415 897 l 489 1057 l 482 1057 l 382 1042 l 188 1042 l 67 561 l 78 561 b 174 654 115 628 147 654 b 218 494 196 654 218 638 b 72 0 218 285 169 0 b 58 1 68 0 63 0 l 106 243 z "},"6":{"ha":461,"x_min":0,"x_max":0,"o":"m 410 1042 b 419 1040 413 1042 417 1042 l 374 799 l 488 821 l 524 1008 b 414 1057 508 1029 469 1057 b 28 281 188 1057 28 585 b 185 -15 28 78 100 -15 b 447 424 335 -15 447 242 b 336 603 447 542 404 603 b 224 508 292 603 244 578 b 368 1019 261 731 314 956 b 410 1042 383 1039 399 1042 z m 174 53 b 221 490 174 142 192 314 b 253 511 232 506 242 511 b 279 460 267 511 279 503 b 186 0 279 317 219 0 b 174 53 178 0 174 13 z "},"7":{"ha":379,"x_min":0,"x_max":0,"o":"m 497 1042 l 156 1042 l 101 896 l 449 896 b -21 0 343 636 106 436 l 160 0 b 497 1042 276 514 436 700 z "},"8":{"ha":408,"x_min":0,"x_max":0,"o":"m 478 901 b 338 1057 478 992 429 1057 b 114 785 229 1057 114 958 b 164 539 114 694 138 615 b -14 196 43 439 -14 317 b 161 -15 -14 60 57 -15 b 399 307 282 -15 399 97 b 315 647 399 440 351 540 b 478 901 407 688 478 792 z m 267 890 b 326 1046 267 986 286 1046 b 375 921 360 1046 375 1006 b 311 660 375 824 351 721 b 267 890 288 725 267 800 z m 92 158 b 168 526 92 282 122 444 b 246 206 203 426 246 325 b 157 -4 246 99 213 -4 b 92 158 128 -4 92 22 z "},"9":{"ha":461,"x_min":0,"x_max":0,"o":"m 114 -7 b 104 -6 111 -7 107 -7 l 150 236 l 36 214 l 0 26 b 110 -22 15 6 54 -22 b 496 754 336 -22 496 450 b 339 1050 496 957 424 1050 b 76 611 189 1050 76 793 b 188 432 76 493 119 432 b 300 526 232 432 279 457 b 156 15 263 304 210 79 b 114 -7 140 -4 125 -7 z m 350 982 b 303 544 350 893 332 721 b 271 524 292 529 282 524 b 244 575 257 524 244 532 b 338 1035 244 718 304 1035 b 350 982 346 1035 350 1022 z "}," ":{"ha":125,"x_min":0,"x_max":0,"o":""}," ":{"ha":125,"x_min":0,"x_max":0,"o":""}," ":{"ha":50,"x_min":0,"x_max":0,"o":""},"A":{"ha":449,"x_min":0,"x_max":0,"o":"m 335 1042 l 25 172 l -56 8 l -56 0 l 60 0 l 61 8 l 36 168 l 78 285 l 200 285 l 192 114 l 163 8 l 163 0 l 369 0 l 371 8 l 364 114 l 394 1042 z m 178 567 l 219 683 l 214 567 l 200 296 l 82 296 z "},"À":{"ha":449,"x_min":0,"x_max":0,"o":"m 238 1254 l 236 1254 l 172 1126 l 419 1089 l 422 1096 b 238 1254 372 1126 289 1207 z m 335 1042 l 25 172 l -56 8 l -56 0 l 60 0 l 61 8 l 36 168 l 78 285 l 200 285 l 192 114 l 163 8 l 163 0 l 369 0 l 371 8 l 364 114 l 394 1042 z m 178 567 l 219 683 l 214 567 l 200 296 l 82 296 z "},"Á":{"ha":449,"x_min":0,"x_max":0,"o":"m 471 1254 b 256 1096 406 1199 288 1113 l 257 1089 l 494 1126 l 472 1254 z m 335 1042 l 25 172 l -56 8 l -56 0 l 60 0 l 61 8 l 36 168 l 78 285 l 200 285 l 192 114 l 163 8 l 163 0 l 369 0 l 371 8 l 364 114 l 394 1042 z m 178 567 l 219 683 l 214 567 l 200 296 l 82 296 z "},"Â":{"ha":449,"x_min":0,"x_max":0,"o":"m 485 1089 l 490 1096 b 396 1254 471 1122 418 1210 l 392 1254 b 233 1096 343 1200 257 1113 l 236 1089 l 378 1125 z m 335 1042 l 25 172 l -56 8 l -56 0 l 60 0 l 61 8 l 36 168 l 78 285 l 200 285 l 192 114 l 163 8 l 163 0 l 369 0 l 371 8 l 364 114 l 394 1042 z m 178 567 l 219 683 l 214 567 l 200 296 l 82 296 z "},"Ã":{"ha":449,"x_min":0,"x_max":0,"o":"m 344 1238 b 217 1096 321 1238 250 1147 l 219 1094 b 299 1132 247 1111 279 1132 b 419 1094 329 1132 383 1094 b 547 1236 443 1094 515 1185 l 544 1238 b 476 1199 514 1218 499 1199 b 344 1238 447 1199 381 1238 z m 335 1042 l 25 172 l -56 8 l -56 0 l 60 0 l 61 8 l 36 168 l 78 285 l 200 285 l 192 114 l 163 8 l 163 0 l 369 0 l 371 8 l 364 114 l 394 1042 z m 178 567 l 219 683 l 214 567 l 200 296 l 82 296 z "},"Ä":{"ha":449,"x_min":0,"x_max":0,"o":"m 274 1099 b 358 1183 324 1099 358 1135 b 274 1265 358 1231 324 1265 b 192 1183 228 1265 192 1231 b 274 1099 192 1135 228 1099 z m 468 1099 b 553 1183 518 1099 553 1135 b 468 1265 553 1231 518 1265 b 386 1183 422 1265 386 1231 b 468 1099 386 1135 422 1099 z m 335 1042 l 25 172 l -56 8 l -56 0 l 60 0 l 61 8 l 36 168 l 78 285 l 200 285 l 192 114 l 163 8 l 163 0 l 369 0 l 371 8 l 364 114 l 394 1042 z m 178 567 l 219 683 l 214 567 l 200 296 l 82 296 z "},"Å":{"ha":449,"x_min":0,"x_max":0,"o":"m 375 1086 b 476 1185 433 1086 476 1132 b 375 1285 476 1238 433 1285 b 274 1185 317 1285 274 1238 b 375 1086 274 1132 317 1086 z m 375 1096 b 343 1185 351 1096 343 1136 b 375 1275 343 1246 351 1275 b 407 1185 399 1275 407 1232 b 375 1096 407 1124 399 1096 z m 335 1042 l 25 172 l -56 8 l -56 0 l 60 0 l 61 8 l 36 168 l 78 285 l 200 285 l 192 114 l 163 8 l 163 0 l 369 0 l 371 8 l 364 114 l 394 1042 z m 178 567 l 219 683 l 214 567 l 200 296 l 82 296 z "},"Ā":{"ha":449,"x_min":0,"x_max":0,"o":"m 261 1113 l 469 1113 l 488 1207 l 279 1207 z m 335 1042 l 25 172 l -56 8 l -56 0 l 60 0 l 61 8 l 36 168 l 78 285 l 200 285 l 192 114 l 163 8 l 163 0 l 369 0 l 371 8 l 364 114 l 394 1042 z m 178 567 l 219 683 l 214 567 l 200 296 l 82 296 z "},"Ă":{"ha":449,"x_min":0,"x_max":0,"o":"m 494 1250 b 392 1204 482 1224 446 1204 b 303 1250 336 1204 307 1224 l 297 1250 b 379 1094 268 1156 313 1094 b 500 1250 446 1094 493 1156 z m 335 1042 l 25 172 l -56 8 l -56 0 l 60 0 l 61 8 l 36 168 l 78 285 l 200 285 l 192 114 l 163 8 l 163 0 l 369 0 l 371 8 l 364 114 l 394 1042 z m 178 567 l 219 683 l 214 567 l 200 296 l 82 296 z "},"Ą":{"ha":449,"x_min":0,"x_max":0,"o":"m 335 1042 l 25 172 l -56 8 l -56 0 l 60 0 l 61 8 l 36 168 l 78 285 l 200 285 l 186 4 b -29 -257 57 -69 -29 -165 b 53 -347 -29 -312 3 -347 b 206 -217 125 -347 171 -281 l 203 -215 b 136 -249 179 -239 157 -249 b 86 -193 107 -249 86 -229 b 193 0 86 -160 101 -74 l 369 0 l 371 8 l 364 114 l 394 1042 z m 178 567 l 219 683 l 214 567 l 200 296 l 82 296 z "},"Ǻ":{"ha":449,"x_min":0,"x_max":0,"o":"m 514 1468 b 299 1310 449 1413 331 1326 l 300 1303 l 538 1340 l 515 1468 z m 375 1086 b 476 1185 433 1086 476 1132 b 375 1285 476 1238 433 1285 b 274 1185 317 1285 274 1238 b 375 1086 274 1132 317 1086 z m 375 1096 b 343 1185 351 1096 343 1136 b 375 1275 343 1246 351 1275 b 407 1185 399 1275 407 1232 b 375 1096 407 1124 399 1096 z m 335 1042 l 25 172 l -56 8 l -56 0 l 60 0 l 61 8 l 36 168 l 78 285 l 200 285 l 192 114 l 163 8 l 163 0 l 369 0 l 371 8 l 364 114 l 394 1042 z m 178 567 l 219 683 l 214 567 l 200 296 l 82 296 z "},"B":{"ha":482,"x_min":0,"x_max":0,"o":"m -54 0 l 169 0 b 474 363 339 0 474 175 b 301 575 474 471 428 561 b 544 864 444 599 544 736 b 354 1042 544 951 497 1042 l 149 1042 l 147 1033 l 144 928 l -14 114 l -53 8 z m 347 1031 b 386 951 364 1031 386 1017 b 268 579 386 803 317 579 l 254 579 l 340 1031 z m 257 568 b 303 492 276 568 303 563 b 168 15 303 221 207 15 b 144 17 161 15 154 15 l 251 568 z "},"C":{"ha":421,"x_min":0,"x_max":0,"o":"m 196 -15 b 336 14 250 -15 321 4 l 375 206 l 365 206 b 207 0 288 99 232 0 b 179 135 194 0 179 36 b 371 1038 179 492 306 1038 b 444 864 403 1038 421 961 l 454 864 l 489 1044 b 390 1057 474 1049 432 1057 b 21 340 201 1057 21 678 b 196 -15 21 122 100 -15 z "},"Ç":{"ha":421,"x_min":0,"x_max":0,"o":"m 196 -15 b 336 14 250 -15 321 4 l 375 206 l 365 206 b 207 0 288 99 232 0 b 179 135 194 0 179 36 b 371 1038 179 492 306 1038 b 444 864 403 1038 421 961 l 454 864 l 489 1044 b 390 1057 474 1049 432 1057 b 21 340 201 1057 21 678 b 196 -15 21 122 100 -15 z m 203 -15 l 192 -15 l 94 -149 l 100 -151 b 132 -210 113 -158 132 -174 b 42 -329 132 -265 86 -306 l 43 -335 b 246 -149 176 -297 246 -229 b 183 -43 246 -103 225 -68 z "},"Ć":{"ha":421,"x_min":0,"x_max":0,"o":"m 528 1254 b 313 1096 463 1199 344 1113 l 314 1089 l 551 1126 l 529 1254 z m 196 -15 b 336 14 250 -15 321 4 l 375 206 l 365 206 b 207 0 288 99 232 0 b 179 135 194 0 179 36 b 371 1038 179 492 306 1038 b 444 864 403 1038 421 961 l 454 864 l 489 1044 b 390 1057 474 1049 432 1057 b 21 340 201 1057 21 678 b 196 -15 21 122 100 -15 z "},"Ĉ":{"ha":421,"x_min":0,"x_max":0,"o":"m 524 1089 l 529 1096 b 435 1254 510 1122 457 1210 l 431 1254 b 272 1096 382 1200 296 1113 l 275 1089 l 417 1125 z m 196 -15 b 336 14 250 -15 321 4 l 375 206 l 365 206 b 207 0 288 99 232 0 b 179 135 194 0 179 36 b 371 1038 179 492 306 1038 b 444 864 403 1038 421 961 l 454 864 l 489 1044 b 390 1057 474 1049 432 1057 b 21 340 201 1057 21 678 b 196 -15 21 122 100 -15 z "},"Ċ":{"ha":421,"x_min":0,"x_max":0,"o":"m 376 1094 b 468 1188 428 1094 468 1136 b 376 1279 468 1238 428 1279 b 285 1188 325 1279 285 1238 b 376 1094 285 1136 325 1094 z m 196 -15 b 336 14 250 -15 321 4 l 375 206 l 365 206 b 207 0 288 99 232 0 b 179 135 194 0 179 36 b 371 1038 179 492 306 1038 b 444 864 403 1038 421 961 l 454 864 l 489 1044 b 390 1057 474 1049 432 1057 b 21 340 201 1057 21 678 b 196 -15 21 122 100 -15 z "},"Č":{"ha":421,"x_min":0,"x_max":0,"o":"m 297 1258 l 292 1251 b 386 1093 311 1225 364 1138 l 390 1093 b 549 1251 439 1147 525 1235 l 546 1258 l 404 1222 z m 196 -15 b 336 14 250 -15 321 4 l 375 206 l 365 206 b 207 0 288 99 232 0 b 179 135 194 0 179 36 b 371 1038 179 492 306 1038 b 444 864 403 1038 421 961 l 454 864 l 489 1044 b 390 1057 474 1049 432 1057 b 21 340 201 1057 21 678 b 196 -15 21 122 100 -15 z "},"D":{"ha":478,"x_min":0,"x_max":0,"o":"m -57 0 l 139 0 b 526 756 340 0 526 440 b 354 1042 526 935 463 1042 l 146 1042 l 144 1033 l 142 928 l -17 114 l -56 8 z m 342 1031 b 367 932 357 1031 367 1007 b 175 15 367 639 211 15 b 144 31 165 15 154 21 l 338 1031 z "},"Ď":{"ha":478,"x_min":0,"x_max":0,"o":"m 240 1258 l 235 1251 b 329 1093 254 1225 307 1138 l 333 1093 b 492 1251 382 1147 468 1235 l 489 1258 l 347 1222 z m -57 0 l 139 0 b 526 756 340 0 526 440 b 354 1042 526 935 463 1042 l 146 1042 l 144 1033 l 142 928 l -17 114 l -56 8 z m 342 1031 b 367 932 357 1031 367 1007 b 175 15 367 639 211 15 b 144 31 165 15 154 21 l 338 1031 z "},"E":{"ha":388,"x_min":0,"x_max":0,"o":"m -54 0 l 303 0 l 328 131 l 318 131 l 153 11 l 142 11 l 244 547 l 322 471 l 332 471 l 365 646 l 356 646 l 247 560 l 338 1031 l 343 1031 l 465 925 l 475 925 l 499 1042 l 143 1042 l 143 1033 l 142 928 l -17 114 l -53 8 z "},"È":{"ha":388,"x_min":0,"x_max":0,"o":"m 256 1254 l 254 1254 l 190 1126 l 438 1089 l 440 1096 b 256 1254 390 1126 307 1207 z m -54 0 l 303 0 l 328 131 l 318 131 l 153 11 l 142 11 l 244 547 l 322 471 l 332 471 l 365 646 l 356 646 l 247 560 l 338 1031 l 343 1031 l 465 925 l 475 925 l 499 1042 l 143 1042 l 143 1033 l 142 928 l -17 114 l -53 8 z "},"É":{"ha":388,"x_min":0,"x_max":0,"o":"m 457 1254 b 242 1096 392 1199 274 1113 l 243 1089 l 481 1126 l 458 1254 z m -54 0 l 303 0 l 328 131 l 318 131 l 153 11 l 142 11 l 244 547 l 322 471 l 332 471 l 365 646 l 356 646 l 247 560 l 338 1031 l 343 1031 l 465 925 l 475 925 l 499 1042 l 143 1042 l 143 1033 l 142 928 l -17 114 l -53 8 z "},"Ê":{"ha":388,"x_min":0,"x_max":0,"o":"m 458 1089 l 464 1096 b 369 1254 444 1122 392 1210 l 365 1254 b 207 1096 317 1200 231 1113 l 210 1089 l 351 1125 z m -54 0 l 303 0 l 328 131 l 318 131 l 153 11 l 142 11 l 244 547 l 322 471 l 332 471 l 365 646 l 356 646 l 247 560 l 338 1031 l 343 1031 l 465 925 l 475 925 l 499 1042 l 143 1042 l 143 1033 l 142 928 l -17 114 l -53 8 z "},"Ë":{"ha":388,"x_min":0,"x_max":0,"o":"m 254 1099 b 339 1183 304 1099 339 1135 b 254 1265 339 1231 304 1265 b 172 1183 208 1265 172 1231 b 254 1099 172 1135 208 1099 z m 449 1099 b 533 1183 499 1099 533 1135 b 449 1265 533 1231 499 1265 b 367 1183 403 1265 367 1231 b 449 1099 367 1135 403 1099 z m -54 0 l 303 0 l 328 131 l 318 131 l 153 11 l 142 11 l 244 547 l 322 471 l 332 471 l 365 646 l 356 646 l 247 560 l 338 1031 l 343 1031 l 465 925 l 475 925 l 499 1042 l 143 1042 l 143 1033 l 142 928 l -17 114 l -53 8 z "},"Ē":{"ha":388,"x_min":0,"x_max":0,"o":"m 235 1113 l 443 1113 l 461 1207 l 253 1207 z m -54 0 l 303 0 l 328 131 l 318 131 l 153 11 l 142 11 l 244 547 l 322 471 l 332 471 l 365 646 l 356 646 l 247 560 l 338 1031 l 343 1031 l 465 925 l 475 925 l 499 1042 l 143 1042 l 143 1033 l 142 928 l -17 114 l -53 8 z "},"Ĕ":{"ha":388,"x_min":0,"x_max":0,"o":"m 489 1250 b 386 1204 476 1224 440 1204 b 297 1250 331 1204 301 1224 l 292 1250 b 374 1094 263 1156 307 1094 b 494 1250 440 1094 488 1156 z m -54 0 l 303 0 l 328 131 l 318 131 l 153 11 l 142 11 l 244 547 l 322 471 l 332 471 l 365 646 l 356 646 l 247 560 l 338 1031 l 343 1031 l 465 925 l 475 925 l 499 1042 l 143 1042 l 143 1033 l 142 928 l -17 114 l -53 8 z "},"Ė":{"ha":388,"x_min":0,"x_max":0,"o":"m 354 1094 b 446 1188 406 1094 446 1136 b 354 1279 446 1238 406 1279 b 263 1188 303 1279 263 1238 b 354 1094 263 1136 303 1094 z m -54 0 l 303 0 l 328 131 l 318 131 l 153 11 l 142 11 l 244 547 l 322 471 l 332 471 l 365 646 l 356 646 l 247 560 l 338 1031 l 343 1031 l 465 925 l 475 925 l 499 1042 l 143 1042 l 143 1033 l 142 928 l -17 114 l -53 8 z "},"Ę":{"ha":388,"x_min":0,"x_max":0,"o":"m -54 0 l 210 0 b 1 -257 85 -74 1 -167 b 83 -347 1 -312 33 -347 b 236 -217 156 -347 201 -281 l 233 -215 b 167 -249 210 -239 188 -249 b 117 -193 138 -249 117 -229 b 224 0 117 -160 132 -74 l 303 0 l 328 131 l 318 131 l 153 11 l 142 11 l 244 547 l 322 471 l 332 471 l 365 646 l 356 646 l 247 560 l 338 1031 l 343 1031 l 465 925 l 475 925 l 499 1042 l 143 1042 l 143 1033 l 142 928 l -17 114 l -53 8 z "},"Ě":{"ha":388,"x_min":0,"x_max":0,"o":"m 231 1258 l 225 1251 b 319 1093 244 1225 297 1138 l 324 1093 b 482 1251 372 1147 458 1235 l 479 1258 l 338 1222 z m -54 0 l 303 0 l 328 131 l 318 131 l 153 11 l 142 11 l 244 547 l 322 471 l 332 471 l 365 646 l 356 646 l 247 560 l 338 1031 l 343 1031 l 465 925 l 475 925 l 499 1042 l 143 1042 l 143 1033 l 142 928 l -17 114 l -53 8 z "},"F":{"ha":381,"x_min":0,"x_max":0,"o":"m 160 0 l 161 8 l 160 114 l 244 547 l 322 471 l 332 471 l 365 646 l 356 646 l 246 558 l 338 1031 l 343 1031 l 467 926 l 476 926 l 499 1042 l 143 1042 l 143 1033 l 142 928 l -17 114 l -53 8 l -54 0 z "},"G":{"ha":482,"x_min":0,"x_max":0,"o":"m 217 -15 b 386 28 279 -15 358 10 l 475 471 l 507 576 l 508 585 l 311 586 l 310 578 l 313 472 l 219 -6 l 215 -6 b 179 135 192 -6 179 36 b 425 1042 179 492 347 1042 b 518 865 446 1042 469 1003 l 526 865 l 561 1044 b 471 1057 528 1053 497 1057 b 21 326 228 1057 21 664 b 217 -15 21 108 99 -15 z "},"Ĝ":{"ha":482,"x_min":0,"x_max":0,"o":"m 556 1089 l 561 1096 b 467 1254 542 1122 489 1210 l 463 1254 b 304 1096 414 1200 328 1113 l 307 1089 l 449 1125 z m 217 -15 b 386 28 279 -15 358 10 l 475 471 l 507 576 l 508 585 l 311 586 l 310 578 l 313 472 l 219 -6 l 215 -6 b 179 135 192 -6 179 36 b 425 1042 179 492 347 1042 b 518 865 446 1042 469 1003 l 526 865 l 561 1044 b 471 1057 528 1053 497 1057 b 21 326 228 1057 21 664 b 217 -15 21 108 99 -15 z "},"Ğ":{"ha":482,"x_min":0,"x_max":0,"o":"m 560 1250 b 457 1204 547 1224 511 1204 b 368 1250 401 1204 372 1224 l 363 1250 b 444 1094 333 1156 378 1094 b 565 1250 511 1094 558 1156 z m 217 -15 b 386 28 279 -15 358 10 l 475 471 l 507 576 l 508 585 l 311 586 l 310 578 l 313 472 l 219 -6 l 215 -6 b 179 135 192 -6 179 36 b 425 1042 179 492 347 1042 b 518 865 446 1042 469 1003 l 526 865 l 561 1044 b 471 1057 528 1053 497 1057 b 21 326 228 1057 21 664 b 217 -15 21 108 99 -15 z "},"Ġ":{"ha":482,"x_min":0,"x_max":0,"o":"m 449 1094 b 540 1188 500 1094 540 1136 b 449 1279 540 1238 500 1279 b 357 1188 397 1279 357 1238 b 449 1094 357 1136 397 1094 z m 217 -15 b 386 28 279 -15 358 10 l 475 471 l 507 576 l 508 585 l 311 586 l 310 578 l 313 472 l 219 -6 l 215 -6 b 179 135 192 -6 179 36 b 425 1042 179 492 347 1042 b 518 865 446 1042 469 1003 l 526 865 l 561 1044 b 471 1057 528 1053 497 1057 b 21 326 228 1057 21 664 b 217 -15 21 108 99 -15 z "},"H":{"ha":474,"x_min":0,"x_max":0,"o":"m 158 0 l 160 8 l 160 114 l 244 553 l 303 553 l 218 114 l 182 8 l 181 0 l 393 0 l 394 8 l 394 114 l 553 928 l 588 1033 l 589 1042 l 378 1042 l 378 1033 l 376 928 l 306 564 l 247 564 l 318 928 l 354 1033 l 356 1042 l 143 1042 l 143 1033 l 142 928 l -17 114 l -53 8 l -54 0 z "},"Ĥ":{"ha":474,"x_min":0,"x_max":0,"o":"m 492 1089 l 497 1096 b 403 1254 478 1122 425 1210 l 399 1254 b 240 1096 350 1200 264 1113 l 243 1089 l 385 1125 z m 158 0 l 160 8 l 160 114 l 244 553 l 303 553 l 218 114 l 182 8 l 181 0 l 393 0 l 394 8 l 394 114 l 553 928 l 588 1033 l 589 1042 l 378 1042 l 378 1033 l 376 928 l 306 564 l 247 564 l 318 928 l 354 1033 l 356 1042 l 143 1042 l 143 1033 l 142 928 l -17 114 l -53 8 l -54 0 z "},"I":{"ha":240,"x_min":0,"x_max":0,"o":"m 158 0 l 160 8 l 160 114 l 318 928 l 354 1033 l 356 1042 l 143 1042 l 143 1033 l 142 928 l -17 114 l -53 8 l -54 0 z "},"Ì":{"ha":240,"x_min":0,"x_max":0,"o":"m 181 1254 l 179 1254 l 115 1126 l 363 1089 l 365 1096 b 181 1254 315 1126 232 1207 z m 158 0 l 160 8 l 160 114 l 318 928 l 354 1033 l 356 1042 l 143 1042 l 143 1033 l 142 928 l -17 114 l -53 8 l -54 0 z "},"Í":{"ha":240,"x_min":0,"x_max":0,"o":"m 367 1254 b 151 1096 301 1199 183 1113 l 153 1089 l 390 1126 l 368 1254 z m 158 0 l 160 8 l 160 114 l 318 928 l 354 1033 l 356 1042 l 143 1042 l 143 1033 l 142 928 l -17 114 l -53 8 l -54 0 z "},"Î":{"ha":240,"x_min":0,"x_max":0,"o":"m 383 1089 l 389 1096 b 294 1254 369 1122 317 1210 l 290 1254 b 132 1096 242 1200 156 1113 l 135 1089 l 276 1125 z m 158 0 l 160 8 l 160 114 l 318 928 l 354 1033 l 356 1042 l 143 1042 l 143 1033 l 142 928 l -17 114 l -53 8 l -54 0 z "},"Ï":{"ha":240,"x_min":0,"x_max":0,"o":"m 179 1099 b 264 1183 229 1099 264 1135 b 179 1265 264 1231 229 1265 b 97 1183 133 1265 97 1231 b 179 1099 97 1135 133 1099 z m 374 1099 b 458 1183 424 1099 458 1135 b 374 1265 458 1231 424 1265 b 292 1183 328 1265 292 1231 b 374 1099 292 1135 328 1099 z m 158 0 l 160 8 l 160 114 l 318 928 l 354 1033 l 356 1042 l 143 1042 l 143 1033 l 142 928 l -17 114 l -53 8 l -54 0 z "},"Ĩ":{"ha":240,"x_min":0,"x_max":0,"o":"m 215 1238 b 88 1096 192 1238 121 1147 l 90 1094 b 169 1132 118 1111 150 1132 b 290 1094 200 1132 254 1094 b 418 1236 314 1094 386 1185 l 415 1238 b 347 1199 385 1218 369 1199 b 215 1238 318 1199 251 1238 z m 158 0 l 160 8 l 160 114 l 318 928 l 354 1033 l 356 1042 l 143 1042 l 143 1033 l 142 928 l -17 114 l -53 8 l -54 0 z "},"Ī":{"ha":240,"x_min":0,"x_max":0,"o":"m 160 1113 l 368 1113 l 386 1207 l 178 1207 z m 158 0 l 160 8 l 160 114 l 318 928 l 354 1033 l 356 1042 l 143 1042 l 143 1033 l 142 928 l -17 114 l -53 8 l -54 0 z "},"Ĭ":{"ha":240,"x_min":0,"x_max":0,"o":"m 365 1250 b 263 1204 353 1224 317 1204 b 174 1250 207 1204 178 1224 l 168 1250 b 250 1094 139 1156 183 1094 b 371 1250 317 1094 364 1156 z m 158 0 l 160 8 l 160 114 l 318 928 l 354 1033 l 356 1042 l 143 1042 l 143 1033 l 142 928 l -17 114 l -53 8 l -54 0 z "},"Į":{"ha":240,"x_min":0,"x_max":0,"o":"m 158 0 l 160 8 l 160 114 l 318 928 l 354 1033 l 356 1042 l 143 1042 l 143 1033 l 142 928 l -17 114 l -53 8 l -54 0 l 110 0 b -99 -257 -15 -74 -99 -167 b -17 -347 -99 -312 -67 -347 b 136 -217 56 -347 101 -281 l 133 -215 b 67 -249 110 -239 88 -249 b 17 -193 38 -249 17 -229 b 124 0 17 -160 32 -74 z "},"İ":{"ha":240,"x_min":0,"x_max":0,"o":"m 272 1094 b 364 1188 324 1094 364 1136 b 272 1279 364 1238 324 1279 b 181 1188 221 1279 181 1238 b 272 1094 181 1136 221 1094 z m 158 0 l 160 8 l 160 114 l 318 928 l 354 1033 l 356 1042 l 143 1042 l 143 1033 l 142 928 l -17 114 l -53 8 l -54 0 z "},"J":{"ha":350,"x_min":0,"x_max":0,"o":"m 296 239 l 429 928 l 464 1033 l 465 1042 l 253 1042 l 253 1033 l 251 928 l 106 179 b 51 0 75 17 61 0 b -14 179 35 0 7 68 l -22 179 l -57 -3 b 32 -15 -35 -10 -1 -15 b 296 239 171 -15 267 90 z "},"Ĵ":{"ha":350,"x_min":0,"x_max":0,"o":"m 483 1089 l 489 1096 b 394 1254 469 1122 417 1210 l 390 1254 b 232 1096 342 1200 256 1113 l 235 1089 l 376 1125 z m 296 239 l 429 928 l 464 1033 l 465 1042 l 253 1042 l 253 1033 l 251 928 l 106 179 b 51 0 75 17 61 0 b -14 179 35 0 7 68 l -22 179 l -57 -3 b 32 -15 -35 -10 -1 -15 b 296 239 171 -15 267 90 z "},"K":{"ha":493,"x_min":0,"x_max":0,"o":"m 158 0 l 160 8 l 160 114 l 244 543 l 246 0 l 439 0 l 440 8 l 413 114 l 411 785 l 456 853 l 599 1033 l 600 1042 l 463 1042 l 461 1033 l 442 853 l 247 554 l 246 554 l 319 928 l 354 1033 l 356 1042 l 143 1042 l 143 1033 l 142 928 l -17 114 l -53 8 l -54 0 z "},"L":{"ha":400,"x_min":0,"x_max":0,"o":"m -54 0 l 318 0 l 343 131 l 333 131 l 154 11 l 142 11 l 319 928 l 354 1033 l 356 1042 l 143 1042 l 143 1033 l 142 928 l -17 114 l -53 8 z "},"Ĺ":{"ha":400,"x_min":0,"x_max":0,"o":"m 367 1254 b 151 1096 301 1199 183 1113 l 153 1089 l 390 1126 l 368 1254 z m -54 0 l 318 0 l 343 131 l 333 131 l 154 11 l 142 11 l 319 928 l 354 1033 l 356 1042 l 143 1042 l 143 1033 l 142 928 l -17 114 l -53 8 z "},"Ľ":{"ha":400,"x_min":0,"x_max":0,"o":"m -54 0 l 318 0 l 343 131 l 333 131 l 154 11 l 142 11 l 319 928 l 354 1033 l 356 1042 l 143 1042 l 143 1033 l 142 928 l -17 114 l -53 8 z m 335 788 l 346 788 l 488 1042 l 383 1042 z "},"M":{"ha":499,"x_min":0,"x_max":0,"o":"m 199 417 l 386 854 l 243 114 l 206 8 l 204 0 l 418 0 l 419 8 l 419 114 l 579 928 l 625 1033 l 626 1042 l 456 1042 l 322 732 l 308 1042 l 147 1042 l 146 1033 l 142 928 l -6 168 l -54 8 l -56 0 l 60 0 l 61 8 l 8 168 l 142 860 l 163 417 z "},"N":{"ha":408,"x_min":0,"x_max":0,"o":"m 231 0 l 301 0 l 468 874 l 522 1033 l 524 1042 l 408 1042 l 407 1033 l 456 874 l 365 403 l 317 1042 l 133 1042 l 132 1033 l 140 914 l -4 168 l -53 8 l -54 0 l 61 0 l 63 8 l 10 168 l 158 939 z "},"Ñ":{"ha":408,"x_min":0,"x_max":0,"o":"m 349 1238 b 221 1096 325 1238 254 1147 l 224 1094 b 303 1132 251 1111 283 1132 b 424 1094 333 1132 388 1094 b 551 1236 447 1094 519 1185 l 549 1238 b 481 1199 518 1218 503 1199 b 349 1238 451 1199 385 1238 z m 231 0 l 301 0 l 468 874 l 522 1033 l 524 1042 l 408 1042 l 407 1033 l 456 874 l 365 403 l 317 1042 l 133 1042 l 132 1033 l 140 914 l -4 168 l -53 8 l -54 0 l 61 0 l 63 8 l 10 168 l 158 939 z "},"Ń":{"ha":408,"x_min":0,"x_max":0,"o":"m 472 1254 b 257 1096 407 1199 289 1113 l 258 1089 l 496 1126 l 474 1254 z m 231 0 l 301 0 l 468 874 l 522 1033 l 524 1042 l 408 1042 l 407 1033 l 456 874 l 365 403 l 317 1042 l 133 1042 l 132 1033 l 140 914 l -4 168 l -53 8 l -54 0 l 61 0 l 63 8 l 10 168 l 158 939 z "},"Ň":{"ha":408,"x_min":0,"x_max":0,"o":"m 240 1258 l 235 1251 b 329 1093 254 1225 307 1138 l 333 1093 b 492 1251 382 1147 468 1235 l 489 1258 l 347 1222 z m 231 0 l 301 0 l 468 874 l 522 1033 l 524 1042 l 408 1042 l 407 1033 l 456 874 l 365 403 l 317 1042 l 133 1042 l 132 1033 l 140 914 l -4 168 l -53 8 l -54 0 l 61 0 l 63 8 l 10 168 l 158 939 z "},"O":{"ha":460,"x_min":0,"x_max":0,"o":"m 367 1057 b 21 357 215 1057 21 669 b 156 -15 21 206 40 -15 b 501 682 307 -15 501 372 b 367 1057 501 836 482 1057 z m 361 1042 b 371 979 374 1042 374 1018 b 161 0 356 753 217 0 b 151 63 149 0 149 24 b 361 1042 167 289 306 1042 z "},"Ò":{"ha":460,"x_min":0,"x_max":0,"o":"m 258 1254 l 257 1254 l 193 1126 l 440 1089 l 443 1096 b 258 1254 393 1126 310 1207 z m 367 1057 b 21 357 215 1057 21 669 b 156 -15 21 206 40 -15 b 501 682 307 -15 501 372 b 367 1057 501 836 482 1057 z m 361 1042 b 371 979 374 1042 374 1018 b 161 0 356 753 217 0 b 151 63 149 0 149 24 b 361 1042 167 289 306 1042 z "},"Ó":{"ha":460,"x_min":0,"x_max":0,"o":"m 526 1254 b 311 1096 461 1199 343 1113 l 313 1089 l 550 1126 l 528 1254 z m 367 1057 b 21 357 215 1057 21 669 b 156 -15 21 206 40 -15 b 501 682 307 -15 501 372 b 367 1057 501 836 482 1057 z m 361 1042 b 371 979 374 1042 374 1018 b 161 0 356 753 217 0 b 151 63 149 0 149 24 b 361 1042 167 289 306 1042 z "},"Ô":{"ha":460,"x_min":0,"x_max":0,"o":"m 494 1089 l 500 1096 b 406 1254 481 1122 428 1210 l 401 1254 b 243 1096 353 1200 267 1113 l 246 1089 l 388 1125 z m 367 1057 b 21 357 215 1057 21 669 b 156 -15 21 206 40 -15 b 501 682 307 -15 501 372 b 367 1057 501 836 482 1057 z m 361 1042 b 371 979 374 1042 374 1018 b 161 0 356 753 217 0 b 151 63 149 0 149 24 b 361 1042 167 289 306 1042 z "},"Õ":{"ha":460,"x_min":0,"x_max":0,"o":"m 363 1238 b 235 1096 339 1238 268 1147 l 238 1094 b 317 1132 265 1111 297 1132 b 438 1094 347 1132 401 1094 b 565 1236 461 1094 533 1185 l 563 1238 b 494 1199 532 1218 517 1199 b 363 1238 465 1199 399 1238 z m 367 1057 b 21 357 215 1057 21 669 b 156 -15 21 206 40 -15 b 501 682 307 -15 501 372 b 367 1057 501 836 482 1057 z m 361 1042 b 371 979 374 1042 374 1018 b 161 0 356 753 217 0 b 151 63 149 0 149 24 b 361 1042 167 289 306 1042 z "},"Ö":{"ha":460,"x_min":0,"x_max":0,"o":"m 276 1099 b 361 1183 326 1099 361 1135 b 276 1265 361 1231 326 1265 b 194 1183 231 1265 194 1231 b 276 1099 194 1135 231 1099 z m 471 1099 b 556 1183 521 1099 556 1135 b 471 1265 556 1231 521 1265 b 389 1183 425 1265 389 1231 b 471 1099 389 1135 425 1099 z m 367 1057 b 21 357 215 1057 21 669 b 156 -15 21 206 40 -15 b 501 682 307 -15 501 372 b 367 1057 501 836 482 1057 z m 361 1042 b 371 979 374 1042 374 1018 b 161 0 356 753 217 0 b 151 63 149 0 149 24 b 361 1042 167 289 306 1042 z "},"Ō":{"ha":460,"x_min":0,"x_max":0,"o":"m 272 1113 l 481 1113 l 499 1207 l 290 1207 z m 367 1057 b 21 357 215 1057 21 669 b 156 -15 21 206 40 -15 b 501 682 307 -15 501 372 b 367 1057 501 836 482 1057 z m 361 1042 b 371 979 374 1042 374 1018 b 161 0 356 753 217 0 b 151 63 149 0 149 24 b 361 1042 167 289 306 1042 z "},"Ŏ":{"ha":460,"x_min":0,"x_max":0,"o":"m 499 1250 b 396 1204 486 1224 450 1204 b 307 1250 340 1204 311 1224 l 301 1250 b 383 1094 272 1156 317 1094 b 504 1250 450 1094 497 1156 z m 367 1057 b 21 357 215 1057 21 669 b 156 -15 21 206 40 -15 b 501 682 307 -15 501 372 b 367 1057 501 836 482 1057 z m 361 1042 b 371 979 374 1042 374 1018 b 161 0 356 753 217 0 b 151 63 149 0 149 24 b 361 1042 167 289 306 1042 z "},"Ő":{"ha":460,"x_min":0,"x_max":0,"o":"m 376 1268 b 263 1092 354 1231 293 1135 l 265 1089 l 432 1171 l 378 1268 z m 515 1268 b 401 1092 493 1231 432 1135 l 404 1089 l 571 1171 l 517 1268 z m 367 1057 b 21 357 215 1057 21 669 b 156 -15 21 206 40 -15 b 501 682 307 -15 501 372 b 367 1057 501 836 482 1057 z m 361 1042 b 371 979 374 1042 374 1018 b 161 0 356 753 217 0 b 151 63 149 0 149 24 b 361 1042 167 289 306 1042 z "},"P":{"ha":458,"x_min":0,"x_max":0,"o":"m 157 0 l 158 8 l 160 114 l 225 450 b 538 811 406 465 538 644 b 344 1042 538 935 469 1042 l 146 1042 l 144 1033 l 142 928 l -17 114 l -56 8 l -57 0 z m 347 1031 b 372 972 367 1031 372 1017 b 254 464 372 806 294 464 b 229 472 251 464 240 468 l 338 1031 z "},"Q":{"ha":460,"x_min":0,"x_max":0,"o":"m 564 -83 l 563 -78 b 208 -36 433 -103 300 -36 b 132 -49 185 -36 157 -40 l 208 -1 b 501 682 349 72 501 407 b 367 1057 501 836 482 1057 b 21 357 215 1057 21 669 b 156 -15 21 206 40 -15 b 169 -14 160 -15 164 -15 l 81 -69 l 82 -75 b 392 -201 225 -60 288 -181 z m 361 1042 b 371 979 374 1042 374 1018 b 161 0 356 753 217 0 b 151 63 149 0 149 24 b 361 1042 167 289 306 1042 z "},"R":{"ha":506,"x_min":0,"x_max":0,"o":"m 158 0 l 160 8 l 160 114 l 232 488 b 250 489 239 489 244 489 l 250 0 l 435 0 l 436 8 l 417 114 l 414 564 b 533 821 488 628 533 725 b 342 1042 533 935 465 1042 l 143 1042 l 143 1033 l 142 928 l -17 114 l -53 8 l -54 0 z m 343 1031 b 368 972 363 1031 368 1017 b 271 499 368 803 304 499 b 236 506 267 499 250 501 l 338 1031 z "},"Ŕ":{"ha":506,"x_min":0,"x_max":0,"o":"m 472 1254 b 257 1096 407 1199 289 1113 l 258 1089 l 496 1126 l 474 1254 z m 158 0 l 160 8 l 160 114 l 232 488 b 250 489 239 489 244 489 l 250 0 l 435 0 l 436 8 l 417 114 l 414 564 b 533 821 488 628 533 725 b 342 1042 533 935 465 1042 l 143 1042 l 143 1033 l 142 928 l -17 114 l -53 8 l -54 0 z m 343 1031 b 368 972 363 1031 368 1017 b 271 499 368 803 304 499 b 236 506 267 499 250 501 l 338 1031 z "},"Ř":{"ha":506,"x_min":0,"x_max":0,"o":"m 228 1258 l 222 1251 b 317 1093 242 1225 294 1138 l 321 1093 b 479 1251 369 1147 456 1235 l 476 1258 l 335 1222 z m 158 0 l 160 8 l 160 114 l 232 488 b 250 489 239 489 244 489 l 250 0 l 435 0 l 436 8 l 417 114 l 414 564 b 533 821 488 628 533 725 b 342 1042 533 935 465 1042 l 143 1042 l 143 1033 l 142 928 l -17 114 l -53 8 l -54 0 z m 343 1031 b 368 972 363 1031 368 1017 b 271 499 368 803 304 499 b 236 506 267 499 250 501 l 338 1031 z "},"S":{"ha":364,"x_min":0,"x_max":0,"o":"m 68 -15 b 333 306 232 -15 333 97 b 240 913 333 526 240 758 b 310 1032 240 996 269 1032 b 414 854 346 1032 381 999 l 424 854 l 460 1042 b 363 1057 449 1047 406 1057 b 106 756 254 1057 106 992 b 190 171 106 554 190 357 b 131 13 190 63 164 13 b 1 221 86 13 36 103 l -7 221 l -50 0 b 68 -15 -17 -10 31 -15 z "},"Ś":{"ha":364,"x_min":0,"x_max":0,"o":"m 460 1254 b 244 1096 394 1199 276 1113 l 246 1089 l 483 1126 l 461 1254 z m 68 -15 b 333 306 232 -15 333 97 b 240 913 333 526 240 758 b 310 1032 240 996 269 1032 b 414 854 346 1032 381 999 l 424 854 l 460 1042 b 363 1057 449 1047 406 1057 b 106 756 254 1057 106 992 b 190 171 106 554 190 357 b 131 13 190 63 164 13 b 1 221 86 13 36 103 l -7 221 l -50 0 b 68 -15 -17 -10 31 -15 z "},"Ŝ":{"ha":364,"x_min":0,"x_max":0,"o":"m 467 1089 l 472 1096 b 378 1254 453 1122 400 1210 l 374 1254 b 215 1096 325 1200 239 1113 l 218 1089 l 360 1125 z m 68 -15 b 333 306 232 -15 333 97 b 240 913 333 526 240 758 b 310 1032 240 996 269 1032 b 414 854 346 1032 381 999 l 424 854 l 460 1042 b 363 1057 449 1047 406 1057 b 106 756 254 1057 106 992 b 190 171 106 554 190 357 b 131 13 190 63 164 13 b 1 221 86 13 36 103 l -7 221 l -50 0 b 68 -15 -17 -10 31 -15 z "},"Ş":{"ha":364,"x_min":0,"x_max":0,"o":"m 68 -15 b 100 -14 79 -15 89 -15 l 13 -133 l 18 -136 b 50 -194 31 -143 50 -158 b -40 -314 50 -250 4 -290 l -39 -319 b 164 -133 94 -282 164 -214 b 101 -28 164 -87 143 -53 l 113 -12 b 333 306 250 7 333 117 b 240 913 333 526 240 758 b 310 1032 240 996 269 1032 b 414 854 346 1032 381 999 l 424 854 l 460 1042 b 363 1057 449 1047 406 1057 b 106 756 254 1057 106 992 b 190 171 106 554 190 357 b 131 13 190 63 164 13 b 1 221 86 13 36 103 l -7 221 l -50 0 b 68 -15 -17 -10 31 -15 z "},"Š":{"ha":364,"x_min":0,"x_max":0,"o":"m 254 1258 l 249 1251 b 343 1093 268 1225 321 1138 l 347 1093 b 506 1251 396 1147 482 1235 l 503 1258 l 361 1222 z m 68 -15 b 333 306 232 -15 333 97 b 240 913 333 526 240 758 b 310 1032 240 996 269 1032 b 414 854 346 1032 381 999 l 424 854 l 460 1042 b 363 1057 449 1047 406 1057 b 106 756 254 1057 106 992 b 190 171 106 554 190 357 b 131 13 190 63 164 13 b 1 221 86 13 36 103 l -7 221 l -50 0 b 68 -15 -17 -10 31 -15 z "},"Ș":{"ha":364,"x_min":0,"x_max":0,"o":"m 68 -15 b 333 306 232 -15 333 97 b 240 913 333 526 240 758 b 310 1032 240 996 269 1032 b 414 854 346 1032 381 999 l 424 854 l 460 1042 b 363 1057 449 1047 406 1057 b 106 756 254 1057 106 992 b 190 171 106 554 190 357 b 131 13 190 63 164 13 b 1 221 86 13 36 103 l -7 221 l -50 0 b 68 -15 -17 -10 31 -15 z m 69 -56 b 21 -304 60 -131 40 -229 l 25 -306 l 194 -85 l 71 -56 z "},"T":{"ha":433,"x_min":0,"x_max":0,"o":"m 253 0 l 254 8 l 254 114 l 433 1031 l 447 1031 l 522 900 l 531 900 l 558 1042 l 135 1042 l 107 900 l 115 900 l 240 1031 l 256 1031 l 76 114 l 42 8 l 40 0 z "},"Ţ":{"ha":433,"x_min":0,"x_max":0,"o":"m 253 0 l 254 8 l 254 114 l 433 1031 l 447 1031 l 522 900 l 531 900 l 558 1042 l 135 1042 l 107 900 l 115 900 l 240 1031 l 256 1031 l 76 114 l 42 8 l 40 0 z m 88 -56 b 39 -304 78 -131 58 -229 l 43 -306 l 213 -85 l 89 -56 z "},"Ť":{"ha":433,"x_min":0,"x_max":0,"o":"m 258 1258 l 253 1251 b 347 1093 272 1225 325 1138 l 351 1093 b 510 1251 400 1147 486 1235 l 507 1258 l 365 1222 z m 253 0 l 254 8 l 254 114 l 433 1031 l 447 1031 l 522 900 l 531 900 l 558 1042 l 135 1042 l 107 900 l 115 900 l 240 1031 l 256 1031 l 76 114 l 42 8 l 40 0 z "},"Ț":{"ha":433,"x_min":0,"x_max":0,"o":"m 253 0 l 254 8 l 254 114 l 433 1031 l 447 1031 l 522 900 l 531 900 l 558 1042 l 135 1042 l 107 900 l 115 900 l 240 1031 l 256 1031 l 76 114 l 42 8 l 40 0 z m 88 -56 b 39 -304 78 -131 58 -229 l 43 -306 l 213 -85 l 89 -56 z "},"U":{"ha":399,"x_min":0,"x_max":0,"o":"m 433 774 l 321 194 b 228 72 307 124 278 72 b 172 188 188 72 157 106 l 315 928 l 353 1033 l 354 1042 l 140 1042 l 139 1033 l 139 928 l -3 199 b 147 -15 -26 79 40 -15 b 332 192 254 -15 311 83 l 446 774 l 519 1033 l 519 1042 l 404 1042 l 403 1033 z "},"Ù":{"ha":399,"x_min":0,"x_max":0,"o":"m 279 1254 l 278 1254 l 214 1126 l 461 1089 l 464 1096 b 279 1254 414 1126 331 1207 z m 433 774 l 321 194 b 228 72 307 124 278 72 b 172 188 188 72 157 106 l 315 928 l 353 1033 l 354 1042 l 140 1042 l 139 1033 l 139 928 l -3 199 b 147 -15 -26 79 40 -15 b 332 192 254 -15 311 83 l 446 774 l 519 1033 l 519 1042 l 404 1042 l 403 1033 z "},"Ú":{"ha":399,"x_min":0,"x_max":0,"o":"m 486 1254 b 271 1096 421 1199 303 1113 l 272 1089 l 510 1126 l 488 1254 z m 433 774 l 321 194 b 228 72 307 124 278 72 b 172 188 188 72 157 106 l 315 928 l 353 1033 l 354 1042 l 140 1042 l 139 1033 l 139 928 l -3 199 b 147 -15 -26 79 40 -15 b 332 192 254 -15 311 83 l 446 774 l 519 1033 l 519 1042 l 404 1042 l 403 1033 z "},"Û":{"ha":399,"x_min":0,"x_max":0,"o":"m 478 1089 l 483 1096 b 389 1254 464 1122 411 1210 l 385 1254 b 226 1096 336 1200 250 1113 l 229 1089 l 371 1125 z m 433 774 l 321 194 b 228 72 307 124 278 72 b 172 188 188 72 157 106 l 315 928 l 353 1033 l 354 1042 l 140 1042 l 139 1033 l 139 928 l -3 199 b 147 -15 -26 79 40 -15 b 332 192 254 -15 311 83 l 446 774 l 519 1033 l 519 1042 l 404 1042 l 403 1033 z "},"Ü":{"ha":399,"x_min":0,"x_max":0,"o":"m 274 1099 b 358 1183 324 1099 358 1135 b 274 1265 358 1231 324 1265 b 192 1183 228 1265 192 1231 b 274 1099 192 1135 228 1099 z m 468 1099 b 553 1183 518 1099 553 1135 b 468 1265 553 1231 518 1265 b 386 1183 422 1265 386 1231 b 468 1099 386 1135 422 1099 z m 433 774 l 321 194 b 228 72 307 124 278 72 b 172 188 188 72 157 106 l 315 928 l 353 1033 l 354 1042 l 140 1042 l 139 1033 l 139 928 l -3 199 b 147 -15 -26 79 40 -15 b 332 192 254 -15 311 83 l 446 774 l 519 1033 l 519 1042 l 404 1042 l 403 1033 z "},"Ũ":{"ha":399,"x_min":0,"x_max":0,"o":"m 347 1238 b 219 1096 324 1238 253 1147 l 222 1094 b 301 1132 250 1111 282 1132 b 422 1094 332 1132 386 1094 b 550 1236 446 1094 518 1185 l 547 1238 b 479 1199 517 1218 501 1199 b 347 1238 450 1199 383 1238 z m 433 774 l 321 194 b 228 72 307 124 278 72 b 172 188 188 72 157 106 l 315 928 l 353 1033 l 354 1042 l 140 1042 l 139 1033 l 139 928 l -3 199 b 147 -15 -26 79 40 -15 b 332 192 254 -15 311 83 l 446 774 l 519 1033 l 519 1042 l 404 1042 l 403 1033 z "},"Ū":{"ha":399,"x_min":0,"x_max":0,"o":"m 254 1113 l 463 1113 l 481 1207 l 272 1207 z m 433 774 l 321 194 b 228 72 307 124 278 72 b 172 188 188 72 157 106 l 315 928 l 353 1033 l 354 1042 l 140 1042 l 139 1033 l 139 928 l -3 199 b 147 -15 -26 79 40 -15 b 332 192 254 -15 311 83 l 446 774 l 519 1033 l 519 1042 l 404 1042 l 403 1033 z "},"Ŭ":{"ha":399,"x_min":0,"x_max":0,"o":"m 497 1250 b 394 1204 485 1224 449 1204 b 306 1250 339 1204 310 1224 l 300 1250 b 382 1094 271 1156 315 1094 b 503 1250 449 1094 496 1156 z m 433 774 l 321 194 b 228 72 307 124 278 72 b 172 188 188 72 157 106 l 315 928 l 353 1033 l 354 1042 l 140 1042 l 139 1033 l 139 928 l -3 199 b 147 -15 -26 79 40 -15 b 332 192 254 -15 311 83 l 446 774 l 519 1033 l 519 1042 l 404 1042 l 403 1033 z "},"Ů":{"ha":399,"x_min":0,"x_max":0,"o":"m 372 1086 b 474 1185 431 1086 474 1132 b 372 1285 474 1238 431 1285 b 271 1185 314 1285 271 1238 b 372 1086 271 1132 314 1086 z m 372 1096 b 340 1185 349 1096 340 1136 b 372 1275 340 1246 349 1275 b 404 1185 396 1275 404 1232 b 372 1096 404 1124 396 1096 z m 433 774 l 321 194 b 228 72 307 124 278 72 b 172 188 188 72 157 106 l 315 928 l 353 1033 l 354 1042 l 140 1042 l 139 1033 l 139 928 l -3 199 b 147 -15 -26 79 40 -15 b 332 192 254 -15 311 83 l 446 774 l 519 1033 l 519 1042 l 404 1042 l 403 1033 z "},"Ű":{"ha":399,"x_min":0,"x_max":0,"o":"m 353 1268 b 239 1092 331 1231 269 1135 l 242 1089 l 408 1171 l 354 1268 z m 492 1268 b 378 1092 469 1231 408 1135 l 381 1089 l 547 1171 l 493 1268 z m 433 774 l 321 194 b 228 72 307 124 278 72 b 172 188 188 72 157 106 l 315 928 l 353 1033 l 354 1042 l 140 1042 l 139 1033 l 139 928 l -3 199 b 147 -15 -26 79 40 -15 b 332 192 254 -15 311 83 l 446 774 l 519 1033 l 519 1042 l 404 1042 l 403 1033 z "},"Ų":{"ha":399,"x_min":0,"x_max":0,"o":"m 433 774 l 321 194 b 228 72 307 124 278 72 b 172 188 188 72 157 106 l 315 928 l 353 1033 l 354 1042 l 140 1042 l 139 1033 l 139 928 l -3 199 b 147 -15 -26 79 40 -15 b 190 -10 163 -15 176 -14 b -3 -257 74 -81 -3 -171 b 79 -347 -3 -312 29 -347 b 232 -217 151 -347 197 -281 l 229 -215 b 163 -249 206 -239 183 -249 b 113 -193 133 -249 113 -229 b 233 10 113 -158 131 -64 b 332 192 289 50 318 119 l 446 774 l 519 1033 l 519 1042 l 404 1042 l 403 1033 z "},"V":{"ha":415,"x_min":0,"x_max":0,"o":"m 107 0 l 167 0 l 471 872 l 539 1033 l 540 1042 l 429 1042 l 428 1033 l 458 876 l 293 399 l 308 928 l 335 1033 l 336 1042 l 133 1042 l 132 1033 l 135 928 z "},"W":{"ha":593,"x_min":0,"x_max":0,"o":"m 136 0 l 343 629 l 342 0 l 415 0 l 649 872 l 717 1033 l 718 1042 l 610 1042 l 608 1033 l 636 876 l 518 435 l 519 1042 l 460 1042 l 267 435 l 306 928 l 338 1033 l 339 1042 l 136 1042 l 135 1033 l 138 928 l 60 0 z "},"Ŵ":{"ha":593,"x_min":0,"x_max":0,"o":"m 622 1089 l 628 1096 b 533 1254 608 1122 556 1210 l 529 1254 b 371 1096 481 1200 394 1113 l 374 1089 l 515 1125 z m 136 0 l 343 629 l 342 0 l 415 0 l 649 872 l 717 1033 l 718 1042 l 610 1042 l 608 1033 l 636 876 l 518 435 l 519 1042 l 460 1042 l 267 435 l 306 928 l 338 1033 l 339 1042 l 136 1042 l 135 1033 l 138 928 l 60 0 z "},"Ẁ":{"ha":593,"x_min":0,"x_max":0,"o":"m 379 1254 l 378 1254 l 314 1126 l 561 1089 l 564 1096 b 379 1254 514 1126 431 1207 z m 136 0 l 343 629 l 342 0 l 415 0 l 649 872 l 717 1033 l 718 1042 l 610 1042 l 608 1033 l 636 876 l 518 435 l 519 1042 l 460 1042 l 267 435 l 306 928 l 338 1033 l 339 1042 l 136 1042 l 135 1033 l 138 928 l 60 0 z "},"Ẃ":{"ha":593,"x_min":0,"x_max":0,"o":"m 614 1254 b 399 1096 549 1199 431 1113 l 400 1089 l 638 1126 l 615 1254 z m 136 0 l 343 629 l 342 0 l 415 0 l 649 872 l 717 1033 l 718 1042 l 610 1042 l 608 1033 l 636 876 l 518 435 l 519 1042 l 460 1042 l 267 435 l 306 928 l 338 1033 l 339 1042 l 136 1042 l 135 1033 l 138 928 l 60 0 z "},"Ẅ":{"ha":593,"x_min":0,"x_max":0,"o":"m 390 1099 b 475 1183 440 1099 475 1135 b 390 1265 475 1231 440 1265 b 308 1183 344 1265 308 1231 b 390 1099 308 1135 344 1099 z m 585 1099 b 669 1183 635 1099 669 1135 b 585 1265 669 1231 635 1265 b 503 1183 539 1265 503 1231 b 585 1099 503 1135 539 1099 z m 136 0 l 343 629 l 342 0 l 415 0 l 649 872 l 717 1033 l 718 1042 l 610 1042 l 608 1033 l 636 876 l 518 435 l 519 1042 l 460 1042 l 267 435 l 306 928 l 338 1033 l 339 1042 l 136 1042 l 135 1033 l 138 928 l 60 0 z "},"X":{"ha":439,"x_min":0,"x_max":0,"o":"m 331 928 l 354 1033 l 356 1042 l 147 1042 l 146 1033 l 158 928 l 171 542 l 14 156 l -69 8 l -71 0 l 44 0 l 46 8 l 26 156 l 172 514 l 185 114 l 161 8 l 161 0 l 369 0 l 371 8 l 357 114 l 340 624 l 461 886 l 549 1033 l 550 1042 l 435 1042 l 433 1033 l 449 886 l 340 649 z "},"Y":{"ha":400,"x_min":0,"x_max":0,"o":"m 231 0 l 232 8 l 233 114 l 317 544 l 450 886 l 529 1033 l 531 1042 l 417 1042 l 415 1033 l 438 886 l 313 565 l 313 928 l 335 1033 l 336 1042 l 128 1042 l 126 1033 l 140 928 l 140 550 l 56 114 l 21 8 l 19 0 z "},"Ý":{"ha":400,"x_min":0,"x_max":0,"o":"m 476 1254 b 261 1096 411 1199 293 1113 l 263 1089 l 500 1126 l 478 1254 z m 231 0 l 232 8 l 233 114 l 317 544 l 450 886 l 529 1033 l 531 1042 l 417 1042 l 415 1033 l 438 886 l 313 565 l 313 928 l 335 1033 l 336 1042 l 128 1042 l 126 1033 l 140 928 l 140 550 l 56 114 l 21 8 l 19 0 z "},"Ŷ":{"ha":400,"x_min":0,"x_max":0,"o":"m 486 1089 l 492 1096 b 397 1254 472 1122 419 1210 l 393 1254 b 235 1096 344 1200 258 1113 l 238 1089 l 379 1125 z m 231 0 l 232 8 l 233 114 l 317 544 l 450 886 l 529 1033 l 531 1042 l 417 1042 l 415 1033 l 438 886 l 313 565 l 313 928 l 335 1033 l 336 1042 l 128 1042 l 126 1033 l 140 928 l 140 550 l 56 114 l 21 8 l 19 0 z "},"Ÿ":{"ha":400,"x_min":0,"x_max":0,"o":"m 254 1099 b 339 1183 304 1099 339 1135 b 254 1265 339 1231 304 1265 b 172 1183 208 1265 172 1231 b 254 1099 172 1135 208 1099 z m 449 1099 b 533 1183 499 1099 533 1135 b 449 1265 533 1231 499 1265 b 367 1183 403 1265 367 1231 b 449 1099 367 1135 403 1099 z m 231 0 l 232 8 l 233 114 l 317 544 l 450 886 l 529 1033 l 531 1042 l 417 1042 l 415 1033 l 438 886 l 313 565 l 313 928 l 335 1033 l 336 1042 l 128 1042 l 126 1033 l 140 928 l 140 550 l 56 114 l 21 8 l 19 0 z "},"Ỳ":{"ha":400,"x_min":0,"x_max":0,"o":"m 285 1254 l 283 1254 l 219 1126 l 467 1089 l 469 1096 b 285 1254 419 1126 336 1207 z m 231 0 l 232 8 l 233 114 l 317 544 l 450 886 l 529 1033 l 531 1042 l 417 1042 l 415 1033 l 438 886 l 313 565 l 313 928 l 335 1033 l 336 1042 l 128 1042 l 126 1033 l 140 928 l 140 550 l 56 114 l 21 8 l 19 0 z "},"Z":{"ha":388,"x_min":0,"x_max":0,"o":"m 288 0 l 313 131 l 303 131 l 149 11 l 125 11 l 503 1036 l 504 1042 l 165 1042 l 142 925 l 151 925 l 301 1031 l 321 1031 l -56 6 l -57 0 z "},"Ź":{"ha":388,"x_min":0,"x_max":0,"o":"m 463 1254 b 247 1096 397 1199 279 1113 l 249 1089 l 486 1126 l 464 1254 z m 288 0 l 313 131 l 303 131 l 149 11 l 125 11 l 503 1036 l 504 1042 l 165 1042 l 142 925 l 151 925 l 301 1031 l 321 1031 l -56 6 l -57 0 z "},"Ż":{"ha":388,"x_min":0,"x_max":0,"o":"m 354 1094 b 446 1188 406 1094 446 1136 b 354 1279 446 1238 406 1279 b 263 1188 303 1279 263 1238 b 354 1094 263 1136 303 1094 z m 288 0 l 313 131 l 303 131 l 149 11 l 125 11 l 503 1036 l 504 1042 l 165 1042 l 142 925 l 151 925 l 301 1031 l 321 1031 l -56 6 l -57 0 z "},"Ž":{"ha":388,"x_min":0,"x_max":0,"o":"m 260 1258 l 254 1251 b 349 1093 274 1225 326 1138 l 353 1093 b 511 1251 401 1147 488 1235 l 508 1258 l 367 1222 z m 288 0 l 313 131 l 303 131 l 149 11 l 125 11 l 503 1036 l 504 1042 l 165 1042 l 142 925 l 151 925 l 301 1031 l 321 1031 l -56 6 l -57 0 z "},"Æ":{"ha":581,"x_min":0,"x_max":0,"o":"m 496 0 l 521 131 l 511 131 l 346 11 l 335 11 l 438 547 l 515 471 l 525 471 l 558 646 l 549 646 l 440 560 l 531 1031 l 536 1031 l 658 925 l 668 925 l 692 1042 l 324 1042 l 322 1033 l 333 960 l 10 168 l -62 8 l -64 0 l 50 0 l 51 8 l 24 168 l 111 382 l 229 382 l 176 114 l 140 8 l 139 0 z m 310 868 l 335 931 l 231 393 l 115 393 z "},"Ǽ":{"ha":581,"x_min":0,"x_max":0,"o":"m 633 1254 b 418 1096 568 1199 450 1113 l 419 1089 l 657 1126 l 635 1254 z m 496 0 l 521 131 l 511 131 l 346 11 l 335 11 l 438 547 l 515 471 l 525 471 l 558 646 l 549 646 l 440 560 l 531 1031 l 536 1031 l 658 925 l 668 925 l 692 1042 l 324 1042 l 322 1033 l 333 960 l 10 168 l -62 8 l -64 0 l 50 0 l 51 8 l 24 168 l 111 382 l 229 382 l 176 114 l 140 8 l 139 0 z m 310 868 l 335 931 l 231 393 l 115 393 z "},"Ð":{"ha":478,"x_min":0,"x_max":0,"o":"m -57 0 l 139 0 b 526 756 340 0 526 440 b 354 1042 526 935 463 1042 l 146 1042 l 144 1033 l 142 928 l 72 569 l 43 569 l 40 558 l 69 558 l -17 114 l -56 8 z m 342 1031 b 367 932 357 1031 367 1007 b 175 15 367 639 211 15 b 144 31 165 15 154 21 l 246 558 l 303 558 l 306 569 l 249 569 l 338 1031 z "},"Ø":{"ha":460,"x_min":0,"x_max":0,"o":"m 64 -83 l 82 -83 l 108 0 b 156 -15 122 -10 138 -15 b 501 682 307 -15 501 372 b 429 1029 501 803 489 965 l 458 1125 l 440 1125 l 414 1042 b 367 1057 400 1051 385 1057 b 21 357 215 1057 21 669 b 93 13 21 238 33 76 z m 361 1042 b 371 979 374 1042 374 1018 b 358 863 369 949 364 908 l 179 286 b 361 1042 226 594 318 1042 z m 151 63 b 164 179 153 93 158 133 l 343 756 b 161 0 296 447 204 0 b 151 63 149 0 149 24 z "},"Ǿ":{"ha":460,"x_min":0,"x_max":0,"o":"m 64 -83 l 82 -83 l 108 0 b 156 -15 122 -10 138 -15 b 501 682 307 -15 501 372 b 429 1029 501 803 489 965 l 454 1113 l 540 1126 l 518 1254 l 517 1254 b 301 1096 451 1199 333 1113 l 303 1089 l 436 1110 l 414 1042 b 367 1057 400 1051 385 1057 b 21 357 215 1057 21 669 b 93 13 21 238 33 76 z m 361 1042 b 371 979 374 1042 374 1018 b 358 863 369 949 364 908 l 179 286 b 361 1042 226 594 318 1042 z m 151 63 b 164 179 153 93 158 133 l 343 756 b 161 0 296 447 204 0 b 151 63 149 0 149 24 z "},"Þ":{"ha":458,"x_min":0,"x_max":0,"o":"m 158 0 l 160 8 l 160 114 l 189 263 b 501 624 369 278 501 457 b 308 854 501 747 433 854 l 304 854 l 318 928 l 354 1033 l 356 1042 l 143 1042 l 143 1033 l 142 928 l -17 114 l -53 8 l -54 0 z m 311 843 b 336 785 331 843 336 829 b 218 276 336 618 258 276 b 193 285 215 276 204 281 l 301 843 z "},"Đ":{"ha":478,"x_min":0,"x_max":0,"o":"m -57 0 l 139 0 b 526 756 340 0 526 440 b 354 1042 526 935 463 1042 l 146 1042 l 144 1033 l 142 928 l 72 569 l 43 569 l 40 558 l 69 558 l -17 114 l -56 8 z m 342 1031 b 367 932 357 1031 367 1007 b 175 15 367 639 211 15 b 144 31 165 15 154 21 l 246 558 l 303 558 l 306 569 l 249 569 l 338 1031 z "},"Ħ":{"ha":488,"x_min":0,"x_max":0,"o":"m 165 0 l 167 8 l 167 114 l 251 553 l 310 553 l 225 114 l 189 8 l 188 0 l 400 0 l 401 8 l 401 114 l 544 850 l 588 850 l 590 861 l 547 861 l 560 928 l 594 1033 l 596 1042 l 385 1042 l 385 1033 l 383 928 l 371 861 l 313 861 l 325 928 l 361 1033 l 363 1042 l 150 1042 l 150 1033 l 149 928 l 136 861 l 94 861 l 92 850 l 133 850 l -10 114 l -46 8 l -47 0 z m 254 564 l 310 850 l 368 850 l 313 564 z "},"Ĳ":{"ha":590,"x_min":0,"x_max":0,"o":"m 158 0 l 160 8 l 160 114 l 318 928 l 354 1033 l 356 1042 l 143 1042 l 143 1033 l 142 928 l -17 114 l -53 8 l -54 0 z m 536 239 l 669 928 l 704 1033 l 706 1042 l 493 1042 l 493 1033 l 492 928 l 346 179 b 292 0 315 17 301 0 b 226 179 275 0 247 68 l 218 179 l 183 -3 b 272 -15 206 -10 239 -15 b 536 239 411 -15 507 90 z "},"Ŀ":{"ha":421,"x_min":0,"x_max":0,"o":"m -62 0 l 310 0 l 335 131 l 325 131 l 146 11 l 133 11 l 311 928 l 346 1033 l 347 1042 l 135 1042 l 135 1033 l 133 928 l -25 114 l -61 8 z m 378 503 b 471 597 429 503 471 544 b 378 689 471 647 429 689 b 285 597 328 689 285 647 b 378 503 285 544 328 503 z "},"Ł":{"ha":407,"x_min":0,"x_max":0,"o":"m -47 0 l 325 0 l 350 131 l 340 131 l 161 11 l 149 11 l 257 569 l 371 672 l 375 694 l 261 592 l 326 928 l 361 1033 l 363 1042 l 150 1042 l 150 1033 l 149 928 l 44 396 l -7 349 l -11 326 l 40 374 l -10 114 l -46 8 z "},"Ŋ":{"ha":408,"x_min":0,"x_max":0,"o":"m 292 -51 l 468 874 l 522 1033 l 524 1042 l 408 1042 l 407 1033 l 456 874 l 367 408 l 317 1042 l 133 1042 l 132 1033 l 140 914 l -4 168 l -53 8 l -54 0 l 61 0 l 63 8 l 10 168 l 158 939 l 244 -160 b 179 -221 215 -218 185 -221 b 93 -44 144 -221 125 -157 l 85 -44 l 50 -226 b 140 -240 69 -232 106 -240 b 292 -51 231 -240 268 -174 z "},"Œ":{"ha":626,"x_min":0,"x_max":0,"o":"m 543 0 l 568 131 l 558 131 l 393 11 l 382 11 l 485 547 l 563 471 l 572 471 l 606 646 l 596 646 l 488 560 l 578 1031 l 583 1031 l 706 925 l 715 925 l 739 1042 l 404 1042 b 17 286 201 1042 17 601 b 189 0 17 107 81 0 z m 201 11 b 176 110 186 11 176 35 b 368 1026 176 403 332 1026 b 399 1011 378 1026 388 1021 l 204 11 z "},"Ŧ":{"ha":433,"x_min":0,"x_max":0,"o":"m 253 0 l 254 8 l 254 114 l 342 558 l 425 558 l 428 569 l 343 569 l 433 1031 l 447 1031 l 522 900 l 531 900 l 558 1042 l 135 1042 l 107 900 l 115 900 l 240 1031 l 256 1031 l 165 569 l 82 569 l 79 558 l 164 558 l 76 114 l 42 8 l 40 0 z "},"a":{"ha":476,"x_min":0,"x_max":0,"o":"m 346 83 b 447 506 346 146 429 453 l 535 753 l 528 757 l 451 735 b 329 749 411 742 356 749 b -42 135 228 749 -42 363 b 51 -15 -42 43 1 -15 b 217 281 96 -15 150 93 l 247 365 b 196 118 221 261 196 147 b 299 -15 196 56 254 -15 b 408 167 339 -15 385 74 l 401 168 b 351 74 381 111 358 74 b 346 83 349 74 346 76 z m 129 140 b 328 735 129 281 300 735 b 351 707 329 735 342 722 l 203 289 b 133 124 163 176 138 124 b 129 140 131 124 129 128 z "},"à":{"ha":476,"x_min":0,"x_max":0,"o":"m 340 996 l 339 996 l 299 861 l 514 808 l 517 815 b 340 996 481 843 390 935 z m 346 83 b 447 506 346 146 429 453 l 535 753 l 528 757 l 451 735 b 329 749 411 742 356 749 b -42 135 228 749 -42 363 b 51 -15 -42 43 1 -15 b 217 281 96 -15 150 93 l 247 365 b 196 118 221 261 196 147 b 299 -15 196 56 254 -15 b 408 167 339 -15 385 74 l 401 168 b 351 74 381 111 358 74 b 346 83 349 74 346 76 z m 129 140 b 328 735 129 281 300 735 b 351 707 329 735 342 722 l 203 289 b 133 124 163 176 138 124 b 129 140 131 124 129 128 z "},"á":{"ha":476,"x_min":0,"x_max":0,"o":"m 488 996 b 311 815 438 935 347 843 l 314 808 l 529 861 l 489 996 z m 346 83 b 447 506 346 146 429 453 l 535 753 l 528 757 l 451 735 b 329 749 411 742 356 749 b -42 135 228 749 -42 363 b 51 -15 -42 43 1 -15 b 217 281 96 -15 150 93 l 247 365 b 196 118 221 261 196 147 b 299 -15 196 56 254 -15 b 408 167 339 -15 385 74 l 401 168 b 351 74 381 111 358 74 b 346 83 349 74 346 76 z m 129 140 b 328 735 129 281 300 735 b 351 707 329 735 342 722 l 203 289 b 133 124 163 176 138 124 b 129 140 131 124 129 128 z "},"â":{"ha":476,"x_min":0,"x_max":0,"o":"m 521 808 l 526 815 b 435 996 511 835 461 933 l 431 996 b 269 815 382 933 293 835 l 272 808 l 406 853 z m 346 83 b 447 506 346 146 429 453 l 535 753 l 528 757 l 451 735 b 329 749 411 742 356 749 b -42 135 228 749 -42 363 b 51 -15 -42 43 1 -15 b 217 281 96 -15 150 93 l 247 365 b 196 118 221 261 196 147 b 299 -15 196 56 254 -15 b 408 167 339 -15 385 74 l 401 168 b 351 74 381 111 358 74 b 346 83 349 74 346 76 z m 129 140 b 328 735 129 281 300 735 b 351 707 329 735 342 722 l 203 289 b 133 124 163 176 138 124 b 129 140 131 124 129 128 z "},"ã":{"ha":476,"x_min":0,"x_max":0,"o":"m 383 978 b 254 829 360 978 288 883 l 257 828 b 339 868 292 851 313 868 b 457 828 365 868 425 828 b 586 976 481 828 553 922 l 583 978 b 500 938 549 954 526 938 b 383 978 474 938 415 978 z m 346 83 b 447 506 346 146 429 453 l 535 753 l 528 757 l 451 735 b 329 749 411 742 356 749 b -42 135 228 749 -42 363 b 51 -15 -42 43 1 -15 b 217 281 96 -15 150 93 l 247 365 b 196 118 221 261 196 147 b 299 -15 196 56 254 -15 b 408 167 339 -15 385 74 l 401 168 b 351 74 381 111 358 74 b 346 83 349 74 346 76 z m 129 140 b 328 735 129 281 300 735 b 351 707 329 735 342 722 l 203 289 b 133 124 163 176 138 124 b 129 140 131 124 129 128 z "},"ä":{"ha":476,"x_min":0,"x_max":0,"o":"m 317 810 b 401 894 367 810 401 846 b 317 976 401 942 367 976 b 235 894 271 976 235 942 b 317 810 235 846 271 810 z m 508 810 b 593 894 558 810 593 846 b 508 976 593 942 558 976 b 426 894 463 976 426 942 b 508 810 426 846 463 810 z m 346 83 b 447 506 346 146 429 453 l 535 753 l 528 757 l 451 735 b 329 749 411 742 356 749 b -42 135 228 749 -42 363 b 51 -15 -42 43 1 -15 b 217 281 96 -15 150 93 l 247 365 b 196 118 221 261 196 147 b 299 -15 196 56 254 -15 b 408 167 339 -15 385 74 l 401 168 b 351 74 381 111 358 74 b 346 83 349 74 346 76 z m 129 140 b 328 735 129 281 300 735 b 351 707 329 735 342 722 l 203 289 b 133 124 163 176 138 124 b 129 140 131 124 129 128 z "},"å":{"ha":476,"x_min":0,"x_max":0,"o":"m 422 814 b 529 918 483 814 529 863 b 422 1022 529 974 483 1022 b 315 918 361 1022 315 974 b 422 814 315 863 361 814 z m 422 824 b 389 918 397 824 389 867 b 422 1013 389 982 397 1013 b 456 918 447 1013 456 968 b 422 824 456 853 447 824 z m 346 83 b 447 506 346 146 429 453 l 535 753 l 528 757 l 451 735 b 329 749 411 742 356 749 b -42 135 228 749 -42 363 b 51 -15 -42 43 1 -15 b 217 281 96 -15 150 93 l 247 365 b 196 118 221 261 196 147 b 299 -15 196 56 254 -15 b 408 167 339 -15 385 74 l 401 168 b 351 74 381 111 358 74 b 346 83 349 74 346 76 z m 129 140 b 328 735 129 281 300 735 b 351 707 329 735 342 722 l 203 289 b 133 124 163 176 138 124 b 129 140 131 124 129 128 z "},"ā":{"ha":476,"x_min":0,"x_max":0,"o":"m 301 856 l 510 856 l 528 950 l 319 950 z m 346 83 b 447 506 346 146 429 453 l 535 753 l 528 757 l 451 735 b 329 749 411 742 356 749 b -42 135 228 749 -42 363 b 51 -15 -42 43 1 -15 b 217 281 96 -15 150 93 l 247 365 b 196 118 221 261 196 147 b 299 -15 196 56 254 -15 b 408 167 339 -15 385 74 l 401 168 b 351 74 381 111 358 74 b 346 83 349 74 346 76 z m 129 140 b 328 735 129 281 300 735 b 351 707 329 735 342 722 l 203 289 b 133 124 163 176 138 124 b 129 140 131 124 129 128 z "},"ă":{"ha":476,"x_min":0,"x_max":0,"o":"m 524 972 b 421 926 511 946 475 926 b 332 972 365 926 336 946 l 326 972 b 408 808 297 878 342 808 b 529 972 475 808 522 878 z m 346 83 b 447 506 346 146 429 453 l 535 753 l 528 757 l 451 735 b 329 749 411 742 356 749 b -42 135 228 749 -42 363 b 51 -15 -42 43 1 -15 b 217 281 96 -15 150 93 l 247 365 b 196 118 221 261 196 147 b 299 -15 196 56 254 -15 b 408 167 339 -15 385 74 l 401 168 b 351 74 381 111 358 74 b 346 83 349 74 346 76 z m 129 140 b 328 735 129 281 300 735 b 351 707 329 735 342 722 l 203 289 b 133 124 163 176 138 124 b 129 140 131 124 129 128 z "},"ą":{"ha":476,"x_min":0,"x_max":0,"o":"m 357 83 b 474 489 357 146 454 440 l 571 753 l 564 757 l 482 733 b 367 749 444 740 393 749 b -42 135 253 749 -42 363 b 63 -15 -42 43 1 -15 b 217 281 96 -15 140 97 l 279 432 b 196 118 243 319 196 154 b 308 -15 196 56 264 -14 b 97 -274 182 -89 97 -183 b 179 -364 97 -329 129 -364 b 332 -233 251 -364 297 -297 l 329 -232 b 263 -265 306 -256 283 -265 b 213 -210 233 -265 213 -246 b 326 -12 213 -176 236 -75 b 419 167 363 13 399 82 l 413 168 b 363 74 392 111 369 74 b 357 83 360 74 357 76 z m 129 140 b 365 735 129 281 329 735 b 378 711 367 735 372 725 l 203 289 b 133 124 154 171 138 124 b 129 140 131 124 129 128 z "},"ǻ":{"ha":476,"x_min":0,"x_max":0,"o":"m 565 1213 b 350 1054 500 1157 382 1071 l 351 1047 l 589 1085 l 567 1213 z m 432 814 b 539 918 493 814 539 863 b 432 1022 539 974 493 1022 b 325 918 371 1022 325 974 b 432 814 325 863 371 814 z m 432 824 b 399 918 407 824 399 867 b 432 1013 399 982 407 1013 b 465 918 457 1013 465 968 b 432 824 465 853 457 824 z m 346 83 b 447 506 346 146 429 453 l 535 753 l 528 757 l 451 735 b 329 749 411 742 356 749 b -42 135 228 749 -42 363 b 51 -15 -42 43 1 -15 b 217 281 96 -15 150 93 l 247 365 b 196 118 221 261 196 147 b 299 -15 196 56 254 -15 b 408 167 339 -15 385 74 l 401 168 b 351 74 381 111 358 74 b 346 83 349 74 346 76 z m 129 140 b 328 735 129 281 300 735 b 351 707 329 735 342 722 l 203 289 b 133 124 163 176 138 124 b 129 140 131 124 129 128 z "},"b":{"ha":471,"x_min":0,"x_max":0,"o":"m 506 579 b 381 749 506 689 451 749 b 235 453 344 749 297 642 l 183 296 l 369 1079 l 386 1139 l 189 1111 l 186 1025 l -33 111 l -60 -7 l -57 -7 l -3 1 b 135 -15 40 -7 103 -15 b 506 579 250 -15 506 357 z m 247 440 b 328 639 296 586 322 639 b 332 625 331 639 332 633 b 136 -1 332 529 164 -1 b 118 24 133 -1 126 6 l 140 117 z "},"c":{"ha":354,"x_min":0,"x_max":0,"o":"m 290 214 b 213 128 268 164 244 128 b 153 271 179 128 153 164 b 297 729 153 503 257 729 b 388 596 313 729 372 657 l 393 596 l 417 726 b 343 749 408 735 378 749 b -21 186 203 749 -21 449 b 108 -15 -21 56 35 -15 b 297 210 203 -15 261 100 z "},"ç":{"ha":354,"x_min":0,"x_max":0,"o":"m 290 214 b 213 128 268 164 244 128 b 153 271 179 128 153 164 b 297 729 153 503 257 729 b 388 596 313 729 372 657 l 393 596 l 417 726 b 343 749 408 735 378 749 b -21 186 203 749 -21 449 b 72 -10 -21 78 18 11 l -18 -133 l -12 -136 b 19 -194 0 -143 19 -158 b -71 -314 19 -250 -26 -290 l -69 -319 b 133 -133 64 -282 133 -214 b 71 -28 133 -87 113 -53 l 82 -12 b 108 -15 90 -14 99 -15 b 297 210 203 -15 261 100 z "},"ć":{"ha":354,"x_min":0,"x_max":0,"o":"m 433 996 b 257 815 383 935 293 843 l 260 808 l 475 861 l 435 996 z m 290 214 b 213 128 268 164 244 128 b 153 271 179 128 153 164 b 297 729 153 503 257 729 b 388 596 313 729 372 657 l 393 596 l 417 726 b 343 749 408 735 378 749 b -21 186 203 749 -21 449 b 108 -15 -21 56 35 -15 b 297 210 203 -15 261 100 z "},"ĉ":{"ha":354,"x_min":0,"x_max":0,"o":"m 457 808 l 463 815 b 371 996 447 835 397 933 l 367 996 b 206 815 318 933 229 835 l 208 808 l 342 853 z m 290 214 b 213 128 268 164 244 128 b 153 271 179 128 153 164 b 297 729 153 503 257 729 b 388 596 313 729 372 657 l 393 596 l 417 726 b 343 749 408 735 378 749 b -21 186 203 749 -21 449 b 108 -15 -21 56 35 -15 b 297 210 203 -15 261 100 z "},"ċ":{"ha":354,"x_min":0,"x_max":0,"o":"m 349 810 b 440 903 400 810 440 851 b 349 994 440 953 400 994 b 257 903 297 994 257 953 b 349 810 257 851 297 810 z m 290 214 b 213 128 268 164 244 128 b 153 271 179 128 153 164 b 297 729 153 503 257 729 b 388 596 313 729 372 657 l 393 596 l 417 726 b 343 749 408 735 378 749 b -21 186 203 749 -21 449 b 108 -15 -21 56 35 -15 b 297 210 203 -15 261 100 z "},"č":{"ha":354,"x_min":0,"x_max":0,"o":"m 221 1003 l 215 996 b 307 815 231 976 281 878 l 311 815 b 472 996 360 878 449 976 l 469 1003 l 336 958 z m 290 214 b 213 128 268 164 244 128 b 153 271 179 128 153 164 b 297 729 153 503 257 729 b 388 596 313 729 372 657 l 393 596 l 417 726 b 343 749 408 735 378 749 b -21 186 203 749 -21 449 b 108 -15 -21 56 35 -15 b 297 210 203 -15 261 100 z "},"d":{"ha":494,"x_min":0,"x_max":0,"o":"m 218 117 b 332 -15 218 53 286 -15 b 442 167 372 -15 413 74 l 435 168 b 385 74 414 111 390 74 b 379 83 382 74 379 76 b 436 349 379 126 407 233 l 625 1081 l 640 1140 l 444 1113 l 442 1026 l 368 746 b 329 749 353 747 339 749 b -42 154 228 749 -42 363 b 83 -15 -42 43 13 -15 b 229 281 119 -15 165 93 l 310 518 l 265 349 b 218 117 239 236 218 167 z m 132 108 b 328 735 132 204 300 735 b 353 693 332 735 342 724 l 217 290 b 138 94 169 150 146 94 b 132 108 133 94 132 99 z "},"ď":{"ha":494,"x_min":0,"x_max":0,"o":"m 218 117 b 332 -15 218 53 286 -15 b 442 167 372 -15 413 74 l 435 168 b 385 74 414 111 390 74 b 379 83 382 74 379 76 b 436 349 379 126 407 233 l 625 1081 l 640 1140 l 444 1113 l 442 1026 l 368 746 b 329 749 353 747 339 749 b -42 154 228 749 -42 363 b 83 -15 -42 43 13 -15 b 229 281 119 -15 165 93 l 310 518 l 265 349 b 218 117 239 236 218 167 z m 619 885 l 631 885 l 772 1139 l 668 1139 z m 132 108 b 328 735 132 204 300 735 b 353 693 332 735 342 724 l 217 290 b 138 94 169 150 146 94 b 132 108 133 94 132 99 z "},"e":{"ha":369,"x_min":0,"x_max":0,"o":"m 296 214 b 210 128 274 164 250 128 b 153 240 178 128 153 163 b 171 379 153 281 160 329 b 419 653 342 421 419 558 b 347 749 419 710 394 749 b -21 172 207 749 -21 436 b 104 -15 -21 60 19 -15 b 303 210 208 -15 267 100 z m 308 733 b 315 715 314 733 315 725 b 172 389 315 654 267 451 b 308 733 208 554 286 733 z "},"è":{"ha":369,"x_min":0,"x_max":0,"o":"m 261 996 l 260 996 l 219 861 l 435 808 l 438 815 b 261 996 401 843 311 935 z m 296 214 b 210 128 274 164 250 128 b 153 240 178 128 153 163 b 171 379 153 281 160 329 b 419 653 342 421 419 558 b 347 749 419 710 394 749 b -21 172 207 749 -21 436 b 104 -15 -21 60 19 -15 b 303 210 208 -15 267 100 z m 308 733 b 315 715 314 733 315 725 b 172 389 315 654 267 451 b 308 733 208 554 286 733 z "},"é":{"ha":369,"x_min":0,"x_max":0,"o":"m 461 996 b 285 815 411 935 321 843 l 288 808 l 503 861 l 463 996 z m 296 214 b 210 128 274 164 250 128 b 153 240 178 128 153 163 b 171 379 153 281 160 329 b 419 653 342 421 419 558 b 347 749 419 710 394 749 b -21 172 207 749 -21 436 b 104 -15 -21 60 19 -15 b 303 210 208 -15 267 100 z m 308 733 b 315 715 314 733 315 725 b 172 389 315 654 267 451 b 308 733 208 554 286 733 z "},"ê":{"ha":369,"x_min":0,"x_max":0,"o":"m 472 808 l 478 815 b 386 996 463 835 413 933 l 382 996 b 221 815 333 933 244 835 l 224 808 l 357 853 z m 296 214 b 210 128 274 164 250 128 b 153 240 178 128 153 163 b 171 379 153 281 160 329 b 419 653 342 421 419 558 b 347 749 419 710 394 749 b -21 172 207 749 -21 436 b 104 -15 -21 60 19 -15 b 303 210 208 -15 267 100 z m 308 733 b 315 715 314 733 315 725 b 172 389 315 654 267 451 b 308 733 208 554 286 733 z "},"ë":{"ha":369,"x_min":0,"x_max":0,"o":"m 268 810 b 353 894 318 810 353 846 b 268 976 353 942 318 976 b 186 894 222 976 186 942 b 268 810 186 846 222 810 z m 460 810 b 544 894 510 810 544 846 b 460 976 544 942 510 976 b 378 894 414 976 378 942 b 460 810 378 846 414 810 z m 296 214 b 210 128 274 164 250 128 b 153 240 178 128 153 163 b 171 379 153 281 160 329 b 419 653 342 421 419 558 b 347 749 419 710 394 749 b -21 172 207 749 -21 436 b 104 -15 -21 60 19 -15 b 303 210 208 -15 267 100 z m 308 733 b 315 715 314 733 315 725 b 172 389 315 654 267 451 b 308 733 208 554 286 733 z "},"ē":{"ha":369,"x_min":0,"x_max":0,"o":"m 253 856 l 461 856 l 479 950 l 271 950 z m 296 214 b 210 128 274 164 250 128 b 153 240 178 128 153 163 b 171 379 153 281 160 329 b 419 653 342 421 419 558 b 347 749 419 710 394 749 b -21 172 207 749 -21 436 b 104 -15 -21 60 19 -15 b 303 210 208 -15 267 100 z m 308 733 b 315 715 314 733 315 725 b 172 389 315 654 267 451 b 308 733 208 554 286 733 z "},"ĕ":{"ha":369,"x_min":0,"x_max":0,"o":"m 461 972 b 358 926 449 946 413 926 b 269 972 303 926 274 946 l 264 972 b 346 808 235 878 279 808 b 467 972 413 808 460 878 z m 296 214 b 210 128 274 164 250 128 b 153 240 178 128 153 163 b 171 379 153 281 160 329 b 419 653 342 421 419 558 b 347 749 419 710 394 749 b -21 172 207 749 -21 436 b 104 -15 -21 60 19 -15 b 303 210 208 -15 267 100 z m 308 733 b 315 715 314 733 315 725 b 172 389 315 654 267 451 b 308 733 208 554 286 733 z "},"ė":{"ha":369,"x_min":0,"x_max":0,"o":"m 349 810 b 440 903 400 810 440 851 b 349 994 440 953 400 994 b 257 903 297 994 257 953 b 349 810 257 851 297 810 z m 296 214 b 210 128 274 164 250 128 b 153 240 178 128 153 163 b 171 379 153 281 160 329 b 419 653 342 421 419 558 b 347 749 419 710 394 749 b -21 172 207 749 -21 436 b 104 -15 -21 60 19 -15 b 303 210 208 -15 267 100 z m 308 733 b 315 715 314 733 315 725 b 172 389 315 654 267 451 b 308 733 208 554 286 733 z "},"ę":{"ha":369,"x_min":0,"x_max":0,"o":"m 319 211 b 221 128 292 163 256 128 b 161 240 186 128 161 163 b 179 379 161 281 168 329 b 428 653 350 421 428 558 b 356 749 428 710 403 749 b -24 175 215 749 -24 436 b 110 -15 -24 60 28 -15 b 146 -10 122 -15 135 -14 b -46 -257 31 -82 -46 -171 b 36 -347 -46 -312 -14 -347 b 189 -217 108 -347 154 -281 l 186 -215 b 119 -249 163 -239 140 -249 b 69 -193 90 -249 69 -229 b 194 14 69 -158 86 -62 b 325 207 250 54 292 132 z m 317 733 b 324 715 322 733 324 725 b 181 389 324 654 275 451 b 317 733 217 554 294 733 z "},"ě":{"ha":369,"x_min":0,"x_max":0,"o":"m 238 1003 l 232 996 b 324 815 247 976 297 878 l 328 815 b 489 996 376 878 465 976 l 486 1003 l 353 958 z m 296 214 b 210 128 274 164 250 128 b 153 240 178 128 153 163 b 171 379 153 281 160 329 b 419 653 342 421 419 558 b 347 749 419 710 394 749 b -21 172 207 749 -21 436 b 104 -15 -21 60 19 -15 b 303 210 208 -15 267 100 z m 308 733 b 315 715 314 733 315 725 b 172 389 315 654 267 451 b 308 733 208 554 286 733 z "},"f":{"ha":260,"x_min":0,"x_max":0,"o":"m 76 725 l 118 725 l -96 -278 l 76 -278 l 286 725 l 354 725 l 357 736 l 289 736 l 303 803 b 282 1078 332 942 282 1026 b 313 1114 282 1101 292 1114 b 417 989 346 1114 392 1056 l 422 989 l 450 1136 b 400 1146 444 1140 429 1146 b 154 897 275 1146 186 1050 l 119 736 l 78 731 z "},"g":{"ha":443,"x_min":0,"x_max":0,"o":"m 513 847 l 335 735 b 281 749 318 743 301 749 b 31 436 165 749 31 581 b 146 228 31 343 68 243 b -36 111 54 214 -36 185 b 38 13 -36 71 -8 42 b -187 -182 -61 -24 -187 -92 b 67 -314 -187 -279 -40 -314 b 411 -78 268 -314 411 -190 b 243 96 411 -19 353 40 b 106 188 125 156 106 169 b 183 226 106 208 132 219 b 418 539 294 239 418 400 b 344 728 418 613 394 692 l 485 728 z m 274 739 b 282 703 279 739 282 725 b 175 235 282 589 215 235 b 167 271 169 235 167 249 b 274 739 167 385 233 739 z m -83 -149 b 46 8 -83 -87 -35 -29 b 128 -35 69 -6 97 -19 b 317 -189 232 -87 317 -133 b 121 -293 317 -251 215 -293 b -83 -149 24 -293 -83 -247 z "},"ĝ":{"ha":443,"x_min":0,"x_max":0,"o":"m 406 808 l 411 815 b 319 996 396 835 346 933 l 315 996 b 154 815 267 933 178 835 l 157 808 l 290 853 z m 513 847 l 335 735 b 281 749 318 743 301 749 b 31 436 165 749 31 581 b 146 228 31 343 68 243 b -36 111 54 214 -36 185 b 38 13 -36 71 -8 42 b -187 -182 -61 -24 -187 -92 b 67 -314 -187 -279 -40 -314 b 411 -78 268 -314 411 -190 b 243 96 411 -19 353 40 b 106 188 125 156 106 169 b 183 226 106 208 132 219 b 418 539 294 239 418 400 b 344 728 418 613 394 692 l 485 728 z m 274 739 b 282 703 279 739 282 725 b 175 235 282 589 215 235 b 167 271 169 235 167 249 b 274 739 167 385 233 739 z m -83 -149 b 46 8 -83 -87 -35 -29 b 128 -35 69 -6 97 -19 b 317 -189 232 -87 317 -133 b 121 -293 317 -251 215 -293 b -83 -149 24 -293 -83 -247 z "},"ğ":{"ha":443,"x_min":0,"x_max":0,"o":"m 408 972 b 306 926 396 946 360 926 b 217 972 250 926 221 946 l 211 972 b 293 808 182 878 226 808 b 414 972 360 808 407 878 z m 513 847 l 335 735 b 281 749 318 743 301 749 b 31 436 165 749 31 581 b 146 228 31 343 68 243 b -36 111 54 214 -36 185 b 38 13 -36 71 -8 42 b -187 -182 -61 -24 -187 -92 b 67 -314 -187 -279 -40 -314 b 411 -78 268 -314 411 -190 b 243 96 411 -19 353 40 b 106 188 125 156 106 169 b 183 226 106 208 132 219 b 418 539 294 239 418 400 b 344 728 418 613 394 692 l 485 728 z m 274 739 b 282 703 279 739 282 725 b 175 235 282 589 215 235 b 167 271 169 235 167 249 b 274 739 167 385 233 739 z m -83 -149 b 46 8 -83 -87 -35 -29 b 128 -35 69 -6 97 -19 b 317 -189 232 -87 317 -133 b 121 -293 317 -251 215 -293 b -83 -149 24 -293 -83 -247 z "},"ġ":{"ha":443,"x_min":0,"x_max":0,"o":"m 300 810 b 392 903 351 810 392 851 b 300 994 392 953 351 994 b 208 903 249 994 208 953 b 300 810 208 851 249 810 z m 513 847 l 335 735 b 281 749 318 743 301 749 b 31 436 165 749 31 581 b 146 228 31 343 68 243 b -36 111 54 214 -36 185 b 38 13 -36 71 -8 42 b -187 -182 -61 -24 -187 -92 b 67 -314 -187 -279 -40 -314 b 411 -78 268 -314 411 -190 b 243 96 411 -19 353 40 b 106 188 125 156 106 169 b 183 226 106 208 132 219 b 418 539 294 239 418 400 b 344 728 418 613 394 692 l 485 728 z m 274 739 b 282 703 279 739 282 725 b 175 235 282 589 215 235 b 167 271 169 235 167 249 b 274 739 167 385 233 739 z m -83 -149 b 46 8 -83 -87 -35 -29 b 128 -35 69 -6 97 -19 b 317 -189 232 -87 317 -133 b 121 -293 317 -251 215 -293 b -83 -149 24 -293 -83 -247 z "},"h":{"ha":474,"x_min":0,"x_max":0,"o":"m 190 117 b 304 -15 190 53 260 -15 b 414 167 344 -15 390 74 l 407 168 b 357 74 386 111 364 74 b 351 83 354 74 351 76 b 513 618 351 140 513 544 b 378 750 513 671 456 750 b 175 261 347 750 285 571 l 144 176 l 379 1079 l 396 1139 l 200 1111 l 197 1025 l -39 111 l -81 8 l -82 0 l 100 0 l 186 249 b 324 611 281 521 311 611 b 332 597 326 611 332 603 b 190 117 332 528 190 165 z "},"ĥ":{"ha":474,"x_min":0,"x_max":0,"o":"m 547 1144 l 553 1151 b 458 1310 533 1178 481 1265 l 454 1310 b 296 1151 406 1256 319 1168 l 299 1144 l 440 1181 z m 190 117 b 304 -15 190 53 260 -15 b 414 167 344 -15 390 74 l 407 168 b 357 74 386 111 364 74 b 351 83 354 74 351 76 b 513 618 351 140 513 544 b 378 750 513 671 456 750 b 175 261 347 750 285 571 l 144 176 l 379 1079 l 396 1139 l 200 1111 l 197 1025 l -39 111 l -81 8 l -82 0 l 100 0 l 186 249 b 324 611 281 521 311 611 b 332 597 326 611 332 603 b 190 117 332 528 190 165 z "},"i":{"ha":254,"x_min":0,"x_max":0,"o":"m 260 810 b 351 903 311 810 351 851 b 260 994 351 953 311 994 b 168 903 208 994 168 953 b 260 810 168 851 208 810 z m 89 -15 b 199 167 129 -15 175 74 l 192 168 b 142 74 171 111 149 74 b 136 83 139 74 136 76 b 265 596 136 176 265 526 b 168 749 265 671 204 749 b 57 576 124 749 83 679 l 64 575 b 111 665 90 651 104 665 b 114 658 113 665 114 664 b -25 117 114 606 -25 197 b 89 -15 -25 53 43 -15 z "},"ì":{"ha":254,"x_min":0,"x_max":0,"o":"m 140 996 l 139 996 l 99 861 l 314 808 l 317 815 b 140 996 281 843 190 935 z m 89 -15 b 199 167 129 -15 175 74 l 192 168 b 142 74 171 111 149 74 b 136 83 139 74 136 76 b 265 596 136 176 265 526 b 168 749 265 671 204 749 b 57 576 124 749 83 679 l 64 575 b 111 665 90 651 104 665 b 114 658 113 665 114 664 b -25 117 114 606 -25 197 b 89 -15 -25 53 43 -15 z "},"í":{"ha":254,"x_min":0,"x_max":0,"o":"m 313 996 b 136 815 263 935 172 843 l 139 808 l 354 861 l 314 996 z m 89 -15 b 199 167 129 -15 175 74 l 192 168 b 142 74 171 111 149 74 b 136 83 139 74 136 76 b 265 596 136 176 265 526 b 168 749 265 671 204 749 b 57 576 124 749 83 679 l 64 575 b 111 665 90 651 104 665 b 114 658 113 665 114 664 b -25 117 114 606 -25 197 b 89 -15 -25 53 43 -15 z "},"î":{"ha":254,"x_min":0,"x_max":0,"o":"m 346 808 l 351 815 b 260 996 336 835 286 933 l 256 996 b 94 815 207 933 118 835 l 97 808 l 231 853 z m 89 -15 b 199 167 129 -15 175 74 l 192 168 b 142 74 171 111 149 74 b 136 83 139 74 136 76 b 265 596 136 176 265 526 b 168 749 265 671 204 749 b 57 576 124 749 83 679 l 64 575 b 111 665 90 651 104 665 b 114 658 113 665 114 664 b -25 117 114 606 -25 197 b 89 -15 -25 53 43 -15 z "},"ï":{"ha":254,"x_min":0,"x_max":0,"o":"m 165 810 b 250 894 215 810 250 846 b 165 976 250 942 215 976 b 83 894 119 976 83 942 b 165 810 83 846 119 810 z m 343 810 b 428 894 393 810 428 846 b 343 976 428 942 393 976 b 261 894 297 976 261 942 b 343 810 261 846 297 810 z m 89 -15 b 199 167 129 -15 175 74 l 192 168 b 142 74 171 111 149 74 b 136 83 139 74 136 76 b 265 596 136 176 265 526 b 168 749 265 671 204 749 b 57 576 124 749 83 679 l 64 575 b 111 665 90 651 104 665 b 114 658 113 665 114 664 b -25 117 114 606 -25 197 b 89 -15 -25 53 43 -15 z "},"ĩ":{"ha":254,"x_min":0,"x_max":0,"o":"m 224 978 b 94 829 200 978 128 883 l 97 828 b 179 868 132 851 153 868 b 297 828 206 868 265 828 b 426 976 321 828 393 922 l 424 978 b 340 938 389 954 367 938 b 224 978 314 938 256 978 z m 89 -15 b 199 167 129 -15 175 74 l 192 168 b 142 74 171 111 149 74 b 136 83 139 74 136 76 b 265 596 136 176 265 526 b 168 749 265 671 204 749 b 57 576 124 749 83 679 l 64 575 b 111 665 90 651 104 665 b 114 658 113 665 114 664 b -25 117 114 606 -25 197 b 89 -15 -25 53 43 -15 z "},"ī":{"ha":254,"x_min":0,"x_max":0,"o":"m 146 856 l 340 856 l 358 950 l 164 950 z m 89 -15 b 199 167 129 -15 175 74 l 192 168 b 142 74 171 111 149 74 b 136 83 139 74 136 76 b 265 596 136 176 265 526 b 168 749 265 671 204 749 b 57 576 124 749 83 679 l 64 575 b 111 665 90 651 104 665 b 114 658 113 665 114 664 b -25 117 114 606 -25 197 b 89 -15 -25 53 43 -15 z "},"ĭ":{"ha":254,"x_min":0,"x_max":0,"o":"m 371 972 b 268 926 358 946 322 926 b 179 972 213 926 183 946 l 174 972 b 256 808 144 878 189 808 b 376 972 322 808 369 878 z m 89 -15 b 199 167 129 -15 175 74 l 192 168 b 142 74 171 111 149 74 b 136 83 139 74 136 76 b 265 596 136 176 265 526 b 168 749 265 671 204 749 b 57 576 124 749 83 679 l 64 575 b 111 665 90 651 104 665 b 114 658 113 665 114 664 b -25 117 114 606 -25 197 b 89 -15 -25 53 43 -15 z "},"į":{"ha":254,"x_min":0,"x_max":0,"o":"m 260 803 b 358 914 314 803 358 851 b 265 1018 358 975 322 1018 b 167 906 213 1018 167 969 b 260 803 167 846 204 803 z m 133 -217 l 131 -215 b 64 -249 107 -239 85 -249 b 14 -193 35 -249 14 -229 b 113 -8 14 -161 32 -82 b 199 167 144 21 178 82 l 192 168 b 142 74 171 111 149 74 b 136 83 139 74 136 76 b 265 596 136 176 265 526 b 168 749 265 671 204 749 b 57 576 124 749 83 679 l 64 575 b 111 665 90 651 104 665 b 114 658 113 665 114 664 b -25 117 114 606 -25 197 b 83 -15 -25 56 38 -10 b -101 -257 -29 -86 -101 -172 b -19 -347 -101 -312 -69 -347 b 133 -217 53 -347 99 -281 z "},"j":{"ha":249,"x_min":0,"x_max":0,"o":"m 263 810 b 354 903 314 810 354 851 b 263 994 354 953 314 994 b 171 903 211 994 171 953 b 263 810 171 851 211 810 z m 94 -99 l 231 403 b 268 596 253 500 268 572 b 168 749 268 671 201 749 b 57 576 124 749 83 679 l 64 575 b 111 665 90 651 104 665 b 114 658 113 665 114 664 b 64 422 114 636 92 528 l -51 -3 b -44 -278 -87 -137 -44 -228 b -76 -315 -44 -303 -56 -315 b -178 -190 -110 -315 -154 -257 l -183 -190 l -214 -337 b -158 -347 -204 -342 -187 -347 b 94 -99 -35 -347 54 -249 z "},"ĵ":{"ha":249,"x_min":0,"x_max":0,"o":"m 342 808 l 347 815 b 256 996 332 835 282 933 l 251 996 b 90 815 203 933 114 835 l 93 808 l 226 853 z m 94 -99 l 231 403 b 268 596 253 500 268 572 b 168 749 268 671 201 749 b 57 576 124 749 83 679 l 64 575 b 111 665 90 651 104 665 b 114 658 113 665 114 664 b 64 422 114 636 92 528 l -51 -3 b -44 -278 -87 -137 -44 -228 b -76 -315 -44 -303 -56 -315 b -178 -190 -110 -315 -154 -257 l -183 -190 l -214 -337 b -158 -347 -204 -342 -187 -347 b 94 -99 -35 -347 54 -249 z "},"k":{"ha":475,"x_min":0,"x_max":0,"o":"m 100 0 l 158 225 b 178 256 165 236 172 246 b 185 57 174 156 175 79 b 319 -15 200 22 288 -15 b 421 167 351 -15 392 74 l 414 168 b 346 56 382 88 354 56 b 340 63 343 56 340 60 b 346 443 340 79 340 251 b 510 676 449 543 510 610 b 449 749 510 728 482 749 b 201 392 368 749 294 638 l 379 1079 l 396 1139 l 200 1111 l 197 1025 l -39 111 l -81 8 l -82 0 z m 344 611 b 375 568 360 611 375 601 b 289 401 375 536 357 468 b 165 253 264 376 217 332 l 168 264 b 344 611 268 549 304 611 z "},"l":{"ha":240,"x_min":0,"x_max":0,"o":"m 129 83 b 186 347 129 126 157 231 l 376 1079 l 393 1139 l 197 1111 l 194 1025 l 15 347 b -32 117 -8 260 -32 167 b 82 -15 -32 53 36 -15 b 192 167 122 -15 163 74 l 185 168 b 135 74 164 111 140 74 b 129 83 132 74 129 76 z "},"ĺ":{"ha":240,"x_min":0,"x_max":0,"o":"m 426 1310 b 211 1151 361 1254 243 1168 l 213 1144 l 450 1182 l 428 1310 z m 129 83 b 186 347 129 126 157 231 l 376 1079 l 393 1139 l 197 1111 l 194 1025 l 15 347 b -32 117 -8 260 -32 167 b 82 -15 -32 53 36 -15 b 192 167 122 -15 163 74 l 185 168 b 135 74 164 111 140 74 b 129 83 132 74 129 76 z "},"ľ":{"ha":240,"x_min":0,"x_max":0,"o":"m 129 83 b 186 347 129 126 157 231 l 376 1079 l 393 1139 l 197 1111 l 194 1025 l 15 347 b -32 117 -8 260 -32 167 b 82 -15 -32 53 36 -15 b 192 167 122 -15 163 74 l 185 168 b 135 74 164 111 140 74 b 129 83 132 74 129 76 z m 372 885 l 383 885 l 525 1139 l 421 1139 z "},"m":{"ha":694,"x_min":0,"x_max":0,"o":"m 318 0 l 407 249 b 546 604 501 511 533 604 b 553 600 550 604 553 603 b 411 117 553 526 411 165 b 525 -15 411 53 481 -15 b 635 167 565 -15 611 74 l 628 168 b 578 74 607 111 585 74 b 572 83 575 74 572 76 b 733 618 572 140 733 546 b 601 750 733 671 678 750 b 371 197 571 750 507 565 l 369 197 b 501 618 464 486 501 601 b 381 750 501 671 450 750 b 182 261 350 750 297 569 l 146 164 b 257 607 219 439 257 563 b 160 749 257 665 194 749 b 49 576 115 749 75 679 l 56 575 b 103 665 82 651 96 665 b 106 658 104 665 106 664 b -36 111 106 622 67 478 l -76 8 l -78 0 l 103 0 l 193 249 b 329 606 290 515 315 606 b 335 597 331 606 335 600 b 147 0 335 532 218 228 z "},"n":{"ha":479,"x_min":0,"x_max":0,"o":"m 196 117 b 310 -15 196 53 265 -15 b 419 167 350 -15 396 74 l 413 168 b 363 74 392 111 369 74 b 357 83 360 74 357 76 b 518 618 357 140 518 544 b 383 750 518 671 461 750 b 181 261 353 750 290 571 l 156 192 b 260 607 217 419 260 560 b 163 749 260 665 199 749 b 51 576 118 749 78 679 l 58 575 b 106 665 85 651 99 665 b 108 658 107 665 108 664 b -33 111 108 622 61 474 l -74 8 l -75 0 l 106 0 l 192 249 b 329 611 286 521 317 611 b 338 597 332 611 338 603 b 196 117 338 528 196 165 z "},"ñ":{"ha":479,"x_min":0,"x_max":0,"o":"m 343 978 b 214 829 319 978 247 883 l 217 828 b 299 868 251 851 272 868 b 417 828 325 868 385 828 b 546 976 440 828 513 922 l 543 978 b 460 938 508 954 486 938 b 343 978 433 938 375 978 z m 196 117 b 310 -15 196 53 265 -15 b 419 167 350 -15 396 74 l 413 168 b 363 74 392 111 369 74 b 357 83 360 74 357 76 b 518 618 357 140 518 544 b 383 750 518 671 461 750 b 181 261 353 750 290 571 l 156 192 b 260 607 217 419 260 560 b 163 749 260 665 199 749 b 51 576 118 749 78 679 l 58 575 b 106 665 85 651 99 665 b 108 658 107 665 108 664 b -33 111 108 622 61 474 l -74 8 l -75 0 l 106 0 l 192 249 b 329 611 286 521 317 611 b 338 597 332 611 338 603 b 196 117 338 528 196 165 z "},"ń":{"ha":479,"x_min":0,"x_max":0,"o":"m 443 996 b 267 815 393 935 303 843 l 269 808 l 485 861 l 444 996 z m 196 117 b 310 -15 196 53 265 -15 b 419 167 350 -15 396 74 l 413 168 b 363 74 392 111 369 74 b 357 83 360 74 357 76 b 518 618 357 140 518 544 b 383 750 518 671 461 750 b 181 261 353 750 290 571 l 156 192 b 260 607 217 419 260 560 b 163 749 260 665 199 749 b 51 576 118 749 78 679 l 58 575 b 106 665 85 651 99 665 b 108 658 107 665 108 664 b -33 111 108 622 61 474 l -74 8 l -75 0 l 106 0 l 192 249 b 329 611 286 521 317 611 b 338 597 332 611 338 603 b 196 117 338 528 196 165 z "},"ň":{"ha":479,"x_min":0,"x_max":0,"o":"m 218 1003 l 213 996 b 304 815 228 976 278 878 l 308 815 b 469 996 357 878 446 976 l 467 1003 l 333 958 z m 196 117 b 310 -15 196 53 265 -15 b 419 167 350 -15 396 74 l 413 168 b 363 74 392 111 369 74 b 357 83 360 74 357 76 b 518 618 357 140 518 544 b 383 750 518 671 461 750 b 181 261 353 750 290 571 l 156 192 b 260 607 217 419 260 560 b 163 749 260 665 199 749 b 51 576 118 749 78 679 l 58 575 b 106 665 85 651 99 665 b 108 658 107 665 108 664 b -33 111 108 622 61 474 l -74 8 l -75 0 l 106 0 l 192 249 b 329 611 286 521 317 611 b 338 597 332 611 338 603 b 196 117 338 528 196 165 z "},"o":{"ha":433,"x_min":0,"x_max":0,"o":"m 433 474 b 301 749 433 588 390 749 b 0 261 179 749 0 500 b 132 -15 0 146 43 -15 b 433 474 254 -15 433 233 z m 139 0 b 132 26 135 0 132 7 b 294 733 132 154 258 733 b 301 707 299 733 301 726 b 139 0 301 579 175 0 z "},"ò":{"ha":433,"x_min":0,"x_max":0,"o":"m 239 996 l 238 996 l 197 861 l 413 808 l 415 815 b 239 996 379 843 289 935 z m 433 474 b 301 749 433 588 390 749 b 0 261 179 749 0 500 b 132 -15 0 146 43 -15 b 433 474 254 -15 433 233 z m 139 0 b 132 26 135 0 132 7 b 294 733 132 154 258 733 b 301 707 299 733 301 726 b 139 0 301 579 175 0 z "},"ó":{"ha":433,"x_min":0,"x_max":0,"o":"m 406 996 b 229 815 356 935 265 843 l 232 808 l 447 861 l 407 996 z m 433 474 b 301 749 433 588 390 749 b 0 261 179 749 0 500 b 132 -15 0 146 43 -15 b 433 474 254 -15 433 233 z m 139 0 b 132 26 135 0 132 7 b 294 733 132 154 258 733 b 301 707 299 733 301 726 b 139 0 301 579 175 0 z "},"ô":{"ha":433,"x_min":0,"x_max":0,"o":"m 413 808 l 418 815 b 326 996 403 835 353 933 l 322 996 b 161 815 274 933 185 835 l 164 808 l 297 853 z m 433 474 b 301 749 433 588 390 749 b 0 261 179 749 0 500 b 132 -15 0 146 43 -15 b 433 474 254 -15 433 233 z m 139 0 b 132 26 135 0 132 7 b 294 733 132 154 258 733 b 301 707 299 733 301 726 b 139 0 301 579 175 0 z "},"õ":{"ha":433,"x_min":0,"x_max":0,"o":"m 290 978 b 161 829 267 978 194 883 l 164 828 b 246 868 199 851 219 868 b 364 828 272 868 332 828 b 493 976 388 828 460 922 l 490 978 b 407 938 456 954 433 938 b 290 978 381 938 322 978 z m 433 474 b 301 749 433 588 390 749 b 0 261 179 749 0 500 b 132 -15 0 146 43 -15 b 433 474 254 -15 433 233 z m 139 0 b 132 26 135 0 132 7 b 294 733 132 154 258 733 b 301 707 299 733 301 726 b 139 0 301 579 175 0 z "},"ö":{"ha":433,"x_min":0,"x_max":0,"o":"m 222 810 b 307 894 272 810 307 846 b 222 976 307 942 272 976 b 140 894 176 976 140 942 b 222 810 140 846 176 810 z m 414 810 b 499 894 464 810 499 846 b 414 976 499 942 464 976 b 332 894 368 976 332 942 b 414 810 332 846 368 810 z m 433 474 b 301 749 433 588 390 749 b 0 261 179 749 0 500 b 132 -15 0 146 43 -15 b 433 474 254 -15 433 233 z m 139 0 b 132 26 135 0 132 7 b 294 733 132 154 258 733 b 301 707 299 733 301 726 b 139 0 301 579 175 0 z "},"ō":{"ha":433,"x_min":0,"x_max":0,"o":"m 194 856 l 403 856 l 421 950 l 213 950 z m 433 474 b 301 749 433 588 390 749 b 0 261 179 749 0 500 b 132 -15 0 146 43 -15 b 433 474 254 -15 433 233 z m 139 0 b 132 26 135 0 132 7 b 294 733 132 154 258 733 b 301 707 299 733 301 726 b 139 0 301 579 175 0 z "},"ŏ":{"ha":433,"x_min":0,"x_max":0,"o":"m 417 972 b 314 926 404 946 368 926 b 225 972 258 926 229 946 l 219 972 b 301 808 190 878 235 808 b 422 972 368 808 415 878 z m 433 474 b 301 749 433 588 390 749 b 0 261 179 749 0 500 b 132 -15 0 146 43 -15 b 433 474 254 -15 433 233 z m 139 0 b 132 26 135 0 132 7 b 294 733 132 154 258 733 b 301 707 299 733 301 726 b 139 0 301 579 175 0 z "},"ő":{"ha":433,"x_min":0,"x_max":0,"o":"m 329 1011 b 192 811 306 968 232 861 l 194 808 l 388 910 l 331 1011 z m 482 1011 b 344 811 458 968 385 861 l 347 808 l 540 910 l 483 1011 z m 433 474 b 301 749 433 588 390 749 b 0 261 179 749 0 500 b 132 -15 0 146 43 -15 b 433 474 254 -15 433 233 z m 139 0 b 132 26 135 0 132 7 b 294 733 132 154 258 733 b 301 707 299 733 301 726 b 139 0 301 579 175 0 z "},"p":{"ha":433,"x_min":0,"x_max":0,"o":"m 31 -339 l 40 -236 l 99 -14 b 133 -15 113 -14 124 -15 b 461 569 267 -15 461 356 b 300 747 461 672 417 739 l 329 856 l 347 917 l 149 889 l 143 803 l 121 719 b 81 701 108 714 94 708 l 85 693 b 117 706 94 697 106 701 l -132 -236 l -175 -339 l -175 -347 l 31 -347 z m 308 611 b 135 -1 303 449 164 -1 b 113 35 131 -1 122 7 l 288 697 b 308 611 301 681 310 654 z "},"q":{"ha":478,"x_min":0,"x_max":0,"o":"m 313 -236 l 511 638 l 540 753 l 531 757 l 460 733 b 329 749 418 740 360 749 b -42 154 228 749 -42 363 b 83 -15 -42 43 13 -15 b 229 281 119 -15 165 93 l 321 553 l 140 -236 l 99 -339 l 99 -347 l 304 -347 l 306 -339 z m 328 735 b 353 694 332 735 342 724 l 217 290 b 138 94 169 150 146 94 b 132 108 133 94 132 99 b 328 735 132 204 300 735 z "},"r":{"ha":379,"x_min":0,"x_max":0,"o":"m 335 507 b 388 494 351 507 371 501 l 463 749 b 171 261 375 749 296 618 l 153 210 b 260 607 213 426 260 561 b 163 749 260 665 199 749 b 51 576 118 749 78 679 l 58 575 b 106 665 85 651 99 665 b 108 658 107 665 108 664 b -33 111 108 622 61 474 l -74 8 l -75 0 l 97 0 l 183 249 b 335 507 256 457 286 507 z "},"ŕ":{"ha":379,"x_min":0,"x_max":0,"o":"m 414 996 b 238 815 364 935 274 843 l 240 808 l 456 861 l 415 996 z m 335 507 b 388 494 351 507 371 501 l 463 749 b 171 261 375 749 296 618 l 153 210 b 260 607 213 426 260 561 b 163 749 260 665 199 749 b 51 576 118 749 78 679 l 58 575 b 106 665 85 651 99 665 b 108 658 107 665 108 664 b -33 111 108 622 61 474 l -74 8 l -75 0 l 97 0 l 183 249 b 335 507 256 457 286 507 z "},"ř":{"ha":379,"x_min":0,"x_max":0,"o":"m 188 1003 l 182 996 b 274 815 197 976 247 878 l 278 815 b 439 996 326 878 415 976 l 436 1003 l 303 958 z m 335 507 b 388 494 351 507 371 501 l 463 749 b 171 261 375 749 296 618 l 153 210 b 260 607 213 426 260 561 b 163 749 260 665 199 749 b 51 576 118 749 78 679 l 58 575 b 106 665 85 651 99 665 b 108 658 107 665 108 664 b -33 111 108 622 61 474 l -74 8 l -75 0 l 97 0 l 183 249 b 335 507 256 457 286 507 z "},"s":{"ha":325,"x_min":0,"x_max":0,"o":"m 61 -15 b 268 264 176 -15 268 78 b 233 622 268 379 233 507 b 269 733 233 706 251 733 b 336 578 294 733 311 682 l 340 578 l 381 721 b 285 749 372 731 336 749 b 85 511 190 749 85 686 b 113 196 85 422 113 318 b 64 0 113 60 82 0 b -11 176 43 0 15 78 l -18 178 l -62 28 b 61 -15 -43 7 6 -15 z "},"ś":{"ha":325,"x_min":0,"x_max":0,"o":"m 393 996 b 217 815 343 935 253 843 l 219 808 l 435 861 l 394 996 z m 61 -15 b 268 264 176 -15 268 78 b 233 622 268 379 233 507 b 269 733 233 706 251 733 b 336 578 294 733 311 682 l 340 578 l 381 721 b 285 749 372 731 336 749 b 85 511 190 749 85 686 b 113 196 85 422 113 318 b 64 0 113 60 82 0 b -11 176 43 0 15 78 l -18 178 l -62 28 b 61 -15 -43 7 6 -15 z "},"ŝ":{"ha":325,"x_min":0,"x_max":0,"o":"m 417 808 l 422 815 b 331 996 407 835 357 933 l 326 996 b 165 815 278 933 189 835 l 168 808 l 301 853 z m 61 -15 b 268 264 176 -15 268 78 b 233 622 268 379 233 507 b 269 733 233 706 251 733 b 336 578 294 733 311 682 l 340 578 l 381 721 b 285 749 372 731 336 749 b 85 511 190 749 85 686 b 113 196 85 422 113 318 b 64 0 113 60 82 0 b -11 176 43 0 15 78 l -18 178 l -62 28 b 61 -15 -43 7 6 -15 z "},"ş":{"ha":325,"x_min":0,"x_max":0,"o":"m 61 -15 b 268 264 176 -15 268 78 b 233 622 268 379 233 507 b 269 733 233 706 251 733 b 336 578 294 733 311 682 l 340 578 l 381 721 b 285 749 372 731 336 749 b 85 511 190 749 85 686 b 113 196 85 422 113 318 b 64 0 113 60 82 0 b -11 176 43 0 15 78 l -18 178 l -62 28 b 35 -14 -46 10 -10 -8 l -53 -133 l -47 -136 b -15 -194 -35 -143 -15 -158 b -106 -314 -15 -250 -61 -290 l -104 -319 b 99 -133 29 -282 99 -214 b 36 -28 99 -87 78 -53 l 46 -15 b 61 -15 50 -15 56 -15 z "},"š":{"ha":325,"x_min":0,"x_max":0,"o":"m 192 1003 l 186 996 b 278 815 201 976 251 878 l 282 815 b 443 996 331 878 419 976 l 440 1003 l 307 958 z m 61 -15 b 268 264 176 -15 268 78 b 233 622 268 379 233 507 b 269 733 233 706 251 733 b 336 578 294 733 311 682 l 340 578 l 381 721 b 285 749 372 731 336 749 b 85 511 190 749 85 686 b 113 196 85 422 113 318 b 64 0 113 60 82 0 b -11 176 43 0 15 78 l -18 178 l -62 28 b 61 -15 -43 7 6 -15 z "},"ș":{"ha":325,"x_min":0,"x_max":0,"o":"m 61 -15 b 268 264 176 -15 268 78 b 233 622 268 379 233 507 b 269 733 233 706 251 733 b 336 578 294 733 311 682 l 340 578 l 381 721 b 285 749 372 731 336 749 b 85 511 190 749 85 686 b 113 196 85 422 113 318 b 64 0 113 60 82 0 b -11 176 43 0 15 78 l -18 178 l -62 28 b 61 -15 -43 7 6 -15 z m 7 -56 b -42 -304 -3 -131 -22 -229 l -37 -306 l 132 -85 l 8 -56 z "},"t":{"ha":282,"x_min":0,"x_max":0,"o":"m 129 83 b 306 725 129 144 239 496 l 363 725 l 365 736 l 311 736 b 347 864 325 786 336 829 l 342 864 l 88 731 l 86 725 l 138 725 b -24 143 82 526 -24 174 b 83 -15 -24 69 43 -15 b 210 144 125 -15 168 56 l 204 149 b 135 76 174 106 144 76 b 129 83 132 76 129 78 z "},"ţ":{"ha":282,"x_min":0,"x_max":0,"o":"m 129 83 b 306 725 129 144 239 496 l 363 725 l 365 736 l 311 736 b 347 864 325 786 336 829 l 342 864 l 88 731 l 86 725 l 138 725 b -24 143 82 526 -24 174 b 83 -15 -24 69 43 -15 b 210 144 125 -15 168 56 l 204 149 b 135 76 174 106 144 76 b 129 83 132 76 129 78 z m -18 -56 b -67 -304 -28 -131 -47 -229 l -62 -306 l 107 -85 l -17 -56 z "},"ť":{"ha":282,"x_min":0,"x_max":0,"o":"m 375 885 l 386 885 l 528 1139 l 424 1139 z m 129 83 b 306 725 129 144 239 496 l 363 725 l 365 736 l 311 736 b 347 864 325 786 336 829 l 342 864 l 88 731 l 86 725 l 138 725 b -24 143 82 526 -24 174 b 83 -15 -24 69 43 -15 b 210 144 125 -15 168 56 l 204 149 b 135 76 174 106 144 76 b 129 83 132 76 129 78 z "},"ț":{"ha":282,"x_min":0,"x_max":0,"o":"m 129 83 b 306 725 129 144 239 496 l 363 725 l 365 736 l 311 736 b 347 864 325 786 336 829 l 342 864 l 88 731 l 86 725 l 138 725 b -24 143 82 526 -24 174 b 83 -15 -24 69 43 -15 b 210 144 125 -15 168 56 l 204 149 b 135 76 174 106 144 76 b 129 83 132 76 129 78 z m -18 -56 b -67 -304 -28 -131 -47 -229 l -62 -306 l 107 -85 l -17 -56 z "},"u":{"ha":494,"x_min":0,"x_max":0,"o":"m -33 143 b 89 -15 -33 88 11 -15 b 293 474 119 -15 149 58 l 313 529 b 214 118 256 304 214 161 b 328 -15 214 56 282 -15 b 438 167 368 -15 414 74 l 431 168 b 381 74 410 111 388 74 b 375 83 378 74 375 76 b 538 736 375 146 454 414 l 368 736 l 279 481 b 135 96 186 213 151 96 b 126 110 128 96 126 100 b 271 607 126 189 271 546 b 174 749 271 665 210 749 b 63 576 129 749 89 679 l 69 575 b 117 665 96 651 110 665 b 119 658 118 665 119 664 b -33 143 119 575 -33 250 z "},"ù":{"ha":494,"x_min":0,"x_max":0,"o":"m 258 996 l 257 996 l 217 861 l 432 808 l 435 815 b 258 996 399 843 308 935 z m -33 143 b 89 -15 -33 88 11 -15 b 293 474 119 -15 149 58 l 313 529 b 214 118 256 304 214 161 b 328 -15 214 56 282 -15 b 438 167 368 -15 414 74 l 431 168 b 381 74 410 111 388 74 b 375 83 378 74 375 76 b 538 736 375 146 454 414 l 368 736 l 279 481 b 135 96 186 213 151 96 b 126 110 128 96 126 100 b 271 607 126 189 271 546 b 174 749 271 665 210 749 b 63 576 129 749 89 679 l 69 575 b 117 665 96 651 110 665 b 119 658 118 665 119 664 b -33 143 119 575 -33 250 z "},"ú":{"ha":494,"x_min":0,"x_max":0,"o":"m 442 996 b 265 815 392 935 301 843 l 268 808 l 483 861 l 443 996 z m -33 143 b 89 -15 -33 88 11 -15 b 293 474 119 -15 149 58 l 313 529 b 214 118 256 304 214 161 b 328 -15 214 56 282 -15 b 438 167 368 -15 414 74 l 431 168 b 381 74 410 111 388 74 b 375 83 378 74 375 76 b 538 736 375 146 454 414 l 368 736 l 279 481 b 135 96 186 213 151 96 b 126 110 128 96 126 100 b 271 607 126 189 271 546 b 174 749 271 665 210 749 b 63 576 129 749 89 679 l 69 575 b 117 665 96 651 110 665 b 119 658 118 665 119 664 b -33 143 119 575 -33 250 z "},"û":{"ha":494,"x_min":0,"x_max":0,"o":"m 479 808 l 485 815 b 393 996 469 835 419 933 l 389 996 b 228 815 340 933 251 835 l 231 808 l 364 853 z m -33 143 b 89 -15 -33 88 11 -15 b 293 474 119 -15 149 58 l 313 529 b 214 118 256 304 214 161 b 328 -15 214 56 282 -15 b 438 167 368 -15 414 74 l 431 168 b 381 74 410 111 388 74 b 375 83 378 74 375 76 b 538 736 375 146 454 414 l 368 736 l 279 481 b 135 96 186 213 151 96 b 126 110 128 96 126 100 b 271 607 126 189 271 546 b 174 749 271 665 210 749 b 63 576 129 749 89 679 l 69 575 b 117 665 96 651 110 665 b 119 658 118 665 119 664 b -33 143 119 575 -33 250 z "},"ü":{"ha":494,"x_min":0,"x_max":0,"o":"m 271 810 b 356 894 321 810 356 846 b 271 976 356 942 321 976 b 189 894 225 976 189 942 b 271 810 189 846 225 810 z m 463 810 b 547 894 513 810 547 846 b 463 976 547 942 513 976 b 381 894 417 976 381 942 b 463 810 381 846 417 810 z m -33 143 b 89 -15 -33 88 11 -15 b 293 474 119 -15 149 58 l 313 529 b 214 118 256 304 214 161 b 328 -15 214 56 282 -15 b 438 167 368 -15 414 74 l 431 168 b 381 74 410 111 388 74 b 375 83 378 74 375 76 b 538 736 375 146 454 414 l 368 736 l 279 481 b 135 96 186 213 151 96 b 126 110 128 96 126 100 b 271 607 126 189 271 546 b 174 749 271 665 210 749 b 63 576 129 749 89 679 l 69 575 b 117 665 96 651 110 665 b 119 658 118 665 119 664 b -33 143 119 575 -33 250 z "},"ũ":{"ha":494,"x_min":0,"x_max":0,"o":"m 342 978 b 213 829 318 978 246 883 l 215 828 b 297 868 250 851 271 868 b 415 828 324 868 383 828 b 544 976 439 828 511 922 l 542 978 b 458 938 507 954 485 938 b 342 978 432 938 374 978 z m -33 143 b 89 -15 -33 88 11 -15 b 293 474 119 -15 149 58 l 313 529 b 214 118 256 304 214 161 b 328 -15 214 56 282 -15 b 438 167 368 -15 414 74 l 431 168 b 381 74 410 111 388 74 b 375 83 378 74 375 76 b 538 736 375 146 454 414 l 368 736 l 279 481 b 135 96 186 213 151 96 b 126 110 128 96 126 100 b 271 607 126 189 271 546 b 174 749 271 665 210 749 b 63 576 129 749 89 679 l 69 575 b 117 665 96 651 110 665 b 119 658 118 665 119 664 b -33 143 119 575 -33 250 z "},"ū":{"ha":494,"x_min":0,"x_max":0,"o":"m 246 856 l 454 856 l 472 950 l 264 950 z m -33 143 b 89 -15 -33 88 11 -15 b 293 474 119 -15 149 58 l 313 529 b 214 118 256 304 214 161 b 328 -15 214 56 282 -15 b 438 167 368 -15 414 74 l 431 168 b 381 74 410 111 388 74 b 375 83 378 74 375 76 b 538 736 375 146 454 414 l 368 736 l 279 481 b 135 96 186 213 151 96 b 126 110 128 96 126 100 b 271 607 126 189 271 546 b 174 749 271 665 210 749 b 63 576 129 749 89 679 l 69 575 b 117 665 96 651 110 665 b 119 658 118 665 119 664 b -33 143 119 575 -33 250 z "},"ŭ":{"ha":494,"x_min":0,"x_max":0,"o":"m 468 972 b 365 926 456 946 419 926 b 276 972 310 926 281 946 l 271 972 b 353 808 242 878 286 808 b 474 972 419 808 467 878 z m -33 143 b 89 -15 -33 88 11 -15 b 293 474 119 -15 149 58 l 313 529 b 214 118 256 304 214 161 b 328 -15 214 56 282 -15 b 438 167 368 -15 414 74 l 431 168 b 381 74 410 111 388 74 b 375 83 378 74 375 76 b 538 736 375 146 454 414 l 368 736 l 279 481 b 135 96 186 213 151 96 b 126 110 128 96 126 100 b 271 607 126 189 271 546 b 174 749 271 665 210 749 b 63 576 129 749 89 679 l 69 575 b 117 665 96 651 110 665 b 119 658 118 665 119 664 b -33 143 119 575 -33 250 z "},"ů":{"ha":494,"x_min":0,"x_max":0,"o":"m 363 814 b 469 918 424 814 469 863 b 363 1022 469 974 424 1022 b 256 918 301 1022 256 974 b 363 814 256 863 301 814 z m 363 824 b 329 918 338 824 329 867 b 363 1013 329 982 338 1013 b 396 918 388 1013 396 968 b 363 824 396 853 388 824 z m -33 143 b 89 -15 -33 88 11 -15 b 293 474 119 -15 149 58 l 313 529 b 214 118 256 304 214 161 b 328 -15 214 56 282 -15 b 438 167 368 -15 414 74 l 431 168 b 381 74 410 111 388 74 b 375 83 378 74 375 76 b 538 736 375 146 454 414 l 368 736 l 279 481 b 135 96 186 213 151 96 b 126 110 128 96 126 100 b 271 607 126 189 271 546 b 174 749 271 665 210 749 b 63 576 129 749 89 679 l 69 575 b 117 665 96 651 110 665 b 119 658 118 665 119 664 b -33 143 119 575 -33 250 z "},"ű":{"ha":494,"x_min":0,"x_max":0,"o":"m 342 1011 b 204 811 318 968 244 861 l 207 808 l 400 910 l 343 1011 z m 494 1011 b 357 811 471 968 397 861 l 360 808 l 553 910 l 496 1011 z m -33 143 b 89 -15 -33 88 11 -15 b 293 474 119 -15 149 58 l 313 529 b 214 118 256 304 214 161 b 328 -15 214 56 282 -15 b 438 167 368 -15 414 74 l 431 168 b 381 74 410 111 388 74 b 375 83 378 74 375 76 b 538 736 375 146 454 414 l 368 736 l 279 481 b 135 96 186 213 151 96 b 126 110 128 96 126 100 b 271 607 126 189 271 546 b 174 749 271 665 210 749 b 63 576 129 749 89 679 l 69 575 b 117 665 96 651 110 665 b 119 658 118 665 119 664 b -33 143 119 575 -33 250 z "},"ų":{"ha":494,"x_min":0,"x_max":0,"o":"m -33 143 b 89 -15 -33 88 11 -15 b 293 474 119 -15 149 58 l 313 529 b 214 118 256 304 214 161 b 318 -14 214 60 274 -6 b 133 -257 207 -85 133 -172 b 215 -347 133 -312 165 -347 b 368 -217 288 -347 333 -281 l 365 -215 b 299 -249 342 -239 319 -249 b 249 -193 269 -249 249 -229 b 347 -12 249 -162 265 -72 b 438 167 386 15 419 89 l 431 168 b 381 74 410 111 388 74 b 375 83 378 74 375 76 b 538 736 375 146 454 414 l 368 736 l 279 481 b 135 96 186 213 151 96 b 126 110 128 96 126 100 b 271 607 126 189 271 546 b 174 749 271 665 210 749 b 63 576 129 749 89 679 l 69 575 b 117 665 96 651 110 665 b 119 658 118 665 119 664 b -33 143 119 575 -33 250 z "},"v":{"ha":349,"x_min":0,"x_max":0,"o":"m 68 579 l 254 579 b -42 88 153 489 -42 251 b 44 -15 -42 28 -11 -15 b 372 581 132 -15 243 111 l 431 731 l 432 736 l 346 736 l 342 731 l 358 582 b 157 108 283 311 196 108 b 140 133 149 108 140 117 b 331 736 140 228 272 588 l 128 736 z "},"w":{"ha":517,"x_min":0,"x_max":0,"o":"m 68 579 l 254 579 b -42 88 153 489 -42 251 b 38 -15 -42 28 -15 -15 b 211 150 89 -15 154 24 b 208 108 210 136 208 122 b 278 -15 208 44 228 -15 b 542 581 349 -15 450 111 l 593 731 l 593 736 l 494 736 l 490 731 l 525 581 b 361 86 461 247 388 86 b 347 136 353 86 346 99 b 408 581 350 225 383 401 l 463 731 l 463 736 l 364 736 l 360 731 l 392 581 b 236 265 346 514 275 388 b 151 86 199 146 169 86 b 140 114 144 86 140 93 b 331 736 140 226 271 583 l 128 736 z "},"ŵ":{"ha":517,"x_min":0,"x_max":0,"o":"m 524 808 l 529 815 b 438 996 514 835 464 933 l 433 996 b 272 815 385 933 296 835 l 275 808 l 408 853 z m 68 579 l 254 579 b -42 88 153 489 -42 251 b 38 -15 -42 28 -15 -15 b 211 150 89 -15 154 24 b 208 108 210 136 208 122 b 278 -15 208 44 228 -15 b 542 581 349 -15 450 111 l 593 731 l 593 736 l 494 736 l 490 731 l 525 581 b 361 86 461 247 388 86 b 347 136 353 86 346 99 b 408 581 350 225 383 401 l 463 731 l 463 736 l 364 736 l 360 731 l 392 581 b 236 265 346 514 275 388 b 151 86 199 146 169 86 b 140 114 144 86 140 93 b 331 736 140 226 271 583 l 128 736 z "},"ẁ":{"ha":517,"x_min":0,"x_max":0,"o":"m 325 996 l 324 996 l 283 861 l 499 808 l 501 815 b 325 996 465 843 375 935 z m 68 579 l 254 579 b -42 88 153 489 -42 251 b 38 -15 -42 28 -15 -15 b 211 150 89 -15 154 24 b 208 108 210 136 208 122 b 278 -15 208 44 228 -15 b 542 581 349 -15 450 111 l 593 731 l 593 736 l 494 736 l 490 731 l 525 581 b 361 86 461 247 388 86 b 347 136 353 86 346 99 b 408 581 350 225 383 401 l 463 731 l 463 736 l 364 736 l 360 731 l 392 581 b 236 265 346 514 275 388 b 151 86 199 146 169 86 b 140 114 144 86 140 93 b 331 736 140 226 271 583 l 128 736 z "},"ẃ":{"ha":517,"x_min":0,"x_max":0,"o":"m 500 996 b 324 815 450 935 360 843 l 326 808 l 542 861 l 501 996 z m 68 579 l 254 579 b -42 88 153 489 -42 251 b 38 -15 -42 28 -15 -15 b 211 150 89 -15 154 24 b 208 108 210 136 208 122 b 278 -15 208 44 228 -15 b 542 581 349 -15 450 111 l 593 731 l 593 736 l 494 736 l 490 731 l 525 581 b 361 86 461 247 388 86 b 347 136 353 86 346 99 b 408 581 350 225 383 401 l 463 731 l 463 736 l 364 736 l 360 731 l 392 581 b 236 265 346 514 275 388 b 151 86 199 146 169 86 b 140 114 144 86 140 93 b 331 736 140 226 271 583 l 128 736 z "},"ẅ":{"ha":517,"x_min":0,"x_max":0,"o":"m 319 810 b 404 894 369 810 404 846 b 319 976 404 942 369 976 b 238 894 274 976 238 942 b 319 810 238 846 274 810 z m 511 810 b 596 894 561 810 596 846 b 511 976 596 942 561 976 b 429 894 465 976 429 942 b 511 810 429 846 465 810 z m 68 579 l 254 579 b -42 88 153 489 -42 251 b 38 -15 -42 28 -15 -15 b 211 150 89 -15 154 24 b 208 108 210 136 208 122 b 278 -15 208 44 228 -15 b 542 581 349 -15 450 111 l 593 731 l 593 736 l 494 736 l 490 731 l 525 581 b 361 86 461 247 388 86 b 347 136 353 86 346 99 b 408 581 350 225 383 401 l 463 731 l 463 736 l 364 736 l 360 731 l 392 581 b 236 265 346 514 275 388 b 151 86 199 146 169 86 b 140 114 144 86 140 93 b 331 736 140 226 271 583 l 128 736 z "},"x":{"ha":415,"x_min":0,"x_max":0,"o":"m 39 247 b -53 -15 -71 96 -104 -15 b 85 182 -10 -15 38 57 l 110 247 l 101 146 b 213 -15 93 39 142 -15 b 332 174 294 -15 339 58 l 325 175 b 288 76 321 111 304 76 b 271 165 272 76 267 114 l 296 475 l 326 542 b 368 585 343 579 358 585 b 356 490 388 585 383 551 l 363 486 b 454 749 472 638 506 749 b 317 551 411 749 371 674 l 300 513 l 306 588 b 194 749 314 694 265 749 b 75 560 113 749 68 675 l 82 558 b 119 657 86 622 104 657 b 136 568 135 657 140 619 l 113 289 l 75 192 b 33 149 60 154 43 149 b 46 243 14 149 18 182 z "},"y":{"ha":354,"x_min":0,"x_max":0,"o":"m 96 485 l 57 -125 b -157 -214 -28 -204 -108 -214 b -265 -189 -208 -214 -251 -199 l -269 -189 l -312 -337 b -250 -347 -307 -340 -281 -347 b 151 -18 -143 -347 7 -257 b 367 539 218 88 299 288 l 429 731 l 431 736 l 314 736 l 311 731 l 353 543 b 231 165 314 396 271 268 l 253 469 b 260 621 257 539 261 594 b 146 749 256 685 182 749 b 46 576 110 749 74 681 l 53 575 b 99 665 76 632 92 665 b 96 485 106 665 104 615 z "},"ý":{"ha":354,"x_min":0,"x_max":0,"o":"m 379 996 b 203 815 329 935 239 843 l 206 808 l 421 861 l 381 996 z m 96 485 l 57 -125 b -157 -214 -28 -204 -108 -214 b -265 -189 -208 -214 -251 -199 l -269 -189 l -312 -337 b -250 -347 -307 -340 -281 -347 b 151 -18 -143 -347 7 -257 b 367 539 218 88 299 288 l 429 731 l 431 736 l 314 736 l 311 731 l 353 543 b 231 165 314 396 271 268 l 253 469 b 260 621 257 539 261 594 b 146 749 256 685 182 749 b 46 576 110 749 74 681 l 53 575 b 99 665 76 632 92 665 b 96 485 106 665 104 615 z "},"ÿ":{"ha":354,"x_min":0,"x_max":0,"o":"m 197 810 b 282 894 247 810 282 846 b 197 976 282 942 247 976 b 115 894 151 976 115 942 b 197 810 115 846 151 810 z m 389 810 b 474 894 439 810 474 846 b 389 976 474 942 439 976 b 307 894 343 976 307 942 b 389 810 307 846 343 810 z m 96 485 l 57 -125 b -157 -214 -28 -204 -108 -214 b -265 -189 -208 -214 -251 -199 l -269 -189 l -312 -337 b -250 -347 -307 -340 -281 -347 b 151 -18 -143 -347 7 -257 b 367 539 218 88 299 288 l 429 731 l 431 736 l 314 736 l 311 731 l 353 543 b 231 165 314 396 271 268 l 253 469 b 260 621 257 539 261 594 b 146 749 256 685 182 749 b 46 576 110 749 74 681 l 53 575 b 99 665 76 632 92 665 b 96 485 106 665 104 615 z "},"ŷ":{"ha":354,"x_min":0,"x_max":0,"o":"m 403 808 l 408 815 b 317 996 393 835 343 933 l 313 996 b 151 815 264 933 175 835 l 154 808 l 288 853 z m 96 485 l 57 -125 b -157 -214 -28 -204 -108 -214 b -265 -189 -208 -214 -251 -199 l -269 -189 l -312 -337 b -250 -347 -307 -340 -281 -347 b 151 -18 -143 -347 7 -257 b 367 539 218 88 299 288 l 429 731 l 431 736 l 314 736 l 311 731 l 353 543 b 231 165 314 396 271 268 l 253 469 b 260 621 257 539 261 594 b 146 749 256 685 182 749 b 46 576 110 749 74 681 l 53 575 b 99 665 76 632 92 665 b 96 485 106 665 104 615 z "},"ỳ":{"ha":354,"x_min":0,"x_max":0,"o":"m 210 996 l 208 996 l 168 861 l 383 808 l 386 815 b 210 996 350 843 260 935 z m 96 485 l 57 -125 b -157 -214 -28 -204 -108 -214 b -265 -189 -208 -214 -251 -199 l -269 -189 l -312 -337 b -250 -347 -307 -340 -281 -347 b 151 -18 -143 -347 7 -257 b 367 539 218 88 299 288 l 429 731 l 431 736 l 314 736 l 311 731 l 353 543 b 231 165 314 396 271 268 l 253 469 b 260 621 257 539 261 594 b 146 749 256 685 182 749 b 46 576 110 749 74 681 l 53 575 b 99 665 76 632 92 665 b 96 485 106 665 104 615 z "},"z":{"ha":356,"x_min":0,"x_max":0,"o":"m 349 731 l 349 639 b 336 621 349 628 343 621 b 196 749 300 621 249 749 b 53 532 164 749 96 628 l 57 529 b 114 574 88 564 100 574 b 247 511 136 574 206 511 b 265 515 253 511 258 513 l -19 117 l -104 3 l -104 -3 l -1 -3 l 0 3 l -19 93 b -4 113 -22 106 -14 113 b 181 -15 44 113 117 -15 b 318 215 215 -15 294 165 l 313 219 b 249 160 300 199 263 160 b 99 222 219 160 142 222 b 57 201 88 222 75 218 l 356 621 l 438 731 l 439 736 l 351 736 z "},"ź":{"ha":356,"x_min":0,"x_max":0,"o":"m 372 996 b 196 815 322 935 232 843 l 199 808 l 414 861 l 374 996 z m 349 731 l 349 639 b 336 621 349 628 343 621 b 196 749 300 621 249 749 b 53 532 164 749 96 628 l 57 529 b 114 574 88 564 100 574 b 247 511 136 574 206 511 b 265 515 253 511 258 513 l -19 117 l -104 3 l -104 -3 l -1 -3 l 0 3 l -19 93 b -4 113 -22 106 -14 113 b 181 -15 44 113 117 -15 b 318 215 215 -15 294 165 l 313 219 b 249 160 300 199 263 160 b 99 222 219 160 142 222 b 57 201 88 222 75 218 l 356 621 l 438 731 l 439 736 l 351 736 z "},"ż":{"ha":356,"x_min":0,"x_max":0,"o":"m 290 810 b 382 903 342 810 382 851 b 290 994 382 953 342 994 b 199 903 239 994 199 953 b 290 810 199 851 239 810 z m 349 731 l 349 639 b 336 621 349 628 343 621 b 196 749 300 621 249 749 b 53 532 164 749 96 628 l 57 529 b 114 574 88 564 100 574 b 247 511 136 574 206 511 b 265 515 253 511 258 513 l -19 117 l -104 3 l -104 -3 l -1 -3 l 0 3 l -19 93 b -4 113 -22 106 -14 113 b 181 -15 44 113 117 -15 b 318 215 215 -15 294 165 l 313 219 b 249 160 300 199 263 160 b 99 222 219 160 142 222 b 57 201 88 222 75 218 l 356 621 l 438 731 l 439 736 l 351 736 z "},"ž":{"ha":356,"x_min":0,"x_max":0,"o":"m 175 1003 l 169 996 b 261 815 185 976 235 878 l 265 815 b 426 996 314 878 403 976 l 424 1003 l 290 958 z m 349 731 l 349 639 b 336 621 349 628 343 621 b 196 749 300 621 249 749 b 53 532 164 749 96 628 l 57 529 b 114 574 88 564 100 574 b 247 511 136 574 206 511 b 265 515 253 511 258 513 l -19 117 l -104 3 l -104 -3 l -1 -3 l 0 3 l -19 93 b -4 113 -22 106 -14 113 b 181 -15 44 113 117 -15 b 318 215 215 -15 294 165 l 313 219 b 249 160 300 199 263 160 b 99 222 219 160 142 222 b 57 201 88 222 75 218 l 356 621 l 438 731 l 439 736 l 351 736 z "},"ß":{"ha":497,"x_min":0,"x_max":0,"o":"m 72 725 l 118 725 l -96 -278 l 82 -278 l 350 1003 b 429 1135 374 1115 407 1135 b 474 1050 460 1135 474 1100 b 279 497 474 814 279 717 b 333 129 279 379 333 274 b 288 0 333 40 307 0 b 217 188 263 0 239 63 l 211 188 l 171 0 b 251 -15 190 -8 221 -15 b 461 293 383 -15 461 131 b 376 708 461 476 376 619 b 560 1039 376 832 560 917 b 419 1146 560 1103 506 1146 b 154 897 288 1146 186 1047 l 119 736 l 74 731 z "},"æ":{"ha":610,"x_min":0,"x_max":0,"o":"m 207 175 b 340 -15 207 60 258 -15 b 556 207 442 -15 507 97 l 550 211 b 451 128 522 163 486 128 b 392 240 417 128 392 163 b 408 379 392 282 399 331 b 658 653 581 421 658 558 b 586 749 658 710 633 749 b 513 724 564 749 539 740 l 524 753 l 517 757 l 447 735 b 329 749 407 742 354 749 b -42 135 228 749 -42 363 b 51 -15 -42 43 1 -15 b 217 281 96 -15 150 93 l 218 285 b 207 175 211 247 207 210 z m 129 140 b 328 735 129 281 300 735 b 351 707 329 735 342 722 l 203 289 b 133 124 163 176 138 124 b 129 140 131 124 129 128 z m 547 733 b 554 717 553 733 554 725 b 410 389 554 668 506 451 b 547 733 447 556 525 733 z "},"ǽ":{"ha":610,"x_min":0,"x_max":0,"o":"m 590 996 b 414 815 540 935 450 843 l 417 808 l 632 861 l 592 996 z m 207 175 b 340 -15 207 60 258 -15 b 556 207 442 -15 507 97 l 550 211 b 451 128 522 163 486 128 b 392 240 417 128 392 163 b 408 379 392 282 399 331 b 658 653 581 421 658 558 b 586 749 658 710 633 749 b 513 724 564 749 539 740 l 524 753 l 517 757 l 447 735 b 329 749 407 742 354 749 b -42 135 228 749 -42 363 b 51 -15 -42 43 1 -15 b 217 281 96 -15 150 93 l 218 285 b 207 175 211 247 207 210 z m 129 140 b 328 735 129 281 300 735 b 351 707 329 735 342 722 l 203 289 b 133 124 163 176 138 124 b 129 140 131 124 129 128 z m 547 733 b 554 717 553 733 554 725 b 410 389 554 668 506 451 b 547 733 447 556 525 733 z "},"ð":{"ha":454,"x_min":0,"x_max":0,"o":"m 454 543 b 304 982 454 738 385 879 l 388 1028 l 383 1038 l 297 990 b 149 1139 247 1053 193 1101 l 143 1132 b 240 960 182 1086 214 1025 l 125 896 l 129 886 l 244 949 b 299 744 269 883 288 813 b 283 749 293 747 289 749 b 0 261 179 749 0 500 b 132 -15 0 146 43 -15 b 454 543 254 -15 454 235 z m 139 0 b 132 26 135 0 132 7 b 294 733 132 154 258 733 b 301 707 299 733 301 726 b 139 0 301 579 175 0 z "},"ø":{"ha":433,"x_min":0,"x_max":0,"o":"m 90 -83 l 111 -12 b 132 -15 118 -14 125 -15 b 433 474 254 -15 433 233 b 336 740 433 572 401 704 l 360 819 l 343 819 l 321 746 b 301 749 315 747 308 749 b 0 261 179 749 0 500 b 97 -6 0 163 32 29 l 74 -83 z m 294 733 b 301 707 299 733 301 726 b 300 674 301 699 301 688 l 149 167 b 294 733 183 382 267 733 z m 139 0 b 132 26 135 0 132 7 b 135 64 132 36 133 49 l 286 572 b 139 0 251 357 167 0 z "},"ǿ":{"ha":433,"x_min":0,"x_max":0,"o":"m 419 996 b 243 815 369 935 279 843 l 246 808 l 461 861 l 421 996 z m 90 -83 l 111 -12 b 132 -15 118 -14 125 -15 b 433 474 254 -15 433 233 b 336 740 433 572 401 704 l 360 819 l 343 819 l 321 746 b 301 749 315 747 308 749 b 0 261 179 749 0 500 b 97 -6 0 163 32 29 l 74 -83 z m 294 733 b 301 707 299 733 301 726 b 300 674 301 699 301 688 l 149 167 b 294 733 183 382 267 733 z m 139 0 b 132 26 135 0 132 7 b 135 64 132 36 133 49 l 286 572 b 139 0 251 357 167 0 z "},"þ":{"ha":425,"x_min":0,"x_max":0,"o":"m 22 -339 l 32 -236 l 90 -14 b 125 -15 104 -14 115 -15 b 453 569 258 -15 453 356 b 290 747 453 672 407 740 l 376 1079 l 393 1139 l 197 1111 l 194 1025 l 114 719 b 72 701 100 714 86 708 l 76 693 b 110 706 86 697 97 701 l -140 -236 l -183 -339 l -183 -347 l 22 -347 z m 300 611 b 126 -1 294 449 156 -1 b 103 36 122 -1 113 7 l 276 700 b 300 611 292 683 301 656 z "},"đ":{"ha":494,"x_min":0,"x_max":0,"o":"m 218 117 b 332 -15 218 53 286 -15 b 442 167 372 -15 413 74 l 435 168 b 385 74 414 111 390 74 b 379 83 382 74 379 76 b 436 349 379 126 407 233 l 583 921 l 647 921 l 649 931 l 586 931 l 625 1081 l 640 1140 l 444 1113 l 442 1026 l 417 931 l 278 931 l 276 921 l 414 921 l 368 746 b 329 749 353 747 339 749 b -42 154 228 749 -42 363 b 83 -15 -42 43 13 -15 b 229 281 119 -15 165 93 l 310 518 l 265 349 b 218 117 239 236 218 167 z m 132 108 b 328 735 132 204 300 735 b 353 693 332 735 342 724 l 217 290 b 138 94 169 150 146 94 b 132 108 133 94 132 99 z "},"ħ":{"ha":474,"x_min":0,"x_max":0,"o":"m 190 118 b 304 -14 190 54 260 -14 b 414 168 344 -14 390 75 l 407 169 b 357 75 386 113 364 75 b 351 85 354 75 351 78 b 513 619 351 142 513 546 b 378 751 513 672 456 751 b 175 263 347 751 285 572 l 144 178 l 338 921 l 483 921 l 485 931 l 340 931 l 379 1081 l 396 1140 l 200 1113 l 197 1026 l 172 931 l 114 931 l 113 921 l 169 921 l -39 113 l -81 10 l -82 1 l 100 1 l 186 250 b 324 613 281 522 311 613 b 332 599 326 613 332 604 b 190 118 332 529 190 167 z "},"ı":{"ha":254,"x_min":0,"x_max":0,"o":"m 89 -15 b 199 167 129 -15 175 74 l 192 168 b 142 74 171 111 149 74 b 136 83 139 74 136 76 b 265 596 136 176 265 526 b 168 749 265 671 204 749 b 57 576 124 749 83 679 l 64 575 b 111 665 90 651 104 665 b 114 658 113 665 114 664 b -25 117 114 606 -25 197 b 89 -15 -25 53 43 -15 z "},"ĳ":{"ha":489,"x_min":0,"x_max":0,"o":"m 260 810 b 351 903 311 810 351 851 b 260 994 351 953 311 994 b 168 903 208 994 168 953 b 260 810 168 851 208 810 z m 503 810 b 594 903 554 810 594 851 b 503 994 594 953 554 994 b 411 903 451 994 411 953 b 503 810 411 851 451 810 z m 89 -15 b 199 167 129 -15 175 74 l 192 168 b 142 74 171 111 149 74 b 136 83 139 74 136 76 b 265 596 136 176 265 526 b 168 749 265 671 204 749 b 57 576 124 749 83 679 l 64 575 b 111 665 90 651 104 665 b 114 658 113 665 114 664 b -25 117 114 606 -25 197 b 89 -15 -25 53 43 -15 z m 335 -99 l 471 403 b 508 596 493 500 508 572 b 408 749 508 671 442 749 b 297 576 364 749 324 679 l 304 575 b 351 665 331 651 344 665 b 354 658 353 665 354 664 b 304 422 354 636 332 528 l 189 -3 b 196 -278 153 -137 196 -228 b 164 -315 196 -303 185 -315 b 63 -190 131 -315 86 -257 l 57 -190 l 26 -337 b 82 -347 36 -342 53 -347 b 335 -99 206 -347 294 -249 z "},"ŀ":{"ha":394,"x_min":0,"x_max":0,"o":"m 129 83 b 186 347 129 126 157 231 l 376 1079 l 393 1139 l 197 1111 l 194 1025 l 15 347 b -32 117 -8 260 -32 167 b 82 -15 -32 53 36 -15 b 192 167 122 -15 163 74 l 185 168 b 135 74 164 111 140 74 b 129 83 132 74 129 76 z m 342 418 b 435 513 393 418 435 460 b 342 604 435 563 393 604 b 249 513 292 604 249 563 b 342 418 249 460 292 418 z "},"ł":{"ha":261,"x_min":0,"x_max":0,"o":"m 136 83 b 193 347 136 126 164 231 l 275 661 l 333 711 l 339 736 l 282 688 l 383 1079 l 400 1139 l 204 1111 l 201 1025 l 63 501 l -1 447 l -7 422 l 56 476 l 22 347 b -25 117 -1 260 -25 167 b 89 -15 -25 53 43 -15 b 199 167 129 -15 169 74 l 192 168 b 142 74 171 111 147 74 b 136 83 139 74 136 76 z "},"ŉ":{"ha":576,"x_min":0,"x_max":0,"o":"m 178 1057 b 81 771 163 985 107 826 l 88 767 b 268 963 147 817 225 904 l 179 1057 z m 293 117 b 407 -15 293 53 363 -15 b 517 167 447 -15 493 74 l 510 168 b 460 74 489 111 467 74 b 454 83 457 74 454 76 b 615 618 454 140 615 544 b 481 750 615 671 558 750 b 278 261 450 750 388 571 l 253 192 b 357 607 314 419 357 560 b 260 749 357 665 296 749 b 149 576 215 749 175 679 l 156 575 b 203 665 182 651 196 665 b 206 658 204 665 206 664 b 64 111 206 622 158 474 l 24 8 l 22 0 l 203 0 l 289 249 b 426 611 383 521 414 611 b 435 597 429 611 435 603 b 293 117 435 528 293 165 z "},"ŋ":{"ha":476,"x_min":0,"x_max":0,"o":"m 304 -99 b 518 618 474 464 518 582 b 383 750 518 671 461 750 b 181 261 353 750 290 571 l 156 192 b 260 607 217 419 260 560 b 163 749 260 665 199 749 b 51 576 118 749 78 679 l 58 575 b 106 665 85 651 99 665 b 108 658 107 665 108 664 b -33 111 108 622 61 474 l -74 8 l -75 0 l 106 0 l 192 249 b 329 611 286 521 317 611 b 338 597 332 611 338 603 b 161 -3 338 560 293 438 b 161 -278 121 -137 163 -228 b 128 -315 160 -303 149 -315 b 29 -190 94 -315 51 -257 l 24 -190 l -11 -337 b 44 -347 -1 -342 15 -347 b 304 -99 168 -347 260 -249 z "},"œ":{"ha":621,"x_min":0,"x_max":0,"o":"m 561 211 b 463 128 533 163 497 128 b 403 231 428 128 403 163 b 421 379 403 275 410 326 b 669 653 592 421 669 558 b 597 749 669 710 644 749 b 399 607 540 749 465 692 b 301 749 385 685 353 749 b 0 261 179 749 0 500 b 132 -15 0 146 43 -15 b 250 65 168 -15 210 15 b 357 -15 271 15 307 -15 b 567 207 453 -15 518 97 z m 139 0 b 132 26 135 0 132 7 b 294 733 132 154 258 733 b 301 707 299 733 301 726 b 139 0 301 579 175 0 z m 558 733 b 565 715 564 733 565 725 b 424 390 565 654 517 453 b 558 733 460 557 536 733 z "},"ŧ":{"ha":282,"x_min":0,"x_max":0,"o":"m 129 83 b 232 476 129 125 179 297 l 301 476 l 304 486 l 235 486 b 306 725 260 569 285 653 l 363 725 l 365 736 l 311 736 b 347 864 325 786 336 829 l 342 864 l 88 731 l 86 725 l 138 725 b 69 486 118 657 93 571 l 29 486 l 26 476 l 67 476 b -24 143 21 317 -24 163 b 83 -15 -24 69 43 -15 b 210 144 125 -15 168 56 l 204 149 b 135 76 174 106 144 76 b 129 83 132 76 129 78 z "},"ȷ":{"ha":249,"x_min":0,"x_max":0,"o":"m 94 -99 l 231 403 b 268 596 253 500 268 572 b 168 749 268 671 201 749 b 57 576 124 749 83 679 l 64 575 b 111 665 90 651 104 665 b 114 658 113 665 114 664 b 64 422 114 636 92 528 l -51 -3 b -44 -278 -87 -137 -44 -228 b -76 -315 -44 -303 -56 -315 b -178 -190 -110 -315 -154 -257 l -183 -190 l -214 -337 b -158 -347 -204 -342 -187 -347 b 94 -99 -35 -347 54 -249 z "},"ª":{"ha":328,"x_min":0,"x_max":0,"o":"m 321 625 b 397 889 321 665 385 857 l 460 1060 l 456 1063 l 403 1047 b 328 1057 378 1051 344 1057 b 61 658 253 1057 61 807 b 129 561 61 599 90 561 b 233 753 151 561 183 633 l 258 814 b 217 647 239 746 217 668 b 290 561 217 607 261 561 b 365 678 317 561 350 617 l 357 681 b 325 618 343 643 329 618 b 321 625 322 618 321 621 z m 172 665 b 322 1044 172 756 303 1044 b 333 1032 325 1044 329 1040 l 221 758 b 175 654 189 682 178 654 b 172 665 174 654 172 657 z "},"º":{"ha":285,"x_min":0,"x_max":0,"o":"m 368 879 b 282 1057 368 953 340 1057 b 86 740 203 1057 86 896 b 172 561 86 665 114 561 b 368 879 251 561 368 722 z m 176 575 b 172 592 174 575 172 579 b 278 1043 172 675 254 1043 b 282 1026 281 1043 282 1039 b 176 575 282 943 200 575 z "},"¹":{"ha":192,"x_min":0,"x_max":0,"o":"m 203 519 l 203 524 l 192 569 l 271 985 l 282 1042 l 271 1042 b 126 972 258 1004 199 972 l 124 960 b 158 961 135 960 147 960 l 81 569 l 56 524 l 56 519 z "},"²":{"ha":274,"x_min":0,"x_max":0,"o":"m 301 651 l 296 651 b 219 611 269 619 250 611 b 76 549 178 611 118 597 b 357 938 144 686 357 792 b 253 1042 357 1006 306 1042 b 164 1019 215 1042 174 1025 l 143 914 l 218 925 l 238 1029 b 260 974 249 1029 260 1025 b 56 519 260 807 118 750 l 64 519 b 106 531 75 528 89 531 b 215 518 133 531 178 518 b 265 525 239 518 256 522 z "},"³":{"ha":269,"x_min":0,"x_max":0,"o":"m 143 519 b 322 704 225 519 322 601 b 219 824 322 788 260 824 b 211 824 217 824 214 824 b 353 956 276 844 353 886 b 251 1042 353 1008 301 1042 b 157 1019 214 1042 171 1029 l 136 917 l 211 926 l 232 1031 b 256 989 243 1031 256 1025 b 179 822 256 901 218 839 l 164 815 l 163 804 l 169 807 b 190 813 176 810 183 813 b 218 733 204 813 218 810 b 138 532 218 618 188 532 l 132 532 l 156 649 l 81 638 l 63 544 b 143 519 71 539 104 519 z "},"¼":{"ha":347,"x_min":0,"x_max":0,"o":"m 283 572 l 283 575 l 272 617 l 344 990 l 354 1042 l 344 1042 b 214 979 333 1008 279 979 l 211 968 b 243 969 222 968 233 968 l 172 617 l 150 575 l 150 572 z m 43 524 l 364 524 l 367 535 l 46 535 z m 7 100 l 96 100 l 85 44 l 65 3 l 65 0 l 190 0 l 190 3 l 183 44 l 194 100 l 219 100 l 244 153 l 204 153 l 256 414 l 115 199 l 106 153 l 51 153 l 246 469 l 169 469 l 178 383 l 7 104 z "},"½":{"ha":347,"x_min":0,"x_max":0,"o":"m 283 572 l 283 575 l 272 617 l 344 990 l 354 1042 l 344 1042 b 214 979 333 1008 279 979 l 211 968 b 243 969 222 968 233 968 l 172 617 l 150 575 l 150 572 z m 43 524 l 364 524 l 367 535 l 46 535 z m 244 118 l 239 118 b 171 82 215 89 199 82 b 40 25 133 82 78 69 b 294 376 101 150 294 244 b 200 469 294 438 249 469 b 121 450 167 469 129 454 l 101 354 l 169 364 l 186 458 b 207 408 197 458 207 454 b 24 0 207 258 79 207 l 31 0 b 68 10 40 7 53 10 b 167 -1 93 10 133 -1 b 211 4 188 -1 203 1 z "},"¾":{"ha":347,"x_min":0,"x_max":0,"o":"m 203 572 b 364 738 276 572 364 646 b 272 846 364 813 308 846 b 265 846 269 846 267 846 b 392 964 324 865 392 903 b 300 1042 392 1011 346 1042 b 215 1022 267 1042 228 1031 l 197 929 l 264 938 l 283 1032 b 304 994 293 1032 304 1026 b 236 844 304 915 271 860 l 222 838 l 221 828 l 226 831 b 246 836 233 833 239 836 b 271 764 258 836 271 833 b 199 583 271 661 243 583 l 193 583 l 214 688 l 147 678 l 131 594 b 203 572 138 589 168 572 z m 43 524 l 364 524 l 367 535 l 46 535 z m 7 100 l 96 100 l 85 44 l 65 3 l 65 0 l 190 0 l 190 3 l 183 44 l 194 100 l 219 100 l 244 153 l 204 153 l 256 414 l 115 199 l 106 153 l 51 153 l 246 469 l 169 469 l 178 383 l 7 104 z "},"⅓":{"ha":347,"x_min":0,"x_max":0,"o":"m 283 572 l 283 575 l 272 617 l 344 990 l 354 1042 l 344 1042 b 214 979 333 1008 279 979 l 211 968 b 243 969 222 968 233 968 l 172 617 l 150 575 l 150 572 z m 43 524 l 364 524 l 367 535 l 46 535 z m 101 0 b 263 165 175 0 263 74 b 171 274 263 240 207 274 b 164 274 168 274 165 274 b 290 392 222 293 290 331 b 199 469 290 439 244 469 b 114 450 165 469 126 458 l 96 357 l 163 365 l 182 460 b 203 422 192 460 203 454 b 135 272 203 343 169 288 l 121 265 l 119 256 l 125 258 b 144 264 132 261 138 264 b 169 192 157 264 169 261 b 97 11 169 89 142 11 l 92 11 l 113 115 l 46 106 l 29 22 b 101 0 36 17 67 0 z "},"⅔":{"ha":347,"x_min":0,"x_max":0,"o":"m 342 690 l 336 690 b 268 654 313 661 296 654 b 138 597 231 654 175 642 b 392 949 199 722 392 817 b 297 1042 392 1010 346 1042 b 218 1022 264 1042 226 1026 l 199 926 l 267 936 l 283 1031 b 304 981 294 1031 304 1026 b 121 572 304 831 176 779 l 128 572 b 165 582 138 579 150 582 b 264 571 190 582 231 571 b 308 576 285 571 300 574 z m 43 524 l 364 524 l 367 535 l 46 535 z m 29 22 b 101 0 36 17 67 0 b 263 165 175 0 263 74 b 171 274 263 240 207 274 b 164 274 168 274 165 274 b 290 392 222 293 290 331 b 199 469 290 439 244 469 b 114 450 165 469 126 458 l 96 357 l 163 365 l 182 460 b 203 422 192 460 203 454 b 135 272 203 343 169 288 l 121 265 l 119 256 l 125 258 b 144 264 132 261 138 264 b 169 192 157 264 169 261 b 97 11 169 89 142 11 l 92 11 l 113 115 l 46 106 z "},"_":{"ha":238,"x_min":0,"x_max":0,"o":"m -103 -72 l 172 -72 l 176 -56 l -99 -56 z "},"-":{"ha":264,"x_min":0,"x_max":0,"o":"m 44 419 l 229 419 l 268 542 l 83 542 z "},"–":{"ha":342,"x_min":0,"x_max":0,"o":"m 61 475 l 324 475 l 326 486 l 64 486 z "},"—":{"ha":579,"x_min":0,"x_max":0,"o":"m 61 475 l 561 475 l 564 486 l 64 486 z "},"(":{"ha":222,"x_min":0,"x_max":0,"o":"m 363 1071 l 353 1071 b -7 4 125 774 -7 336 b 1 -156 -7 -58 -3 -108 l 100 -156 b 93 0 96 -111 93 -62 b 363 1071 93 368 181 785 z "},")":{"ha":222,"x_min":0,"x_max":0,"o":"m -103 -156 l -93 -156 b 267 911 135 142 267 579 b 258 1071 267 974 263 1024 l 160 1071 b 167 915 164 1026 167 978 b -103 -156 167 547 79 131 z "},"[":{"ha":251,"x_min":0,"x_max":0,"o":"m -50 -153 l 135 -153 l 138 -142 l 50 -142 l 283 1060 l 371 1060 l 374 1071 l 188 1071 z "},"]":{"ha":251,"x_min":0,"x_max":0,"o":"m 339 1071 l 154 1071 l 151 1060 l 239 1060 l 6 -142 l -82 -142 l -85 -153 l 101 -153 z "},"{":{"ha":269,"x_min":0,"x_max":0,"o":"m 42 454 b 125 376 97 447 125 429 b -10 -10 125 258 -10 93 b 135 -157 -10 -74 46 -112 l 158 -35 b 6 21 56 -22 6 -12 b 206 354 6 83 206 251 b 65 458 206 403 161 449 l 65 460 b 254 610 182 489 254 547 b 139 843 254 689 139 772 b 350 951 139 894 218 926 l 374 1074 b 125 831 215 1007 125 922 b 174 632 125 760 174 713 b 42 463 174 556 129 468 z "},"}":{"ha":269,"x_min":0,"x_max":0,"o":"m 268 463 b 185 540 213 469 185 488 b 319 926 185 658 319 824 b 175 1074 319 990 264 1029 l 151 951 b 304 896 254 939 304 929 b 104 563 304 833 104 665 b 244 458 104 514 149 468 l 244 457 b 56 307 128 428 56 369 b 171 74 56 228 171 144 b -40 -35 171 22 92 -10 l -64 -157 b 185 86 94 -90 185 -6 b 136 285 185 157 136 204 b 268 454 136 361 181 449 z "},"#":{"ha":394,"x_min":0,"x_max":0,"o":"m 38 0 l 94 249 l 236 249 l 179 0 l 194 0 l 251 249 l 349 249 l 374 346 l 274 346 l 354 696 l 450 696 l 475 793 l 376 793 l 433 1042 l 418 1042 l 361 793 l 219 793 l 276 1042 l 261 1042 l 204 793 l 107 793 l 82 696 l 182 696 l 101 346 l 6 346 l -19 249 l 79 249 l 22 0 z m 117 346 l 197 696 l 339 696 l 258 346 z "},"%":{"ha":494,"x_min":0,"x_max":0,"o":"m 272 1057 b 82 721 199 1057 82 878 b 174 521 82 646 113 521 b 364 857 247 521 364 700 b 272 1057 364 932 333 1057 z m 269 1046 b 275 1032 274 1046 275 1042 b 176 532 275 950 203 532 b 171 546 172 532 171 536 b 269 1046 171 626 243 1046 z m 24 0 l 547 1042 l 531 1042 l 7 0 z m 382 536 b 192 200 308 536 192 357 b 283 0 192 125 222 0 b 474 336 357 0 474 179 b 382 536 474 411 443 536 z m 379 525 b 385 511 383 525 385 521 b 286 11 385 429 313 11 b 281 25 282 11 281 15 b 379 525 281 106 353 525 z "},"‰":{"ha":778,"x_min":0,"x_max":0,"o":"m 272 1057 b 82 721 199 1057 82 878 b 174 521 82 646 113 521 b 364 857 247 521 364 700 b 272 1057 364 932 333 1057 z m 269 1046 b 275 1032 274 1046 275 1042 b 176 532 275 950 203 532 b 171 546 172 532 171 536 b 269 1046 171 626 243 1046 z m 24 0 l 547 1042 l 531 1042 l 7 0 z m 665 536 b 475 200 592 536 475 357 b 567 0 475 125 506 0 b 757 336 640 0 757 179 b 665 536 757 411 726 536 z m 382 536 b 192 200 308 536 192 357 b 283 0 192 125 222 0 b 474 336 357 0 474 179 b 382 536 474 411 443 536 z m 663 525 b 668 511 667 525 668 521 b 569 11 668 429 596 11 b 564 25 565 11 564 15 b 663 525 564 106 636 525 z m 379 525 b 385 511 383 525 385 521 b 286 11 385 429 313 11 b 281 25 282 11 281 15 b 379 525 281 106 353 525 z "},"'":{"ha":129,"x_min":0,"x_max":0,"o":"m 106 746 l 115 746 l 261 1042 l 129 1042 z "},"\"":{"ha":278,"x_min":0,"x_max":0,"o":"m 106 746 l 115 746 l 261 1042 l 129 1042 z m 254 746 l 264 746 l 410 1042 l 278 1042 z "},"‘":{"ha":149,"x_min":0,"x_max":0,"o":"m 186 781 b 283 1067 201 853 257 1011 l 276 1071 b 96 875 217 1021 139 933 l 185 781 z "},"’":{"ha":149,"x_min":0,"x_max":0,"o":"m 178 1057 b 81 771 163 985 107 826 l 88 767 b 268 963 147 817 225 904 l 179 1057 z "},"“":{"ha":290,"x_min":0,"x_max":0,"o":"m 319 781 b 417 1067 335 853 390 1011 l 410 1071 b 229 875 350 1021 272 933 l 318 781 z m 179 781 b 276 1067 194 853 250 1011 l 269 1071 b 89 875 210 1021 132 933 l 178 781 z "},"”":{"ha":290,"x_min":0,"x_max":0,"o":"m 178 1057 b 81 771 163 985 107 826 l 88 767 b 268 963 147 817 225 904 l 179 1057 z m 318 1057 b 221 771 303 985 247 826 l 228 767 b 408 963 288 817 365 904 l 319 1057 z "},"‚":{"ha":149,"x_min":0,"x_max":0,"o":"m 6 182 b -92 -104 -10 110 -65 -49 l -85 -108 b 96 88 -25 -58 53 29 l 7 182 z "},"„":{"ha":289,"x_min":0,"x_max":0,"o":"m 7 182 b -90 -104 -8 110 -64 -49 l -83 -108 b 97 88 -24 -58 54 29 l 8 182 z m 147 182 b 50 -104 132 110 76 -49 l 57 -108 b 238 88 117 -58 194 29 l 149 182 z "},"‹":{"ha":250,"x_min":0,"x_max":0,"o":"m 293 625 l 165 625 l 22 410 l 67 194 l 196 194 l 38 410 z "},"›":{"ha":250,"x_min":0,"x_max":0,"o":"m -26 194 l 101 194 l 244 410 l 200 625 l 71 625 l 229 410 z "},"«":{"ha":410,"x_min":0,"x_max":0,"o":"m 293 625 l 165 625 l 22 410 l 67 194 l 196 194 l 38 410 z m 453 625 l 325 625 l 182 410 l 226 194 l 356 194 l 197 410 z "},"»":{"ha":410,"x_min":0,"x_max":0,"o":"m 133 194 l 261 194 l 404 410 l 360 625 l 231 625 l 389 410 z m -26 194 l 101 194 l 244 410 l 200 625 l 71 625 l 229 410 z "},"*":{"ha":328,"x_min":0,"x_max":0,"o":"m 264 681 l 265 682 l 264 853 b 324 725 275 825 303 756 l 407 778 l 408 781 l 272 860 b 411 857 301 857 375 849 l 410 958 l 410 960 l 269 869 b 349 994 288 894 335 958 l 260 1046 l 258 1044 l 260 874 b 200 1001 249 901 221 971 l 117 949 l 115 946 l 254 867 b 113 869 228 869 151 878 l 114 768 l 114 767 l 254 857 b 175 732 236 832 189 768 z "},"†":{"ha":356,"x_min":0,"x_max":0,"o":"m 61 13 l 193 -14 l 196 -12 l 251 735 b 408 672 275 722 360 683 l 449 803 l 447 806 l 254 744 b 371 1028 271 779 344 942 l 239 1056 l 238 1053 l 244 747 b 90 821 219 761 136 807 l 49 690 l 51 688 l 243 738 b 61 13 225 672 110 235 z "},"‡":{"ha":356,"x_min":0,"x_max":0,"o":"m 8 369 l -32 239 l -29 236 l 163 297 b 47 14 146 261 74 99 l 178 -14 l 179 -11 l 174 294 b 328 221 199 281 281 235 l 368 351 l 367 354 l 176 306 b 264 513 199 349 232 435 l 250 733 b 407 672 275 722 358 683 l 447 803 l 446 806 l 253 744 b 369 1028 269 779 343 942 l 238 1056 l 236 1053 l 243 747 b 89 821 218 761 135 807 l 47 690 l 50 688 l 240 736 b 151 526 219 694 186 606 l 165 308 b 8 369 140 319 57 358 z "},".":{"ha":204,"x_min":0,"x_max":0,"o":"m 46 -7 b 139 88 97 -7 139 35 b 46 179 139 138 97 179 b -47 88 -4 179 -47 138 b 46 -7 -47 35 -4 -7 z "},",":{"ha":204,"x_min":0,"x_max":0,"o":"m -4 167 b -90 -236 -11 75 -58 -149 l -86 -239 b 132 108 -25 -157 89 24 l -3 167 z "},":":{"ha":204,"x_min":0,"x_max":0,"o":"m 139 479 b 232 574 190 479 232 521 b 139 665 232 624 190 665 b 46 574 89 665 46 624 b 139 479 46 521 89 479 z m 46 -7 b 139 88 97 -7 139 35 b 46 179 139 138 97 179 b -47 88 -4 179 -47 138 b 46 -7 -47 35 -4 -7 z "},";":{"ha":204,"x_min":0,"x_max":0,"o":"m 139 479 b 232 574 190 479 232 521 b 139 665 232 624 190 665 b 46 574 89 665 46 624 b 139 479 46 521 89 479 z m -4 167 b -90 -236 -11 75 -58 -149 l -86 -239 b 132 108 -25 -157 89 24 l -3 167 z "},"…":{"ha":772,"x_min":0,"x_max":0,"o":"m 46 -7 b 139 88 97 -7 139 35 b 46 179 139 138 97 179 b -47 88 -4 179 -47 138 b 46 -7 -47 35 -4 -7 z m 303 -7 b 396 88 354 -7 396 35 b 303 179 396 138 354 179 b 210 88 253 179 210 138 b 303 -7 210 35 253 -7 z m 558 -7 b 651 88 610 -7 651 35 b 558 179 651 138 610 179 b 465 88 508 179 465 138 b 558 -7 465 35 508 -7 z "},"!":{"ha":214,"x_min":0,"x_max":0,"o":"m 78 261 l 88 261 l 326 1042 l 156 1042 z m 53 -7 b 146 88 104 -7 146 35 b 53 179 146 138 104 179 b -39 88 3 179 -39 138 b 53 -7 -39 35 3 -7 z "},"¡":{"ha":214,"x_min":0,"x_max":0,"o":"m 165 749 b 72 654 114 749 72 707 b 165 563 72 604 114 563 b 257 654 215 563 257 604 b 165 749 257 707 215 749 z m 140 481 l 131 481 l -108 -300 l 63 -300 z "},"?":{"ha":308,"x_min":0,"x_max":0,"o":"m 190 1057 l 117 890 b 364 774 253 868 364 849 b 63 383 364 650 63 525 b 208 240 63 332 101 274 l 211 244 b 157 340 172 267 157 303 b 385 817 157 504 385 640 b 190 1057 385 918 313 994 z m 99 -7 b 192 88 150 -7 192 35 b 99 179 192 138 150 179 b 7 88 49 179 7 138 b 99 -7 7 35 49 -7 z "},"¿":{"ha":308,"x_min":0,"x_max":0,"o":"m 224 749 b 131 654 172 749 131 707 b 224 563 131 604 172 563 b 315 654 274 563 315 604 b 224 749 315 707 274 749 z m 132 -315 l 206 -149 b -42 -32 69 -126 -42 -107 b 260 358 -42 92 260 217 b 114 501 260 410 221 468 l 111 497 b 165 401 150 475 165 439 b -62 -75 165 238 -62 101 b 132 -315 -62 -176 10 -253 z "},"/":{"ha":274,"x_min":0,"x_max":0,"o":"m -153 -236 l -137 -236 l 410 1085 l 394 1085 z "},"\\":{"ha":317,"x_min":0,"x_max":0,"o":"m 256 -236 l 151 1085 l 138 1085 l 242 -236 z "},"⁄":{"ha":157,"x_min":0,"x_max":0,"o":"m -135 0 l 392 1042 l 378 1042 l -149 0 z "},"|":{"ha":239,"x_min":0,"x_max":0,"o":"m 149 -236 l 165 -236 l 165 1085 l 149 1085 z "},"¦":{"ha":239,"x_min":0,"x_max":0,"o":"m 165 451 l 165 1085 l 149 1085 l 149 451 z m 149 -236 l 165 -236 l 165 397 l 149 397 z "},"@":{"ha":736,"x_min":0,"x_max":0,"o":"m 469 58 b 778 671 582 58 778 404 b 538 960 778 858 676 960 b -28 107 211 960 -28 439 b 247 -253 -28 -106 79 -253 b 535 -29 396 -253 490 -108 l 525 -24 b 256 -236 488 -90 389 -236 b 54 121 115 -236 54 -76 b 531 943 54 479 256 943 b 696 667 647 943 696 833 b 503 89 696 381 575 89 b 469 128 486 89 469 111 b 568 467 469 182 553 425 l 647 681 l 640 683 l 572 664 b 410 678 525 669 447 678 b 119 181 346 678 119 365 b 247 58 119 101 188 58 b 374 319 268 58 329 218 l 394 365 b 340 164 367 283 340 189 b 469 58 340 115 421 58 z m 257 139 b 408 665 257 265 383 665 b 485 606 414 665 454 632 l 367 332 b 265 111 329 244 274 111 b 257 139 260 111 257 119 z "},"&":{"ha":574,"x_min":0,"x_max":0,"o":"m 289 0 l 478 0 l 478 3 b 457 169 471 63 464 118 b 561 575 535 285 561 489 b 560 603 561 586 561 596 l 432 603 b 504 390 475 568 504 482 b 456 189 504 321 489 249 b 401 658 429 406 411 553 b 567 915 501 738 567 818 b 446 1057 567 986 531 1057 b 215 719 353 1057 215 968 b 226 550 215 682 218 631 b -7 215 68 489 -7 350 b 183 -15 -7 64 89 -15 b 286 19 218 -15 254 -4 b 289 0 288 13 288 7 z m 386 879 b 442 1046 386 994 396 1046 b 485 939 483 1046 485 1000 b 400 665 485 843 456 724 b 386 879 390 771 386 832 z m 249 19 b 149 233 189 19 149 93 b 226 543 149 354 178 476 b 285 29 238 433 256 272 b 249 19 274 22 261 19 z "},"§":{"ha":425,"x_min":0,"x_max":0,"o":"m 40 -132 b 247 147 156 -132 247 -39 b 228 294 247 196 239 244 b 424 576 325 306 424 401 b 382 931 424 692 382 815 b 432 1042 382 1014 414 1042 b 499 886 457 1042 474 990 l 503 886 l 543 1029 b 447 1057 535 1039 499 1057 b 233 819 353 1057 233 994 b 257 632 233 771 246 703 l 250 632 b 50 394 156 632 50 569 b 92 79 50 306 92 201 b 43 -117 92 -57 61 -117 b -32 60 22 -117 -6 -39 l -39 61 l -83 -89 b 40 -132 -64 -110 -15 -132 z m 199 500 b 242 617 199 589 217 617 b 260 610 247 617 254 615 b 275 458 268 557 275 504 b 226 308 275 368 263 308 l 225 308 b 199 500 213 371 199 433 z "},"¶":{"ha":388,"x_min":0,"x_max":0,"o":"m 176 0 l 190 0 l 393 1044 b 410 1046 399 1046 404 1046 b 438 1043 417 1046 426 1044 l 236 0 l 250 0 l 417 858 l 500 1042 l 500 1047 b 400 1057 471 1051 438 1057 b 71 699 200 1057 71 885 b 263 471 71 556 147 471 l 268 471 z m 225 561 b 249 751 225 603 232 664 b 378 1039 281 913 319 1014 l 271 485 b 254 483 264 483 257 483 b 225 561 238 483 225 504 z "},"·":{"ha":260,"x_min":0,"x_max":0,"o":"m 131 418 b 224 513 182 418 224 460 b 131 604 224 563 182 604 b 38 513 81 604 38 563 b 131 418 38 460 81 418 z "},"•":{"ha":257,"x_min":0,"x_max":0,"o":"m 153 356 b 278 482 221 356 278 413 b 153 604 278 547 221 604 b 28 482 85 604 28 547 b 153 356 28 413 85 356 z "},"′":{"ha":147,"x_min":0,"x_max":0,"o":"m 86 732 l 92 732 l 265 1042 l 146 1042 z "},"″":{"ha":281,"x_min":0,"x_max":0,"o":"m 86 732 l 92 732 l 265 1042 l 146 1042 z m 219 732 l 225 732 l 399 1042 l 279 1042 z "},"+":{"ha":400,"x_min":0,"x_max":0,"o":"m 236 315 l 236 504 l 401 504 l 401 515 l 236 515 l 236 704 l 222 704 l 222 515 l 57 515 l 57 504 l 222 504 l 222 315 z "},"−":{"ha":400,"x_min":0,"x_max":0,"o":"m 57 504 l 401 504 l 401 515 l 57 515 z "},"±":{"ha":400,"x_min":0,"x_max":0,"o":"m 235 436 l 235 625 l 400 625 l 400 636 l 235 636 l 235 825 l 221 825 l 221 636 l 56 636 l 56 625 l 221 625 l 221 436 z m 56 369 l 400 369 l 400 381 l 56 381 z "},"÷":{"ha":400,"x_min":0,"x_max":0,"o":"m 228 593 b 274 638 253 593 274 613 b 228 682 274 663 253 682 b 185 638 204 682 185 663 b 228 593 185 613 204 593 z m 57 504 l 401 504 l 401 515 l 57 515 z m 228 338 b 274 382 253 338 274 357 b 228 426 274 407 253 426 b 185 382 204 426 185 407 b 228 338 185 357 204 338 z "},"×":{"ha":356,"x_min":0,"x_max":0,"o":"m 57 368 l 65 360 l 207 501 l 349 360 l 357 368 l 215 510 l 357 651 l 349 660 l 207 518 l 65 660 l 57 651 l 199 510 z "},"=":{"ha":400,"x_min":0,"x_max":0,"o":"m 57 582 l 401 582 l 401 593 l 57 593 z m 57 426 l 401 426 l 401 438 l 57 438 z "},"<":{"ha":400,"x_min":0,"x_max":0,"o":"m 385 360 l 385 372 l 56 510 l 385 647 l 385 660 l 40 517 l 40 504 z "},">":{"ha":400,"x_min":0,"x_max":0,"o":"m 74 360 l 418 504 l 418 517 l 74 660 l 74 647 l 403 510 l 74 372 z "},"≤":{"ha":400,"x_min":0,"x_max":0,"o":"m 378 360 l 378 372 l 49 510 l 378 647 l 378 660 l 33 517 l 33 504 z m 33 249 l 378 249 l 378 260 l 33 260 z "},"≥":{"ha":400,"x_min":0,"x_max":0,"o":"m 58 360 l 403 504 l 403 517 l 58 660 l 58 647 l 388 510 l 58 372 z m 58 249 l 403 249 l 403 260 l 58 260 z "},"≠":{"ha":400,"x_min":0,"x_max":0,"o":"m 124 315 l 188 426 l 401 426 l 401 438 l 194 438 l 276 582 l 401 582 l 401 593 l 283 593 l 347 704 l 335 704 l 271 593 l 57 593 l 57 582 l 264 582 l 182 438 l 57 438 l 57 426 l 175 426 l 111 315 z "},"$":{"ha":401,"x_min":0,"x_max":0,"o":"m 93 0 b 61 4 82 0 72 1 l 106 239 l -17 217 l -50 46 b 92 -15 -33 19 13 -15 b 111 -14 99 -15 106 -15 l 90 -125 l 104 -125 l 126 -12 b 361 331 268 7 361 146 b 268 718 361 472 307 603 l 331 1040 b 351 1042 338 1042 344 1042 b 372 1040 358 1042 365 1042 l 332 832 l 456 854 l 485 1004 b 346 1057 465 1029 417 1057 l 333 1057 l 353 1154 l 339 1154 l 319 1056 b 100 765 218 1044 100 971 b 190 392 100 629 153 508 l 115 3 b 93 0 108 0 100 0 z m 226 903 b 317 1038 226 986 265 1026 l 258 744 b 226 903 240 801 226 854 z m 226 197 b 129 6 226 93 188 25 l 199 364 b 226 197 215 308 226 253 z "},"¢":{"ha":354,"x_min":0,"x_max":0,"o":"m 126 -125 l 140 -125 l 164 0 b 297 210 226 35 269 124 l 290 214 b 213 128 268 164 244 128 b 190 135 204 128 197 129 l 306 725 b 388 596 328 710 375 649 l 393 596 l 417 726 b 343 749 408 735 378 749 b 310 743 332 749 321 747 l 332 860 l 318 860 l 294 739 b -21 186 157 683 -21 419 b 108 -15 -21 56 35 -15 b 149 -7 122 -15 136 -12 z m 153 271 b 293 728 153 494 250 713 l 179 144 b 153 271 163 165 153 204 z "},"£":{"ha":447,"x_min":0,"x_max":0,"o":"m 325 11 l 415 207 l 414 208 b 253 128 349 138 301 128 b 197 129 233 128 213 129 b 57 65 150 129 114 108 b 260 425 181 188 235 306 l 400 425 l 404 436 l 263 436 b 274 508 267 460 271 485 l 417 508 l 421 519 l 275 519 b 307 908 289 649 282 776 b 411 1044 329 1019 361 1044 l 369 831 l 492 853 l 524 1015 b 407 1057 511 1029 469 1057 b 114 649 297 1057 114 975 b 122 519 114 604 118 561 l 56 519 l 51 508 l 124 508 b 132 436 126 483 129 460 l 39 436 l 35 425 l 133 425 b 140 314 138 386 140 350 b -21 8 140 201 110 104 l -17 0 b 68 19 11 14 40 19 b 251 -3 129 19 190 -3 b 325 11 276 -3 300 1 z "},"¥":{"ha":403,"x_min":0,"x_max":0,"o":"m 233 0 l 235 8 l 236 114 l 293 411 l 349 411 l 351 422 l 296 422 l 313 508 l 369 508 l 372 519 l 315 519 l 319 544 l 453 886 l 532 1033 l 533 1042 l 419 1042 l 418 1033 l 440 886 l 315 565 l 315 928 l 338 1033 l 339 1042 l 131 1042 l 129 1033 l 143 928 l 143 550 l 138 519 l 96 519 l 93 508 l 135 508 l 118 422 l 76 422 l 74 411 l 117 411 l 58 114 l 24 8 l 22 0 z "},"€":{"ha":481,"x_min":0,"x_max":0,"o":"m 249 -15 b 389 18 307 -15 369 7 l 429 225 l 307 203 l 267 -1 l 265 -1 b 214 115 225 -1 214 19 b 247 476 214 219 226 349 l 365 476 l 368 488 l 250 488 b 263 560 254 511 258 536 l 381 560 l 385 571 l 265 571 b 429 1024 306 774 365 960 b 471 1043 444 1039 454 1043 l 429 832 l 551 854 l 585 1017 b 475 1057 572 1032 533 1057 b 97 571 293 1057 157 819 l 47 571 l 43 560 l 94 560 b 79 488 89 536 83 511 l 31 488 l 28 476 l 78 476 b 63 300 68 415 63 356 b 249 -15 63 89 136 -15 z "},"^":{"ha":469,"x_min":0,"x_max":0,"o":"m 486 715 l 493 722 b 353 997 469 753 392 903 l 346 997 b 107 725 272 903 143 756 l 113 715 l 332 851 z "},"~":{"ha":479,"x_min":0,"x_max":0,"o":"m 374 435 b 474 583 397 435 451 529 l 471 585 b 410 544 444 551 432 544 b 178 585 381 544 214 585 b 78 436 154 585 100 490 l 81 435 b 142 475 107 468 119 475 b 374 435 171 475 338 435 z "},"´":{"ha":374,"x_min":0,"x_max":0,"o":"m 378 996 b 201 815 328 935 238 843 l 204 808 l 419 861 l 379 996 z "},"`":{"ha":374,"x_min":0,"x_max":0,"o":"m 243 996 l 242 996 l 201 861 l 417 808 l 419 815 b 243 996 383 843 293 935 z "},"˝":{"ha":374,"x_min":0,"x_max":0,"o":"m 260 1011 b 122 811 236 968 163 861 l 125 808 l 318 910 l 261 1011 z m 413 1011 b 275 811 389 968 315 861 l 278 808 l 471 910 l 414 1011 z "},"ˆ":{"ha":374,"x_min":0,"x_max":0,"o":"m 426 808 l 432 815 b 340 996 417 835 367 933 l 336 996 b 175 815 288 933 199 835 l 178 808 l 311 853 z "},"ˇ":{"ha":374,"x_min":0,"x_max":0,"o":"m 192 1003 l 186 996 b 278 815 201 976 251 878 l 282 815 b 443 996 331 878 419 976 l 440 1003 l 307 958 z "},"˘":{"ha":375,"x_min":0,"x_max":0,"o":"m 431 972 b 328 926 418 946 382 926 b 239 972 272 926 243 946 l 233 972 b 315 808 204 878 249 808 b 436 972 382 808 429 878 z "},"˜":{"ha":375,"x_min":0,"x_max":0,"o":"m 290 978 b 161 829 267 978 194 883 l 164 828 b 246 868 199 851 219 868 b 364 828 272 868 332 828 b 493 976 388 828 460 922 l 490 978 b 407 938 456 954 433 938 b 290 978 381 938 322 978 z "},"¯":{"ha":375,"x_min":0,"x_max":0,"o":"m 208 856 l 417 856 l 435 950 l 226 950 z "},"¨":{"ha":374,"x_min":0,"x_max":0,"o":"m 222 810 b 307 894 272 810 307 846 b 222 976 307 942 272 976 b 140 894 176 976 140 942 b 222 810 140 846 176 810 z m 414 810 b 499 894 464 810 499 846 b 414 976 499 942 464 976 b 332 894 368 976 332 942 b 414 810 332 846 368 810 z "},"˙":{"ha":374,"x_min":0,"x_max":0,"o":"m 321 810 b 413 903 372 810 413 851 b 321 994 413 953 372 994 b 229 903 269 994 229 953 b 321 810 229 851 269 810 z "},"˚":{"ha":375,"x_min":0,"x_max":0,"o":"m 325 814 b 432 918 386 814 432 863 b 325 1022 432 974 386 1022 b 218 918 264 1022 218 974 b 325 814 218 863 264 814 z m 325 824 b 292 918 300 824 292 867 b 325 1013 292 982 300 1013 b 358 918 350 1013 358 968 b 325 824 358 853 350 824 z "},"¸":{"ha":375,"x_min":0,"x_max":0,"o":"m 160 0 l 149 0 l 51 -133 l 57 -136 b 89 -194 69 -143 89 -158 b -1 -314 89 -250 43 -290 l 0 -319 b 203 -133 133 -282 203 -214 b 140 -28 203 -87 182 -53 z "},"˛":{"ha":375,"x_min":0,"x_max":0,"o":"m 217 14 b -17 -257 78 -61 -17 -161 b 65 -347 -17 -312 15 -347 b 218 -217 138 -347 183 -281 l 215 -215 b 149 -249 192 -239 169 -249 b 99 -193 119 -249 99 -229 b 224 14 99 -158 115 -62 z "},"©":{"ha":660,"x_min":0,"x_max":0,"o":"m 358 -15 b 674 521 561 -15 674 214 b 358 1057 674 828 561 1057 b 42 521 156 1057 42 828 b 358 -15 42 214 156 -15 z m 358 -4 b 56 521 163 -4 56 225 b 358 1046 56 817 163 1046 b 660 521 554 1046 660 817 b 358 -4 660 225 554 -4 z m 363 144 b 450 171 401 144 432 161 l 450 304 l 444 304 b 371 156 422 233 397 156 b 356 181 363 156 358 165 b 351 564 344 233 351 356 b 372 882 351 822 350 882 b 444 756 394 882 418 822 l 450 756 l 450 889 b 393 896 440 890 414 896 b 206 492 272 896 206 756 b 363 144 206 263 263 144 z "},"Ⓟ":{"ha":660,"x_min":0,"x_max":0,"o":"m 358 -15 b 674 521 561 -15 674 214 b 358 1057 674 828 561 1057 b 42 521 156 1057 42 828 b 358 -15 42 214 156 -15 z m 358 -4 b 56 521 163 -4 56 225 b 358 1046 56 817 163 1046 b 660 521 554 1046 660 817 b 358 -4 660 225 554 -4 z m 376 156 l 376 161 l 365 235 l 365 469 b 532 679 486 475 532 560 b 367 885 532 815 475 885 l 215 885 l 215 879 l 228 806 l 228 235 l 215 161 l 215 156 z m 367 874 b 392 668 386 874 392 803 b 365 481 392 517 378 481 l 365 874 z "},"®":{"ha":660,"x_min":0,"x_max":0,"o":"m 358 -15 b 674 521 561 -15 674 214 b 358 1057 674 828 561 1057 b 42 521 156 1057 42 828 b 358 -15 42 214 156 -15 z m 358 -4 b 56 521 163 -4 56 225 b 358 1046 56 817 163 1046 b 660 521 554 1046 660 817 b 358 -4 660 225 554 -4 z m 365 156 l 365 161 l 349 235 l 349 501 b 356 503 351 501 353 503 l 406 156 l 549 156 l 549 161 l 528 235 l 479 567 b 511 700 501 601 511 647 b 350 885 511 821 460 885 l 194 885 l 194 879 l 211 806 l 211 235 l 194 161 l 194 156 z m 350 874 b 375 688 369 874 375 808 b 361 513 375 546 369 513 b 349 518 357 513 353 514 l 349 874 z "},"™":{"ha":475,"x_min":0,"x_max":0,"o":"m 193 519 l 194 524 l 194 576 l 283 1036 l 289 1036 l 326 967 l 331 967 l 344 1042 l 128 1042 l 114 967 l 118 967 l 181 1036 l 186 1036 l 97 576 l 81 524 l 79 519 z m 389 728 l 478 932 l 410 576 l 390 524 l 390 519 l 507 519 l 507 576 l 588 986 l 607 1038 l 607 1042 l 515 1042 l 456 904 l 450 1042 l 364 1042 l 363 1038 l 360 986 l 285 604 l 261 524 l 261 519 l 322 519 l 322 524 l 296 604 l 360 936 l 369 728 z "},"°":{"ha":301,"x_min":0,"x_max":0,"o":"m 263 775 b 385 917 339 775 385 843 b 263 1057 385 990 339 1057 b 139 917 186 1057 139 990 b 263 775 139 843 186 775 z m 263 789 b 156 917 194 789 156 853 b 263 1043 156 981 194 1043 b 368 917 331 1043 368 981 b 263 789 368 853 331 789 z "},"Ģ":{"ha":482,"x_min":0,"x_max":0,"o":"m 217 -15 b 386 28 279 -15 358 10 l 475 471 l 507 576 l 508 585 l 311 586 l 310 578 l 313 472 l 219 -6 l 215 -6 b 179 135 192 -6 179 36 b 425 1042 179 492 347 1042 b 518 865 446 1042 469 1003 l 526 865 l 561 1044 b 471 1057 528 1053 497 1057 b 21 326 228 1057 21 664 b 217 -15 21 108 99 -15 z m 140 -56 b 92 -304 131 -131 111 -229 l 96 -306 l 265 -85 l 142 -56 z "},"Ķ":{"ha":493,"x_min":0,"x_max":0,"o":"m 158 0 l 160 8 l 160 114 l 244 543 l 246 0 l 439 0 l 440 8 l 413 114 l 411 785 l 456 853 l 599 1033 l 600 1042 l 463 1042 l 461 1033 l 442 853 l 247 554 l 246 554 l 319 928 l 354 1033 l 356 1042 l 143 1042 l 143 1033 l 142 928 l -17 114 l -53 8 l -54 0 z m 124 -56 b 75 -304 114 -131 94 -229 l 79 -306 l 249 -85 l 125 -56 z "},"Ļ":{"ha":400,"x_min":0,"x_max":0,"o":"m -54 0 l 318 0 l 343 131 l 333 131 l 154 11 l 142 11 l 319 928 l 354 1033 l 356 1042 l 143 1042 l 143 1033 l 142 928 l -17 114 l -53 8 z m 69 -56 b 21 -304 60 -131 40 -229 l 25 -306 l 194 -85 l 71 -56 z "},"Ņ":{"ha":408,"x_min":0,"x_max":0,"o":"m 231 0 l 301 0 l 468 874 l 522 1033 l 524 1042 l 408 1042 l 407 1033 l 456 874 l 365 403 l 317 1042 l 133 1042 l 132 1033 l 140 914 l -4 168 l -53 8 l -54 0 l 61 0 l 63 8 l 10 168 l 158 939 z m 69 -56 b 21 -304 60 -131 40 -229 l 25 -306 l 194 -85 l 71 -56 z "},"Ŗ":{"ha":506,"x_min":0,"x_max":0,"o":"m 158 0 l 160 8 l 160 114 l 232 488 b 250 489 239 489 244 489 l 250 0 l 435 0 l 436 8 l 417 114 l 414 564 b 533 821 488 628 533 725 b 342 1042 533 935 465 1042 l 143 1042 l 143 1033 l 142 928 l -17 114 l -53 8 l -54 0 z m 343 1031 b 368 972 363 1031 368 1017 b 271 499 368 803 304 499 b 236 506 267 499 250 501 l 338 1031 z m 146 -56 b 97 -304 136 -131 117 -229 l 101 -306 l 271 -85 l 147 -56 z "},"ƒ":{"ha":397,"x_min":0,"x_max":0,"o":"m 89 578 l 153 578 l 65 65 b 82 -210 42 -72 82 -158 b 51 -246 82 -233 72 -246 b -53 -121 18 -246 -28 -187 l -58 -121 l -86 -268 b -36 -278 -81 -272 -65 -278 b 217 -29 89 -278 189 -179 l 328 578 l 392 578 l 394 589 l 331 589 l 353 714 b 332 989 378 853 332 938 b 363 1025 332 1013 342 1025 b 467 900 396 1025 442 967 l 472 900 l 500 1047 b 450 1057 494 1051 479 1057 b 193 808 325 1057 219 960 l 156 589 l 92 589 z "},"ģ":{"ha":443,"x_min":0,"x_max":0,"o":"m 358 793 b 407 1042 368 868 388 967 l 403 1043 l 233 822 l 357 793 z m 513 847 l 335 735 b 281 749 318 743 301 749 b 31 436 165 749 31 581 b 146 228 31 343 68 243 b -36 111 54 214 -36 185 b 38 13 -36 71 -8 42 b -187 -182 -61 -24 -187 -92 b 67 -314 -187 -279 -40 -314 b 411 -78 268 -314 411 -190 b 243 96 411 -19 353 40 b 106 188 125 156 106 169 b 183 226 106 208 132 219 b 418 539 294 239 418 400 b 344 728 418 613 394 692 l 485 728 z m 274 739 b 282 703 279 739 282 725 b 175 235 282 589 215 235 b 167 271 169 235 167 249 b 274 739 167 385 233 739 z m -83 -149 b 46 8 -83 -87 -35 -29 b 128 -35 69 -6 97 -19 b 317 -189 232 -87 317 -133 b 121 -293 317 -251 215 -293 b -83 -149 24 -293 -83 -247 z "},"ķ":{"ha":475,"x_min":0,"x_max":0,"o":"m 100 0 l 158 225 b 178 256 165 236 172 246 b 185 57 174 156 175 79 b 319 -15 200 22 288 -15 b 421 167 351 -15 392 74 l 414 168 b 346 56 382 88 354 56 b 340 63 343 56 340 60 b 346 443 340 79 340 251 b 510 676 449 543 510 610 b 449 749 510 728 482 749 b 201 392 368 749 294 638 l 379 1079 l 396 1139 l 200 1111 l 197 1025 l -39 111 l -81 8 l -82 0 z m 344 611 b 375 568 360 611 375 601 b 289 401 375 536 357 468 b 165 253 264 376 217 332 l 168 264 b 344 611 268 549 304 611 z m 65 -56 b 17 -304 56 -131 36 -229 l 21 -306 l 190 -85 l 67 -56 z "},"ļ":{"ha":240,"x_min":0,"x_max":0,"o":"m 129 83 b 186 347 129 126 157 231 l 376 1079 l 393 1139 l 197 1111 l 194 1025 l 15 347 b -32 117 -8 260 -32 167 b 82 -15 -32 53 36 -15 b 192 167 122 -15 163 74 l 185 168 b 135 74 164 111 140 74 b 129 83 132 74 129 76 z m -39 -56 b -87 -304 -49 -131 -68 -229 l -83 -306 l 86 -85 l -37 -56 z "},"ņ":{"ha":479,"x_min":0,"x_max":0,"o":"m 196 117 b 310 -15 196 53 265 -15 b 419 167 350 -15 396 74 l 413 168 b 363 74 392 111 369 74 b 357 83 360 74 357 76 b 518 618 357 140 518 544 b 383 750 518 671 461 750 b 181 261 353 750 290 571 l 156 192 b 260 607 217 419 260 560 b 163 749 260 665 199 749 b 51 576 118 749 78 679 l 58 575 b 106 665 85 651 99 665 b 108 658 107 665 108 664 b -33 111 108 622 61 474 l -74 8 l -75 0 l 106 0 l 192 249 b 329 611 286 521 317 611 b 338 597 332 611 338 603 b 196 117 338 528 196 165 z m 69 -56 b 21 -304 60 -131 40 -229 l 25 -306 l 194 -85 l 71 -56 z "},"ŗ":{"ha":379,"x_min":0,"x_max":0,"o":"m 335 507 b 388 494 351 507 371 501 l 463 749 b 171 261 375 749 296 618 l 153 210 b 260 607 213 426 260 561 b 163 749 260 665 199 749 b 51 576 118 749 78 679 l 58 575 b 106 665 85 651 99 665 b 108 658 107 665 108 664 b -33 111 108 622 61 474 l -74 8 l -75 0 l 97 0 l 183 249 b 335 507 256 457 286 507 z m -60 -56 b -108 -304 -69 -131 -89 -229 l -104 -306 l 65 -85 l -58 -56 z "},"ﬀ":{"ha":518,"x_min":0,"x_max":0,"o":"m 76 725 l 118 725 l -96 -278 l 76 -278 l 286 725 l 376 725 l 163 -278 l 335 -278 l 544 725 l 613 725 l 615 736 l 547 736 l 561 803 b 540 1078 590 942 540 1026 b 571 1114 540 1101 550 1114 b 675 989 604 1114 650 1056 l 681 989 l 708 1136 b 658 1146 703 1140 688 1146 b 413 897 533 1146 444 1050 l 378 736 l 289 736 l 300 789 b 265 1064 329 928 265 1013 b 296 1100 265 1088 275 1100 b 400 975 329 1100 375 1042 l 406 975 l 433 1122 b 381 1132 429 1125 408 1132 b 151 883 258 1132 183 1036 l 119 736 l 78 731 z "},"ﬁ":{"ha":506,"x_min":0,"x_max":0,"o":"m 340 -15 b 450 167 381 -15 426 74 l 443 168 b 393 74 422 111 400 74 b 388 83 390 74 388 76 b 517 596 388 176 517 526 b 386 736 517 653 410 736 l 289 736 l 303 803 b 282 1078 332 942 282 1026 b 313 1114 282 1101 292 1114 b 417 989 346 1114 392 1056 l 422 989 l 450 1136 b 400 1146 444 1140 429 1146 b 154 897 275 1146 186 1050 l 119 736 l 74 731 l 72 725 l 118 725 l -96 -278 l 76 -278 l 286 725 l 385 725 b 386 721 386 725 386 724 b 226 117 386 671 226 213 b 340 -15 226 53 294 -15 z m 511 810 b 603 903 563 810 603 851 b 511 994 603 953 563 994 b 419 903 460 994 419 953 b 511 810 419 851 460 810 z "},"ﬂ":{"ha":500,"x_min":0,"x_max":0,"o":"m 389 83 b 446 347 389 126 417 231 l 636 1079 l 653 1139 l 494 1117 b 401 1146 472 1131 436 1146 b 154 897 275 1146 186 1050 l 119 736 l 78 731 l 76 725 l 118 725 l -96 -278 l 76 -278 l 286 725 l 354 725 l 357 736 l 289 736 l 303 803 b 282 1075 332 942 282 1024 b 314 1114 282 1099 292 1114 b 447 999 357 1114 417 1058 l 275 347 b 228 117 251 260 228 167 b 342 -15 228 53 296 -15 b 451 167 382 -15 422 74 l 444 168 b 394 74 424 111 400 74 b 389 83 392 74 389 76 z "},"ﬃ":{"ha":765,"x_min":0,"x_max":0,"o":"m 600 -15 b 710 167 640 -15 686 74 l 703 168 b 653 74 682 111 660 74 b 647 83 650 74 647 76 b 776 596 647 176 776 526 b 646 736 776 653 669 736 l 549 736 l 563 803 b 542 1078 592 942 542 1026 b 572 1114 542 1101 551 1114 b 676 989 606 1114 651 1056 l 682 989 l 710 1136 b 660 1146 704 1140 689 1146 b 414 897 535 1146 446 1050 l 379 736 l 289 736 l 300 789 b 265 1064 329 928 265 1013 b 296 1100 265 1088 275 1100 b 400 975 329 1100 375 1042 l 406 975 l 433 1122 b 381 1132 429 1125 408 1132 b 151 883 258 1132 183 1036 l 119 736 l 78 731 l 76 725 l 118 725 l -96 -278 l 76 -278 l 286 725 l 378 725 l 164 -278 l 336 -278 l 546 725 l 644 725 b 646 721 646 725 646 724 b 486 117 646 671 486 213 b 600 -15 486 53 554 -15 z m 771 810 b 863 903 822 810 863 851 b 771 994 863 953 822 994 b 679 903 719 994 679 953 b 771 810 679 851 719 810 z "},"ﬄ":{"ha":760,"x_min":0,"x_max":0,"o":"m 649 83 b 706 347 649 126 676 231 l 896 1079 l 913 1139 l 754 1117 b 661 1146 732 1131 696 1146 b 414 897 535 1146 446 1050 l 379 736 l 289 736 l 300 789 b 265 1064 329 928 265 1013 b 296 1100 265 1088 275 1100 b 400 975 329 1100 375 1042 l 406 975 l 433 1122 b 381 1132 429 1125 408 1132 b 151 883 258 1132 183 1036 l 119 736 l 78 731 l 76 725 l 118 725 l -96 -278 l 76 -278 l 286 725 l 378 725 l 164 -278 l 336 -278 l 546 725 l 614 725 l 617 736 l 549 736 l 563 803 b 542 1075 592 942 542 1024 b 574 1114 542 1099 551 1114 b 707 999 617 1114 676 1058 l 535 347 b 488 117 511 260 488 167 b 601 -15 488 53 556 -15 b 711 167 642 -15 682 74 l 704 168 b 654 74 683 111 660 74 b 649 83 651 74 649 76 z "}}}
